<svg width="24" height="24" viewBox="0 0 24 24" fill="none" xmlns="http://www.w3.org/2000/svg">
<path d="M9.52293 0H1.10092C0.495413 0 0 0.495413 0 1.10092V9.46789C0 10.0734 0.495413 10.5688 1.10092 10.5688H9.46789C10.0734 10.5688 10.5688 10.0734 10.5688 9.46789V1.10092C10.6239 0.495413 10.1284 0 9.52293 0ZM8.36697 2.20183V8.36697H2.20183V2.20183H8.36697Z" fill="#FED41E"/>
<path d="M22.8991 0H14.5321C13.9266 0 13.4312 0.495413 13.4312 1.10092V9.46789C13.4312 10.0734 13.9266 10.5688 14.5321 10.5688H22.8991C23.5046 10.5688 24 10.0734 24 9.46789V1.10092C24 0.495413 23.5046 0 22.8991 0ZM21.7982 2.20183V8.36697H15.633V2.20183H21.7982Z" fill="#FED41E"/>
<path d="M9.52293 13.4312H1.10092C0.495413 13.4312 0 13.9266 0 14.5321V22.8991C0 23.5046 0.495413 24 1.10092 24H9.46789C10.0734 24 10.5688 23.5046 10.5688 22.8991V14.5321C10.6239 13.9266 10.1284 13.4312 9.52293 13.4312ZM8.36697 15.633V21.7982H2.20183V15.633H8.36697Z" fill="#FED41E"/>
<path d="M22.8991 13.4312H14.5321C13.9266 13.4312 13.4312 13.9266 13.4312 14.5321V22.8991C13.4312 23.5046 13.9266 24 14.5321 24H22.8991C23.5046 24 24 23.5046 24 22.8991V14.5321C24 13.9266 23.5046 13.4312 22.8991 13.4312ZM21.7982 15.633V21.7982H15.633V15.633H21.7982Z" fill="#FED41E"/>
</svg>
