<svg width="23" height="25" viewBox="0 0 23 25" fill="none" xmlns="http://www.w3.org/2000/svg">
<path d="M11.5833 25L8.71389 21.6345L4.76179 22.2132L4.07172 18.1455L0.546875 16.21L2.29896 12.5L0.546922 8.78999L4.07176 6.85449L4.76179 2.78682L8.71389 3.36548L11.5833 0L14.4526 3.36548L18.4047 2.78682L19.0947 6.85449L22.6196 8.78999L20.8675 12.5L22.6196 16.21L19.0947 18.1455L18.4047 22.2132L14.4526 21.6345L11.5833 25Z" fill="#FF5959"/>
<path d="M14.4526 21.6345L18.4047 22.2132L19.0948 18.1455L22.6196 16.21L20.8675 12.5L22.6196 8.78999L19.0948 6.85449L18.4047 2.78682L14.4526 3.36548L11.5833 0V25L14.4526 21.6345Z" fill="#E63A57"/>
<path d="M7.74805 15.4292L14.4123 8.53522L15.4133 9.57076L8.74907 16.4648L7.74805 15.4292Z" fill="white"/>
<path d="M14.4153 13.2324C13.244 13.2324 12.2913 14.2181 12.2913 15.4297C12.2913 16.6413 13.244 17.627 14.4153 17.627C15.5865 17.627 16.5393 16.6413 16.5393 15.4297C16.5393 14.2181 15.5865 13.2324 14.4153 13.2324ZM14.4153 16.1621C14.0249 16.1621 13.7073 15.8335 13.7073 15.4297C13.7073 15.0258 14.0249 14.6973 14.4153 14.6973C14.8057 14.6973 15.1233 15.0258 15.1233 15.4297C15.1233 15.8335 14.8057 16.1621 14.4153 16.1621Z" fill="#D9E5FF"/>
<path d="M8.75122 7.37305C7.57999 7.37305 6.6272 8.35869 6.6272 9.57031C6.6272 10.7819 7.57999 11.7676 8.75122 11.7676C9.92245 11.7676 10.8752 10.7819 10.8752 9.57031C10.8752 8.35869 9.92245 7.37305 8.75122 7.37305ZM8.75122 10.3027C8.36083 10.3027 8.04321 9.97417 8.04321 9.57031C8.04321 9.16646 8.36083 8.83789 8.75122 8.83789C9.14162 8.83789 9.45923 9.16646 9.45923 9.57031C9.45923 9.97417 9.14162 10.3027 8.75122 10.3027Z" fill="white"/>
<path d="M11.5833 13.5357L15.4165 9.57027L14.4153 8.53458L11.5833 11.4643V13.5357Z" fill="#D9E5FF"/>
</svg>
