<svg width="201" height="200" viewBox="0 0 201 200" fill="none" xmlns="http://www.w3.org/2000/svg">
<circle cx="100.5" cy="100" r="100" fill="#FAFAFA"/>
<path d="M151.12 56.881L148.971 65.9196C148.758 66.798 148.209 67.5575 147.441 68.0339C146.673 68.5103 145.748 68.6654 144.867 68.4656L137.479 66.7696C137.354 66.7413 136.901 67.0975 136.795 67.1542L135.152 68.077C134.526 68.4305 133.897 68.7813 133.266 69.1294L132.456 69.5625C132.104 69.7487 131.703 70.0807 131.286 70.0483C131.155 70.0367 131.031 69.9878 130.927 69.9074C130.823 69.8271 130.744 69.7187 130.699 69.5949C130.562 69.1902 130.833 68.6397 130.942 68.2308C131.052 67.822 131.161 67.4213 131.266 67.0165C131.408 66.4944 131.549 65.9722 131.671 65.4501L129.161 64.8753C128.655 64.7606 128.182 64.5322 127.777 64.2074C127.473 63.9614 127.213 63.6658 127.008 63.3331C126.769 62.9459 126.609 62.5146 126.54 62.0647C126.47 61.6149 126.492 61.1556 126.603 60.7142L128.842 51.6068C129.059 50.7314 129.613 49.9767 130.382 49.5056C131.151 49.0346 132.075 48.885 132.954 49.0892L146.206 52.2059L148.55 52.7564C148.988 52.8591 149.402 53.0476 149.768 53.3108C150.133 53.5741 150.443 53.9071 150.679 54.2905C150.92 54.6716 151.084 55.0968 151.159 55.5415C151.235 55.9862 151.222 56.4415 151.12 56.881Z" fill="#CCCDCF"/>
<path d="M143.13 58.8401C143.805 58.8401 144.353 58.2928 144.353 57.6177C144.353 56.9426 143.805 56.3953 143.13 56.3953C142.455 56.3953 141.908 56.9426 141.908 57.6177C141.908 58.2928 142.455 58.8401 143.13 58.8401Z" fill="white"/>
<path d="M136.103 56.8972C136.778 56.8972 137.326 56.3499 137.326 55.6748C137.326 54.9997 136.778 54.4524 136.103 54.4524C135.428 54.4524 134.881 54.9997 134.881 55.6748C134.881 56.3499 135.428 56.8972 136.103 56.8972Z" fill="white"/>
<path d="M141.815 63.7136C141.682 63.6773 141.559 63.6125 141.454 63.5237C141.349 63.4349 141.265 63.3243 141.207 63.1995C140.945 62.6323 140.562 62.1292 140.085 61.7251C139.609 61.321 139.049 61.0258 138.447 60.8599C137.845 60.6933 137.214 60.6599 136.599 60.762C135.983 60.864 135.397 61.0991 134.881 61.4509C134.673 61.592 134.418 61.6449 134.171 61.5978C133.924 61.5507 133.706 61.4076 133.565 61.1999C133.424 60.9927 133.37 60.7378 133.417 60.4911C133.463 60.2445 133.605 60.0263 133.812 59.8844C134.556 59.377 135.401 59.0381 136.289 58.8913C137.177 58.7445 138.086 58.7933 138.953 59.0344C139.82 59.2738 140.625 59.6991 141.311 60.2806C141.997 60.8621 142.549 61.5861 142.928 62.4021C142.98 62.5153 143.01 62.6377 143.014 62.7623C143.019 62.8869 143 63.0113 142.956 63.1282C142.913 63.2452 142.847 63.3524 142.762 63.4439C142.678 63.5353 142.576 63.6091 142.462 63.661C142.259 63.7543 142.03 63.773 141.815 63.7136Z" fill="white"/>
<path fill-rule="evenodd" clip-rule="evenodd" d="M65.008 137.164C65.008 140.995 68.145 144.102 72.01 144.102H127.992C131.857 144.102 134.994 140.995 134.994 137.164L141.995 88.5999H58.0073L65.008 137.164Z" fill="#F7F7F7"/>
<path fill-rule="evenodd" clip-rule="evenodd" d="M92.2112 122.423C89.9427 129.75 88.6014 137.053 88.1157 144.102H127.992C131.857 144.102 134.994 140.994 134.994 137.164L141.995 88.5999H110.988C102.988 97.4943 96.347 109.064 92.2125 122.423H92.2112Z" fill="#EBEBEB"/>
<path fill-rule="evenodd" clip-rule="evenodd" d="M82.2363 113.829V128.458C82.2363 132.469 88.3541 132.469 88.3541 128.458V113.829C88.3541 109.817 82.2363 109.817 82.2363 113.829Z" fill="#E0E0E0"/>
<path fill-rule="evenodd" clip-rule="evenodd" d="M96.9419 109.669V130.137C96.9419 134.149 103.06 134.149 103.06 130.137V109.669C103.06 105.657 96.9419 105.657 96.9419 109.669Z" fill="#E0E0E0"/>
<path fill-rule="evenodd" clip-rule="evenodd" d="M111.648 113.829V128.458C111.648 132.469 117.766 132.469 117.766 128.458V113.829C117.766 109.817 111.648 109.817 111.648 113.829Z" fill="#E0E0E0"/>
<path fill-rule="evenodd" clip-rule="evenodd" d="M151.482 82.7007H121.695L107.203 55.5773C105.308 52.0321 100.027 55.0894 101.919 58.632L114.778 82.7007H85.2193L98.0812 58.6307C99.9733 55.0882 94.6916 52.0308 92.7968 55.576L78.3033 82.6994H48.5179C44.4966 82.6994 44.4914 88.7624 48.5179 88.7624H52.2747L58.9056 134.758C60.0437 142.649 62.4111 150.002 72.5475 150.002H127.452C136.573 150.002 139.809 143.673 140.917 135.986L147.725 88.7624H151.482C155.507 88.7624 155.503 82.6994 151.482 82.6994V82.7007ZM134.839 135.773C134.216 140.091 132.814 143.939 127.451 143.939H72.5488C66.2878 143.939 65.6198 138.954 64.9582 134.359L58.386 88.7624H75.0634L72.9134 92.7863H70.8325C66.7839 92.7863 66.7839 98.8493 70.8325 98.8493H80.0404C83.8585 98.8493 84.1866 93.2484 80.3972 92.807L79.8542 92.7438L81.982 88.7624H118.019L120.147 92.7438L119.604 92.807C115.813 93.2484 116.143 98.8493 119.96 98.8493H129.167C133.216 98.8493 133.216 92.7863 129.167 92.7863H127.085L124.935 88.7624H141.615L134.839 135.773Z" fill="#E0E0E0"/>
</svg>
