<svg width="201" height="200" viewBox="0 0 201 200" fill="none" xmlns="http://www.w3.org/2000/svg">
<circle cx="100.5" cy="100" r="100" fill="#FAFAFA"/>
<path d="M101 151C128.89 151 151.5 128.39 151.5 100.5C151.5 72.6096 128.89 50 101 50C73.1096 50 50.5 72.6096 50.5 100.5C50.5 128.39 73.1096 151 101 151Z" fill="#F4F4F4"/>
<path d="M146.292 100.634C146.292 112.771 141.565 124.18 132.984 132.763C124.404 141.344 112.994 146.074 100.855 146.074C97.121 146.074 93.4566 145.626 89.9241 144.755C81.9669 142.8 74.6691 138.706 68.7264 132.763C60.146 124.183 55.4187 112.773 55.4187 100.634C55.4187 88.4956 60.146 77.086 68.7264 68.5056C77.3069 59.9251 88.719 55.1979 100.855 55.1979C105.585 55.1979 110.204 55.9142 114.587 57.2977C121.453 59.4648 127.745 63.2663 132.982 68.5056C141.562 77.086 146.289 88.4982 146.289 100.634H146.292Z" fill="#E0E0E0"/>
<path d="M129.438 75.3844C128.37 74.6215 127.458 73.7061 126.237 73.0984L125.779 72.6406C125.016 72.3355 124.406 71.7252 123.493 71.5726C123.035 71.42 122.73 71.1149 122.425 70.9623C113.428 67.3031 102.603 68.9814 95.4373 75.6896C94.3693 75.0793 93.4564 74.3164 92.3884 73.8586C92.0832 73.7061 91.6255 73.7061 91.3203 73.4009C91.0152 73.2483 90.5575 73.2483 90.2523 73.0958C90.0997 73.0958 89.9472 72.7906 89.7946 72.7906C84.3044 71.2649 78.6643 71.4174 73.4793 74.0112C69.8201 75.8421 67.0763 78.2808 64.6351 81.6348C61.281 86.6673 59.9078 92.1548 60.3656 97.7975C60.9759 105.116 64.4825 111.824 70.4278 116.551C70.733 116.704 70.8855 116.857 71.1907 117.009C76.8308 121.889 82.6261 125.548 88.8765 129.97C91.8789 132.137 94.7443 134.261 97.4467 136.513C101.318 139.738 107.059 139.218 110.271 135.336C111.74 133.562 113.177 131.731 114.644 129.818C118.15 125.09 120.894 120.974 124.248 116.096C125.927 113.81 127.297 111.979 128.976 109.846C129.57 109.135 130.186 108.467 130.799 107.803C132.534 105.92 134.029 103.828 135.2 101.55C135.368 101.221 135.531 100.888 135.684 100.544C136.447 98.563 136.904 96.5795 137.209 94.446C137.515 90.6342 136.904 87.1276 135.531 83.6209C134.616 81.64 133.55 79.9617 132.177 78.1308C132.024 77.9782 131.872 77.9782 131.719 77.8256C131.109 76.9102 130.194 76.1473 129.433 75.387L129.438 75.3844Z" fill="white"/>
<g style="mix-blend-mode:soft-light" opacity="0.5">
<path d="M146.437 100.5C146.437 112.636 141.709 124.046 133.129 132.629C124.548 141.209 113.139 145.939 101 145.939C97.2658 145.939 93.6014 145.492 90.0688 144.62C92.4066 143.723 94.8427 143.071 97.3201 142.696C101.605 142.047 106.009 142.195 110.217 141.163C118.857 139.042 125.492 132.324 131.642 125.895C134.034 123.392 136.475 120.818 137.843 117.638C139.227 114.418 139.4 110.821 139.418 107.317C139.452 101.157 139.066 94.9918 138.265 88.8836C137.629 84.0451 136.672 79.0825 133.951 75.0302C131.432 71.2753 127.621 68.6246 124.124 65.7541C121.471 63.5767 117.393 60.5665 114.734 57.1633C121.6 59.3304 127.892 63.1319 133.129 68.3712C141.709 76.9516 146.437 88.3638 146.437 100.5Z" fill="black"/>
</g>
<path opacity="0.4" d="M98.1477 74.3837C97.346 74.288 96.5055 74.6707 96.053 75.3405C95.6004 76.0077 95.5565 76.9309 95.9444 77.6395C96.0478 77.8283 96.1875 78.0093 96.3814 78.1024C96.715 78.2627 97.1184 78.1231 97.4339 77.9291C97.7494 77.7326 98.0365 77.4766 98.3933 77.3783C98.908 77.2361 99.4821 77.4404 99.976 77.2438C100.581 77.0033 100.804 76.1189 100.385 75.6198C100.227 75.431 100.01 75.3069 99.795 75.1854C99.3036 74.9061 98.6364 74.663 98.1451 74.3837" fill="#E0E0E0"/>
<path opacity="0.4" d="M84.2192 96.8486C84.3796 96.3288 84.227 95.7211 83.8391 95.3409C83.4486 94.9582 82.8409 94.8185 82.3237 94.9892C82.1866 95.0358 82.0496 95.1056 81.9642 95.222C81.8168 95.4237 81.8608 95.7081 81.9513 95.9409C82.0444 96.1736 82.1789 96.396 82.2021 96.6469C82.2358 97.0063 82.0289 97.3632 82.0987 97.7149C82.184 98.1468 82.7452 98.4002 83.1279 98.183C83.2728 98.1002 83.3814 97.9709 83.4874 97.8442C83.7331 97.552 83.9762 97.1382 84.2192 96.846" fill="#E0E0E0"/>
<path opacity="0.4" d="M119.229 83.8202C119.343 83.453 119.234 83.0289 118.96 82.7599C118.686 82.491 118.259 82.3927 117.894 82.5116C117.796 82.5427 117.7 82.5944 117.641 82.6772C117.538 82.8194 117.569 83.0185 117.633 83.184C117.698 83.3469 117.794 83.5047 117.809 83.6805C117.832 83.934 117.687 84.1848 117.737 84.4331C117.799 84.7356 118.192 84.9167 118.461 84.7615C118.562 84.7046 118.639 84.6115 118.714 84.5236C118.887 84.3167 119.058 84.0271 119.229 83.8228" fill="#E0E0E0"/>
<path opacity="0.4" d="M84.3459 110.836C83.6606 110.857 83.0787 111.754 83.1744 112.435C83.2701 113.115 83.9347 113.645 84.6226 113.645C85.3079 113.645 85.9518 113.161 86.2052 112.525C86.4251 111.974 86.3552 111.286 85.9363 110.862C85.5174 110.441 84.7415 110.394 84.3459 110.836Z" fill="#E0E0E0"/>
<path opacity="0.4" d="M121.344 107.826C121 107.837 120.711 108.284 120.757 108.625C120.804 108.967 121.138 109.231 121.481 109.231C121.825 109.231 122.146 108.988 122.273 108.669C122.384 108.393 122.348 108.049 122.138 107.839C121.929 107.627 121.541 107.607 121.344 107.826Z" fill="#E0E0E0"/>
<path opacity="0.4" d="M102.425 87.0657C102.254 87.0708 102.109 87.2958 102.133 87.4639C102.156 87.6346 102.324 87.7665 102.495 87.7665C102.665 87.7665 102.826 87.6449 102.89 87.4872C102.945 87.3501 102.927 87.1769 102.823 87.0708C102.72 86.9648 102.526 86.9545 102.425 87.0657Z" fill="#E0E0E0"/>
<path opacity="0.4" d="M88.543 119.166C88.3723 119.171 88.2275 119.396 88.2508 119.564C88.274 119.735 88.4421 119.867 88.6128 119.867C88.7835 119.867 88.9438 119.745 89.0085 119.587C89.0628 119.45 89.0447 119.277 88.9412 119.171C88.8378 119.065 88.6438 119.055 88.543 119.166Z" fill="#E0E0E0"/>
<path opacity="0.4" d="M112.929 86.0932C112.616 86.101 112.35 86.5122 112.391 86.8251C112.433 87.1354 112.741 87.3785 113.053 87.3785C113.366 87.3785 113.661 87.1561 113.778 86.8665C113.878 86.613 113.847 86.3001 113.656 86.1062C113.465 85.9122 113.11 85.8915 112.929 86.0958" fill="#E0E0E0"/>
<path opacity="0.4" d="M120.871 94.6763C120.638 94.6841 120.439 94.9892 120.473 95.2194C120.504 95.4495 120.731 95.6305 120.964 95.6305C121.197 95.6305 121.417 95.465 121.502 95.2504C121.577 95.0616 121.554 94.8289 121.411 94.6841C121.269 94.5392 121.005 94.5237 120.871 94.6763Z" fill="#E0E0E0"/>
<path opacity="0.4" d="M92.4506 84.9942C92.2178 85.0019 92.0187 85.3071 92.0523 85.5372C92.0833 85.7674 92.3109 85.9484 92.5437 85.9484C92.7764 85.9484 92.9962 85.7829 93.0815 85.5683C93.1565 85.3795 93.1333 85.1467 92.991 85.0019C92.8488 84.8571 92.585 84.8416 92.4506 84.9942Z" fill="#E0E0E0"/>
<path opacity="0.4" d="M114.608 111.012C114.018 111.028 113.519 111.804 113.599 112.388C113.679 112.972 114.256 113.43 114.846 113.43C115.438 113.43 115.989 113.014 116.208 112.466C116.397 111.99 116.338 111.398 115.978 111.035C115.619 110.673 114.949 110.632 114.61 111.015" fill="#E0E0E0"/>
<path d="M114.021 69.1108C113.547 69.0229 113.077 69.0616 112.694 69.3513C112.311 69.6409 112.203 70.3029 112.588 70.59C112.764 70.7193 112.994 70.7477 113.211 70.7607C113.462 70.7762 113.715 70.7839 113.969 70.7762C114.134 70.7736 114.308 70.7633 114.455 70.6857C114.809 70.4969 115.014 70.1374 114.936 69.7444C114.884 69.4806 114.768 69.2297 114.023 69.1082" fill="white"/>
<path d="M109.203 69.1056C108.957 69.0306 108.714 69.0642 108.515 69.3099C108.316 69.5555 108.259 70.1167 108.461 70.3598C108.551 70.471 108.67 70.4943 108.784 70.5046C108.916 70.5175 109.045 70.5227 109.177 70.5201C109.262 70.5175 109.353 70.5098 109.428 70.4425C109.612 70.2822 109.718 69.9771 109.679 69.6435C109.65 69.4185 109.591 69.209 109.203 69.1056Z" fill="white"/>
<path d="M116.881 66.2144C116.635 66.1679 116.392 66.1886 116.193 66.3437C115.994 66.4989 115.937 66.8506 116.138 67.0032C116.229 67.073 116.348 67.0859 116.462 67.0937C116.594 67.1014 116.723 67.1066 116.855 67.1014C116.94 67.1014 117.031 67.0937 117.106 67.0523C117.289 66.9514 117.395 66.7601 117.356 66.5506C117.328 66.411 117.269 66.2765 116.881 66.2118" fill="white"/>
<path d="M117.85 71.658C117.713 71.614 117.576 71.6321 117.463 71.7795C117.351 71.9243 117.32 72.2553 117.432 72.4002C117.483 72.4648 117.551 72.4777 117.613 72.4855C117.685 72.4932 117.76 72.4958 117.832 72.4932C117.882 72.4932 117.931 72.4855 117.975 72.4467C118.078 72.3536 118.138 72.1726 118.114 71.976C118.099 71.8442 118.065 71.72 117.848 71.658" fill="white"/>
<path d="M110.413 61.2906C110.33 61.2647 110.247 61.2751 110.18 61.363C110.113 61.4509 110.095 61.65 110.162 61.738C110.193 61.7768 110.235 61.7845 110.271 61.7897C110.315 61.7949 110.359 61.7974 110.405 61.7949C110.434 61.7949 110.465 61.7897 110.491 61.7664C110.553 61.7095 110.589 61.6009 110.576 61.4819C110.566 61.4018 110.547 61.3268 110.416 61.2906" fill="white"/>
<path d="M106.811 64.2542C106.614 64.1922 106.418 64.218 106.26 64.4249C106.1 64.6318 106.056 65.1024 106.216 65.3067C106.288 65.3998 106.384 65.4179 106.475 65.4283C106.578 65.4412 106.684 65.4438 106.79 65.4412C106.86 65.4412 106.93 65.4309 106.992 65.3766C107.139 65.2421 107.225 64.9861 107.191 64.7068C107.17 64.518 107.121 64.3421 106.811 64.2542Z" fill="white"/>
<path d="M114.184 63.2198C114.085 63.1887 113.987 63.2017 113.907 63.3051C113.827 63.4085 113.806 63.6439 113.886 63.7473C113.922 63.7939 113.972 63.8042 114.016 63.8094C114.067 63.8145 114.122 63.8171 114.173 63.8145C114.207 63.8145 114.243 63.8094 114.274 63.7809C114.347 63.7137 114.39 63.5844 114.375 63.4447C114.365 63.3516 114.341 63.2611 114.184 63.2172" fill="white"/>
<path opacity="0.4" d="M118.251 101.824C126.145 101.824 132.544 96.8259 132.544 90.6602C132.544 84.4946 126.145 79.4963 118.251 79.4963C110.358 79.4963 103.958 84.4946 103.958 90.6602C103.958 96.8259 110.358 101.824 118.251 101.824Z" fill="#E0E0E0"/>
<g style="mix-blend-mode:soft-light" opacity="0.3">
<path d="M121.339 91.1256C121.339 94.4487 118.644 97.1459 115.319 97.1459C113.972 97.1459 112.725 96.7037 111.722 95.9537C110.25 94.8547 109.299 93.1014 109.299 91.1256C109.299 87.8026 111.993 85.1053 115.319 85.1053H115.384C118.678 85.139 121.337 87.8207 121.337 91.1256H121.339Z" fill="black"/>
</g>
<path d="M121.174 90.6602C121.174 93.9832 118.479 96.6804 115.153 96.6804C113.806 96.6804 112.56 96.2382 111.556 95.4883C110.085 94.3892 109.133 92.6359 109.133 90.6602C109.133 87.3371 111.828 84.6399 115.153 84.6399H115.218C118.513 84.6735 121.171 87.3552 121.171 90.6602H121.174Z" fill="#EDA343"/>
<g style="mix-blend-mode:soft-light" opacity="0.3">
<path d="M121.174 90.6603C121.174 93.9833 118.479 96.6805 115.153 96.6805C113.806 96.6805 112.56 96.2383 111.556 95.4884C112.037 95.1108 112.71 94.935 113.338 94.8884C114.251 94.8212 115.2 94.9298 116.061 94.6247C116.661 94.41 117.176 94.0066 117.765 93.7739C117.99 93.6859 118.223 93.6213 118.438 93.5101C118.911 93.2592 119.229 92.7834 119.41 92.2791C119.844 91.0585 119.519 89.6698 118.854 88.5552C118.334 87.6863 117.626 86.9571 116.894 86.2666C116.477 85.8735 115.495 85.2813 115.218 84.6426C118.513 84.6762 121.171 87.3579 121.171 90.6629L121.174 90.6603Z" fill="black"/>
</g>
<path opacity="0.2" d="M111.817 86.2613C111.008 87.0061 110.183 87.8543 109.984 88.9378C109.94 89.1809 109.929 89.4421 110.028 89.6697C110.126 89.8973 110.351 90.0835 110.599 90.0731C110.86 90.0628 111.07 89.8455 111.173 89.605C111.277 89.3645 111.297 89.1008 111.354 88.8473C111.502 88.175 111.91 87.5647 112.472 87.1664C112.735 86.9802 113.059 86.8044 113.131 86.4889C113.198 86.1889 112.953 85.9122 112.676 85.8475C112.327 85.7674 112.053 86.0441 111.817 86.2613Z" fill="white"/>
<path opacity="0.4" d="M112.511 118.433C117.566 115.48 119.794 109.885 117.487 105.937C115.181 101.988 109.213 101.18 104.158 104.133C99.1028 107.086 96.8748 112.681 99.1814 116.63C101.488 120.578 107.456 121.386 112.511 118.433Z" fill="#E0E0E0"/>
<g style="mix-blend-mode:soft-light" opacity="0.3">
<path d="M106.532 112.74C107.776 114.868 110.509 115.587 112.637 114.343C113.501 113.839 114.132 113.089 114.494 112.235C115.024 110.981 114.978 109.502 114.241 108.237C112.997 106.109 110.263 105.39 108.135 106.634L108.094 106.657C105.996 107.912 105.296 110.624 106.532 112.74Z" fill="black"/>
</g>
<path d="M106.465 112.378C107.708 114.506 110.442 115.225 112.57 113.981C113.434 113.477 114.065 112.727 114.427 111.873C114.957 110.619 114.91 109.14 114.173 107.875C112.93 105.747 110.196 105.028 108.068 106.272L108.026 106.295C105.929 107.549 105.228 110.262 106.465 112.378Z" fill="#EDA343"/>
<g style="mix-blend-mode:soft-light" opacity="0.3">
<path d="M106.464 112.377C107.708 114.506 110.442 115.225 112.57 113.981C113.434 113.476 114.065 112.726 114.427 111.873C113.977 111.811 113.48 111.951 113.061 112.155C112.451 112.452 111.885 112.879 111.218 113.003C110.755 113.089 110.274 113.024 109.808 113.096C109.632 113.125 109.459 113.171 109.278 113.179C108.882 113.195 108.5 113.011 108.197 112.755C107.463 112.134 107.152 111.123 107.16 110.164C107.168 109.414 107.349 108.682 107.558 107.963C107.677 107.554 108.086 106.81 108.024 106.298C105.927 107.552 105.226 110.265 106.462 112.38L106.464 112.377Z" fill="black"/>
</g>
<path opacity="0.2" d="M110.811 106.063C111.61 106.238 112.454 106.471 112.986 107.092C113.105 107.231 113.209 107.394 113.232 107.578C113.255 107.762 113.18 107.963 113.017 108.051C112.847 108.142 112.629 108.082 112.474 107.966C112.319 107.852 112.205 107.689 112.076 107.547C111.729 107.172 111.241 106.934 110.731 106.89C110.493 106.869 110.219 106.877 110.056 106.701C109.901 106.536 109.955 106.264 110.108 106.119C110.302 105.938 110.581 106.011 110.814 106.063H110.811Z" fill="white"/>
</svg>
