<svg width="131" height="112" viewBox="0 0 131 112" fill="none" xmlns="http://www.w3.org/2000/svg">
<rect x="8.00008" y="33" width="115" height="79" rx="10" fill="#FED41E"/>
<path d="M104.874 59.8202H86.0682V110.007H104.874V59.8202Z" fill="#4FC2E9"/>
<path d="M116.457 0H14.0831C11.3217 0 9.08308 2.23857 9.08308 5V11.5585C9.08308 14.3199 11.3217 16.5585 14.0831 16.5585H116.457C119.218 16.5585 121.457 14.3199 121.457 11.5585V5C121.457 2.23858 119.218 0 116.457 0Z" fill="#E6E9ED"/>
<path d="M82.0256 57.3671V112H109.735V57.3671H82.0256ZM104.26 106.532H87.501V62.8355H104.26V106.532Z" fill="#F5F7FA"/>
<path d="M104.848 81.9493H84.7378C83.2282 81.9493 82.0001 83.1759 82.0001 84.6835C82.0001 86.1912 83.2282 87.4177 84.7378 87.4177H104.848C106.358 87.4177 107.586 86.1912 107.586 84.6835C107.586 83.1759 106.358 81.9493 104.848 81.9493Z" fill="#F5F7FA"/>
<path d="M115.367 51.8987C123.99 51.8987 131 44.8971 131 36.2856C131 35.4679 130.923 34.6502 130.795 33.8581L130.719 33.3725C130.693 33.2959 130.693 33.2192 130.667 33.1426L121.61 10.9368H99.0944L102.856 45.6637L103.393 46.3281C106.259 49.7266 110.557 51.8987 115.367 51.8987Z" fill="#DA4453"/>
<path d="M76.6043 10.9368L77.858 45.6637C80.7237 49.4455 85.2524 51.8987 90.3696 51.8987C95.4868 51.8987 100.015 49.4455 102.881 45.6637L99.12 10.9368H76.6043Z" fill="#E6E9ED"/>
<path d="M15.6331 51.8987C6.98504 51.8987 7.62939e-05 44.9226 7.62939e-05 36.2856C7.62939e-05 35.4679 0.0512482 34.6502 0.179178 33.8581L0.281522 33.3725C0.281522 33.2959 0.307108 33.2192 0.332693 33.1426L9.39011 10.9368H31.9057L28.1446 45.6637L27.6329 46.3281C24.7417 49.7266 20.4432 51.8987 15.6331 51.8987Z" fill="#DA4453"/>
<path d="M54.3957 10.9368L53.142 45.6637C50.302 49.4455 45.7477 51.8987 40.6305 51.8987C35.5133 51.8987 30.9846 49.4455 28.119 45.6637L31.8801 10.9368H54.3957Z" fill="#E6E9ED"/>
<path d="M54.0887 10.9368L52.835 45.6637C55.6751 49.4455 60.2294 51.8987 65.3466 51.8987C70.4637 51.8987 74.9925 49.4455 77.8581 45.6637L76.6044 10.9368H54.0887Z" fill="#DA4453"/>
<path d="M0.307108 33.2192C0.307108 33.2703 0.281522 33.3215 0.281522 33.3726L0.179178 33.8581C0.0512482 34.6502 7.62939e-05 35.4679 7.62939e-05 36.2856C7.62939e-05 44.8971 6.98504 51.8987 15.6331 51.8987C20.4432 51.8987 24.7417 49.7267 27.6073 46.3281L28.119 45.6637L29.4751 33.2192H0.307108Z" fill="#ED5564"/>
<path d="M29.475 33.2192L28.119 45.6637C30.9846 49.4456 35.5133 51.8987 40.6305 51.8987C45.7477 51.8987 50.2764 49.4456 53.142 45.6637L53.6026 33.2192H29.475Z" fill="#F5F7FA"/>
<path d="M53.2956 33.2192L52.835 45.6637C55.6751 49.4456 60.2294 51.8987 65.3466 51.8987C70.4637 51.8987 74.9925 49.4456 77.8581 45.6637L77.4231 33.2192H53.2956Z" fill="#ED5564"/>
<path d="M77.3975 33.2192L77.8325 45.6637C80.6981 49.4456 85.2268 51.8987 90.344 51.8987C95.4612 51.8987 99.9899 49.4456 102.856 45.6637L101.525 33.2192H77.3975Z" fill="#F5F7FA"/>
<path d="M130.795 33.8581L130.719 33.3726C130.719 33.3215 130.693 33.2703 130.693 33.2192H101.525L102.856 45.6637L103.393 46.3281C106.259 49.7267 110.557 51.8987 115.367 51.8987C123.99 51.8987 131 44.8971 131 36.2856C131 35.4679 130.923 34.6502 130.795 33.8581Z" fill="#ED5564"/>
<path d="M67.6237 92.8606H24.844C24.3323 92.8606 23.8462 93.1161 23.5647 93.5761C23.2833 94.0105 23.2577 94.5727 23.488 95.0326L24.844 97.8179C25.4837 99.1211 26.7886 99.9389 28.247 99.9389H64.272C65.7304 99.9389 67.0352 99.1211 67.6749 97.8179L69.0309 95.0326C69.2612 94.5727 69.2356 94.0105 68.9542 93.5761C68.6216 93.1417 68.1354 92.8606 67.6237 92.8606Z" fill="#A8293B"/>
<path d="M69.773 88.3121C68.8519 78.1164 59.3339 70.0416 47.5132 69.5049V68.0228C48.639 67.5373 49.4065 66.413 49.4065 65.1098C49.4065 63.3466 47.9737 61.9412 46.2339 61.9412C44.4685 61.9412 43.0612 63.3721 43.0612 65.1098C43.0612 66.413 43.8544 67.5373 44.9546 68.0228V69.5049C33.1339 70.0416 23.6159 78.1419 22.6948 88.3121C22.6437 88.721 22.7972 89.1554 23.0786 89.462C23.3601 89.7687 23.7694 89.9475 24.1788 89.9475H68.289C68.7239 89.9475 69.1077 89.7687 69.3892 89.462C69.6706 89.1298 69.8241 88.721 69.773 88.3121ZM36.6136 77.5031C33.2874 79.394 30.9847 82.256 30.1403 85.5524C29.9868 86.1401 29.4751 86.4979 28.9122 86.4979C28.8099 86.4979 28.7075 86.4723 28.5796 86.4467C27.8888 86.2679 27.4794 85.5779 27.6585 84.888C28.6819 80.9017 31.4196 77.4776 35.3599 75.2544C35.9739 74.8967 36.7671 75.1266 37.0997 75.7399C37.4323 76.3788 37.2276 77.1454 36.6136 77.5031Z" fill="#DA4453"/>
</svg>
