<svg width="122" height="122" viewBox="0 0 122 122" fill="none" xmlns="http://www.w3.org/2000/svg">
<rect width="122" height="122" rx="40" fill="#FED41E"/>
<path d="M36.2545 59.6178C35.978 59.3068 35.7015 59.0994 35.425 58.9266L35.1486 58.7538L35.3214 58.4773C35.5978 58.0971 35.7361 57.6824 35.7361 57.2331C35.7361 56.5419 35.4942 55.9889 35.0103 55.5051C34.5265 55.0212 33.9389 54.7793 33.2823 54.7793H30.9321V66.8411H33.9389L34.0772 66.7719C34.9066 66.6337 35.6324 66.2535 36.2545 65.5969C37.084 64.7328 37.4987 63.7306 37.4987 62.5555C37.4641 61.4496 37.0494 60.4473 36.2545 59.6178ZM32.2109 56.1272H33.2477C33.5933 56.1272 33.8698 56.2309 34.0772 56.4382C34.3191 56.6456 34.4228 56.9221 34.4228 57.2331C34.4228 57.5787 34.3191 57.8207 34.1117 58.028C33.9389 58.2008 33.697 58.3045 33.4551 58.3391H32.5219H32.2109V56.1272ZM35.2522 64.6983C34.7684 65.2167 34.2154 65.4932 33.5588 65.5623H32.2454V59.7561H33.2477C34.0426 59.7561 34.7338 60.0326 35.2868 60.5855C35.8398 61.1385 36.1163 61.8297 36.1163 62.6246C36.1163 63.4195 35.8398 64.1107 35.2522 64.6983Z" fill="black"/>
<path d="M39.5723 54.8137V62.901C39.5723 64.0069 39.987 64.9746 40.7473 65.7695C41.5422 66.5644 42.5099 66.9446 43.6159 66.9446C44.7218 66.9446 45.6895 66.5299 46.4844 65.7695C47.1411 65.1129 47.5558 64.2834 47.6595 63.2811V54.8137H46.3462V62.901C46.3462 63.6613 46.0697 64.2834 45.5513 64.8364C45.0329 65.3548 44.3417 65.6313 43.6159 65.6313C42.8901 65.6313 42.1989 65.3548 41.6805 64.8364C41.1275 64.2834 40.8856 63.6613 40.8856 62.901V54.8137H39.5723Z" fill="black"/>
<path d="M53.1894 65.7003C52.5328 65.7003 51.9452 65.4584 51.4959 64.9745C51.0812 64.5598 50.8738 64.1105 50.8047 63.5575L50.7701 63.1428L49.4914 63.5921L49.526 63.8686C49.6296 64.6289 49.9752 65.3201 50.5628 65.9077C51.2886 66.6334 52.1526 67.0136 53.1894 67.0136C54.1917 67.0136 55.0903 66.6334 55.816 65.9422C56.5418 65.2164 56.8874 64.3524 56.8874 63.3156C56.8874 62.3133 56.5073 61.4147 55.816 60.689C55.1594 60.0323 54.3645 59.5484 53.4659 59.272H53.4313C52.9129 59.03 52.4982 58.7535 52.1871 58.4771C51.9107 58.2006 51.7724 57.855 51.7724 57.4748C51.7724 57.0601 51.9107 56.749 52.1871 56.4725C52.7401 55.9195 53.6387 55.9195 54.2262 56.4725C54.399 56.6453 54.5027 56.8181 54.5718 56.9909L54.6755 57.302L55.8852 56.8181L55.7815 56.5071C55.6778 56.1269 55.4704 55.8159 55.1594 55.5394C54.088 54.468 52.3254 54.468 51.254 55.5394C50.7356 56.0578 50.4591 56.7145 50.4591 57.4748C50.4591 58.2351 50.7356 58.8918 51.254 59.4102C51.7378 59.8941 52.4291 60.3088 53.2931 60.5853C53.9498 60.8618 54.4682 61.2074 54.9175 61.6221C55.4013 62.106 55.6087 62.6589 55.6087 63.3156C55.6087 63.9722 55.3667 64.5252 54.9175 65.0091C54.4336 65.4584 53.8115 65.7003 53.1894 65.7003Z" fill="black"/>
<path d="M60.8964 66.8755H62.2097V56.127H65.1128V54.8137H58.0278V56.127H60.8964V66.8755Z" fill="black"/>
<path d="M73.3038 56.127V54.8137H66.9446V66.8755H73.3038V65.5622H68.258V61.5185H73.3038V60.1707H68.258V56.127H73.3038Z" fill="black"/>
<path d="M81.4255 61.7259C82.2204 60.931 82.6005 59.9633 82.6005 58.8574C82.6005 57.7514 82.1858 56.7837 81.4255 55.9888C80.7688 55.3321 79.9394 54.9174 78.9371 54.8137H75.6538V66.8755H76.9671V62.9355H78.5569L81.0799 66.8755H82.6697L79.9739 62.6936L80.285 62.5554C80.7343 62.348 81.1144 62.0715 81.4255 61.7259ZM78.5915 61.5877H77.0017V56.127H78.5915C79.3518 56.127 79.9739 56.4035 80.5269 56.9219C81.0799 57.4749 81.3218 58.097 81.3218 58.8574C81.3218 59.6177 81.0453 60.2398 80.5269 60.7928C79.9739 61.3457 79.3173 61.5877 78.5915 61.5877Z" fill="black"/>
<path d="M87.7157 59.2374H87.6811C87.1627 58.9955 86.7479 58.719 86.4369 58.4425C86.1604 58.166 86.0222 57.8204 86.0222 57.4402C86.0222 57.0255 86.1604 56.7145 86.4369 56.438C86.9899 55.885 87.8885 55.885 88.4414 56.438C88.6142 56.6108 88.7179 56.7836 88.787 56.9564L88.8907 57.302L90.1004 56.8181L89.9967 56.5071C89.893 56.1269 89.6856 55.8159 89.3746 55.5394C88.3032 54.468 86.5406 54.468 85.4692 55.5394C84.9508 56.0578 84.6743 56.7145 84.6743 57.4748C84.6743 58.2351 84.9508 58.8918 85.4692 59.4102C85.953 59.8941 86.6443 60.3088 87.5083 60.5853C88.1649 60.8618 88.6834 61.2074 89.1326 61.6221C89.6165 62.106 89.8239 62.6589 89.8239 63.3156C89.8239 63.9722 89.5819 64.5598 89.1326 65.0091C88.1649 65.9422 86.6788 65.9422 85.7457 65.0091C85.331 64.5943 85.1236 64.145 85.0545 63.5921L85.0199 63.1428L83.7411 63.5921L83.7757 63.8686C83.8794 64.6289 84.225 65.3201 84.8125 65.9077C85.5383 66.6334 86.4023 67.0136 87.4392 67.0136C88.4414 67.0136 89.34 66.6334 90.0658 65.9422C90.7916 65.2164 91.1372 64.3524 91.1372 63.3156C91.1372 62.3133 90.757 61.4147 90.0658 60.689C89.4091 60.0323 88.6142 59.5139 87.7157 59.2374Z" fill="black"/>
<path d="M22.8103 48.1781H24.6075V40.8512H30.5519V39.0194H24.6075V33.4897H30.5519V31.658H22.8103V48.1781Z" fill="black"/>
<path d="M45.9317 51.4959C49.1113 51.4959 51.8761 50.3554 54.1226 48.1089C56.3691 45.8625 57.5096 43.0976 57.5096 39.918C57.5096 36.7384 56.3691 33.9735 54.1226 31.7271C51.8761 29.4806 49.1113 28.3401 45.9317 28.3401C42.7521 28.3401 39.9872 29.4806 37.7407 31.7271C35.4943 33.9735 34.3538 36.7384 34.3538 39.918C34.3538 43.0976 35.4943 45.8625 37.7407 48.1089C39.9872 50.3554 42.7521 51.4959 45.9317 51.4959ZM45.9317 32.7293C49.9407 32.7293 53.1549 35.978 53.1549 39.9526C53.1549 43.9271 49.9062 47.1758 45.9317 47.1758C41.9572 47.1758 38.7084 43.9271 38.7084 39.9526C38.7084 35.978 41.9226 32.7293 45.9317 32.7293Z" fill="black"/>
<path d="M73.3037 49.6642C75.9649 49.6642 78.2805 48.6965 80.1813 46.8302C82.0822 44.9294 83.0153 42.6138 83.0153 39.9526C83.0153 37.2914 82.0476 34.9758 80.1813 33.075C78.2805 31.1741 75.9649 30.241 73.3037 30.241C70.6425 30.241 68.327 31.2087 66.4261 33.075C64.5253 34.9758 63.5921 37.2914 63.5921 39.9526C63.5921 42.6138 64.5598 44.9294 66.4261 46.8302C68.2924 48.6965 70.608 49.6642 73.3037 49.6642ZM73.3037 33.8699C76.6561 33.8699 79.3864 36.6002 79.3864 39.9526C79.3864 43.305 76.6561 46.0353 73.3037 46.0353C69.9513 46.0353 67.221 43.305 67.221 39.9526C67.221 36.6002 69.9513 33.8699 73.3037 33.8699Z" fill="black"/>
<path d="M96.8052 33.939C95.3882 32.522 93.4182 31.7616 90.9299 31.6925L89.1327 31.658V48.1781H90.4806L90.9644 48.1435C93.4528 48.0744 95.4228 47.314 96.8398 45.8971C98.4987 44.2727 99.3282 42.2336 99.3282 39.918C99.259 37.6024 98.4296 35.5979 96.8052 33.939ZM95.4919 44.6183C94.4205 45.6897 92.8998 46.2772 90.8953 46.3463V33.5242C92.8653 33.5934 94.4205 34.1809 95.4919 35.2523C96.8052 36.5656 97.4273 38.0863 97.4273 39.9526C97.4273 41.7843 96.8052 43.305 95.4919 44.6183Z" fill="black"/>
<path d="M72.4398 76.1724H80.7689C82.2896 76.1724 83.6029 77.0019 84.3633 78.246C85.3655 75.1701 84.5706 73.7531 81.633 72.9582C79.8358 72.4744 78.0386 72.6126 76.2069 72.5781C61.8641 72.2324 51.4613 73.9259 37.1531 69.0874C39.0885 73.5803 42.0953 76.6562 45.6896 79.1792C52.4981 83.9832 60.2743 84.8817 68.2925 84.7435V80.3888C68.2579 78.0732 70.1242 76.1724 72.4398 76.1724Z" fill="#533915"/>
<path d="M80.7688 76.1726H72.4396C70.1586 76.1726 68.2578 78.0389 68.2578 80.3545V84.7092V94.3517C68.2578 96.529 69.8476 98.4644 71.9903 98.7063C73.4764 98.8446 74.8589 98.1879 75.7229 97.1165C75.9994 96.7363 76.6215 96.9437 76.6215 97.4276V107.381C76.6215 109.558 78.2113 111.494 80.3541 111.736C82.8425 111.978 84.9507 110.008 84.9507 107.588V80.3545C84.9507 79.5941 84.7087 78.8684 84.3631 78.2463C83.6374 77.0366 82.2895 76.1726 80.7688 76.1726Z" fill="#8EC7EC"/>
</svg>
