<svg width="24" height="23" viewBox="0 0 24 23" fill="none" xmlns="http://www.w3.org/2000/svg">
<path d="M15.7266 13.6234L11.9859 10.1922H12.5344C13.0969 10.1922 13.6312 9.96715 14.025 9.57345L14.8125 8.78595L15.0235 8.57496C15.4594 8.13903 15.15 7.3797 14.5172 7.3797H10.5937H8.65312C7.85934 7.3797 7.13311 7.82628 6.77494 8.53465L6.13594 9.7984C6.01383 10.0399 5.76619 10.1922 5.49558 10.1922H2.85938V20.0359H7.48589L9.48281 22.0328C9.89058 22.4405 10.425 22.6515 10.9734 22.6515C11.1843 22.6515 11.3953 22.6234 11.6062 22.5531L17.625 20.0359L15.7266 13.6234Z" fill="#EEAF5C"/>
<path d="M4.26562 20.0359H0.703125C0.314812 20.0359 0 19.7211 0 19.3328V10.8953C0 10.507 0.314812 10.1922 0.703125 10.1922H4.26562V20.0359Z" fill="#17ACE8"/>
<path d="M23.2969 20.0359H18.3281L16.9222 18.6297V11.5984L18.3281 10.1922H23.2969C23.6852 10.1922 24 10.507 24 10.8953V19.3328C24 19.7211 23.6852 20.0359 23.2969 20.0359Z" fill="#AA3DC8"/>
<path d="M10.0568 10.1922C9.52401 10.1922 9.03697 10.4932 8.79876 10.9697L6.65793 15.2514C7.11107 15.4489 7.5959 15.524 8.08902 15.4712C9.08793 15.3641 9.92938 14.6659 10.3787 13.7673L10.76 13.0047H12.824C13.1941 13.0047 13.5567 13.1551 13.8183 13.4167L16.9219 19.6313C17.0376 19.8783 17.3523 20.0359 17.625 20.0359H19.7344V10.1922H10.0568Z" fill="#FEDBAB"/>
<path d="M12.7032 1.05157V3.16095C12.7032 3.55465 12.3938 3.86407 12 3.86407C11.6062 3.86407 11.2969 3.55465 11.2969 3.16095V1.05157C11.2969 0.657778 11.6062 0.34845 12 0.34845C12.3938 0.34845 12.7032 0.657778 12.7032 1.05157Z" fill="#1DE8F1"/>
<path d="M7.28417 5.76744L5.87792 4.36119C5.60328 4.08655 5.60328 3.64157 5.87792 3.36693C6.15256 3.09229 6.59754 3.09229 6.87218 3.36693L8.27843 4.77318C8.55307 5.04782 8.55307 5.4928 8.27843 5.76744C8.00374 6.04208 7.55881 6.04208 7.28417 5.76744Z" fill="#1DE8F1"/>
<path d="M15.7216 5.76744C15.447 5.4928 15.447 5.04782 15.7216 4.77318L17.1279 3.36693C17.4025 3.09229 17.8475 3.09229 18.1221 3.36693C18.3968 3.64157 18.3968 4.08655 18.1221 4.36119L16.7159 5.76744C16.4412 6.04208 15.9963 6.04208 15.7216 5.76744Z" fill="#1BD9DE"/>
<path d="M12.7031 1.05157V3.16095C12.7031 3.55465 12.3938 3.86407 12 3.86407V0.34845C12.3938 0.34845 12.7031 0.657778 12.7031 1.05157Z" fill="#1BD9DE"/>
</svg>
