<svg width="24" height="25" viewBox="0 0 24 25" fill="none" xmlns="http://www.w3.org/2000/svg">
<path d="M14.0223 15.5126L8.67273 10.1628L9.66699 9.16858L15.0166 14.5182L14.0223 15.5126Z" fill="#D3D3D8"/>
<path d="M14.0223 15.5126L8.67273 10.1628L9.16986 9.66571L14.5195 15.0153L14.0223 15.5126Z" fill="#BABAC0"/>
<path d="M0.717774 1.21348C-1.13177 3.06302 0.916626 7.37862 3.20361 9.6656C5.59002 12.052 7.92699 11.903 9.66704 10.1627C10.1146 9.71541 10.7807 8.88997 10.9398 7.77633C11.0989 6.66268 10.741 5.27053 9.16991 3.69949C6.88274 1.41233 2.55725 -0.625997 0.717774 1.21348Z" fill="#E2E2E7"/>
<path d="M0.717728 1.21338L9.667 10.1626C7.92695 11.9029 5.58998 12.0519 3.20357 9.66551C0.91658 7.37852 -1.13182 3.06292 0.717728 1.21338Z" fill="#D3D3D8"/>
<path d="M9.96069 15.5251L8.96643 14.5306L14.1769 9.32019L15.1711 10.3146L9.96069 15.5251Z" fill="#E2E2E7"/>
<path d="M22.774 18.796L15.4542 13.0861L12.5905 15.9498L18.2995 23.2705C19.4728 24.7821 21.7201 24.9212 23.0723 23.569C24.4247 22.2166 24.2755 19.9792 22.774 18.796Z" fill="#FF9F00"/>
<path d="M8.17541 4.69363C9.19952 5.71774 9.6571 6.6924 9.52783 7.57735C9.4284 8.31325 8.95105 8.88985 8.67273 9.16835C8.05621 9.78486 7.39996 10.0831 6.73364 10.0533C5.94812 10.0234 5.07306 9.5461 4.198 8.67122C3.15393 7.62715 2.20929 6.14547 1.73194 4.81301C1.30439 3.59006 1.2945 2.62546 1.71216 2.2078C2.6568 1.26298 6.03748 2.5557 8.17541 4.69363Z" fill="#D3D3D8"/>
<path d="M1.71197 2.20782L8.67254 9.16838C8.05602 9.78471 7.39977 10.0832 6.73364 10.0533C5.94811 10.0235 5.07306 9.54612 4.19799 8.67107C3.15393 7.627 2.20929 6.1455 1.73193 4.81304C1.30438 3.5899 1.29449 2.6253 1.71197 2.20782Z" fill="#BABAC0"/>
<path d="M12.5905 15.9498L14.0223 14.5179L23.0723 23.569C21.7201 24.9212 19.4726 24.7821 18.2995 23.2705L12.5905 15.9498Z" fill="#FF7816"/>
<path d="M15.1713 10.3145L9.96088 15.5249L9.46375 15.0278L14.6742 9.81732L15.1713 10.3145Z" fill="#D3D3D8"/>
<path d="M1.22931 18.8074C-0.282036 19.9809 -0.42138 22.2082 0.931036 23.5606C2.27338 24.9229 4.52063 24.7836 5.69397 23.2723L11.4025 15.9724L8.52881 13.0988L1.22931 18.8074Z" fill="#FF9F00"/>
<path d="M0.93103 23.5606L9.96068 14.5304L11.4025 15.9723L5.69396 23.2722C4.52063 24.7835 2.27337 24.9227 0.93103 23.5606Z" fill="#FF7816"/>
<path d="M17.0209 8.46489L16.0266 7.47063L21.0082 2.48889L22.0026 3.48315L17.0209 8.46489Z" fill="#E2E2E7"/>
<path d="M20.0037 9.46831L23.9999 5.47204L23.0057 4.47778L18.105 9.37841L20.0037 9.46831Z" fill="#D3D3D8"/>
<path d="M20.0223 1.49426L19.0281 0.5L15.0318 4.49627L15.0463 6.47014L20.0223 1.49426Z" fill="#E2E2E7"/>
<path d="M17.0209 8.46489L16.5237 7.96776L21.5055 2.98602L22.0026 3.48315L17.0209 8.46489Z" fill="#D3D3D8"/>
<path d="M13.5404 5.97888C12.7151 6.80432 12.7151 8.13659 13.5404 8.96202L15.5291 10.9507C16.3545 11.7762 17.687 11.7762 18.5122 10.9507L20.0038 9.45915L15.032 4.4873L13.5404 5.97888Z" fill="#ECECF1"/>
<path d="M17.5178 6.97333L20.0038 9.45916L18.5123 10.9507C17.687 11.7762 16.3546 11.7762 15.5291 10.9507L14.5349 9.95647L17.5178 6.97333Z" fill="#E2E2E7"/>
</svg>
