<svg width="63" height="64" viewBox="0 0 63 64" fill="none" xmlns="http://www.w3.org/2000/svg">
<rect y="0.432617" width="63" height="63" rx="31.5" fill="#F7941D"/>
<path d="M27.494 34.8318L33.8017 38.2659H18.4801L24.8227 34.8318H27.494Z" fill="#D98360"/>
<path d="M33.8018 38.4533H18.4802C18.3943 38.4533 18.3193 38.3952 18.2983 38.312C18.2774 38.2288 18.3152 38.1418 18.3909 38.1013L24.7336 34.6672L24.912 34.9967L19.2201 38.0785H33.0656L27.4044 34.9964L27.5836 34.6672L33.8914 38.1013C33.9667 38.1422 34.0046 38.2291 33.9836 38.312C33.9626 38.3952 33.8876 38.4533 33.8018 38.4533Z" fill="black"/>
<path d="M30.4728 33.8774L27.4946 34.8318H24.8229L21.6561 33.8774H30.4728Z" fill="#D98360"/>
<path d="M30.6554 33.8358C30.6547 33.832 30.6539 33.8286 30.6528 33.8253C30.6517 33.8211 30.6502 33.817 30.6487 33.8129C30.6412 33.7923 30.6303 33.7732 30.6161 33.7563C30.6131 33.7529 30.6097 33.7492 30.6067 33.7462C30.603 33.742 30.5988 33.7383 30.5947 33.7349C30.591 33.7316 30.5868 33.7286 30.5827 33.7256C30.5823 33.7248 30.582 33.7248 30.5816 33.7244C30.5737 33.7188 30.5651 33.7139 30.5565 33.7094C30.5314 33.6971 30.5025 33.6899 30.4729 33.6899H21.6562C21.5688 33.6899 21.4942 33.7499 21.474 33.8335C21.4725 33.8388 21.4714 33.8444 21.4706 33.85C21.4571 33.9418 21.513 34.0299 21.6022 34.0566C21.6033 34.0573 21.6048 34.0573 21.606 34.0577L21.715 34.0907L22.0314 34.1859L22.3478 34.2815L24.3376 34.8812L24.5906 34.9577L24.769 35.0113C24.7866 35.0166 24.8046 35.0192 24.823 35.0192H27.4946C27.5137 35.0192 27.5332 35.0162 27.5516 35.0102L27.7218 34.9558L27.9681 34.8764H27.9684L30.5299 34.0558C30.5377 34.0532 30.5452 34.0502 30.5527 34.0468C30.5565 34.0449 30.5602 34.0431 30.564 34.0408C30.5681 34.0386 30.5718 34.0363 30.5756 34.0341C30.5782 34.0322 30.5808 34.0303 30.5831 34.0284C30.5868 34.0258 30.5902 34.0232 30.5936 34.0206C30.6022 34.0131 30.6101 34.0052 30.6172 33.9966C30.6195 33.9936 30.6221 33.9906 30.6243 33.9872C30.6356 33.9718 30.6446 33.9542 30.6506 33.9355C30.6517 33.9321 30.6528 33.9287 30.6536 33.9254C30.6543 33.9231 30.6551 33.9205 30.6554 33.9182C30.6554 33.9182 30.6554 33.9171 30.6554 33.9167C30.6566 33.9115 30.6573 33.9059 30.6581 33.9002C30.6611 33.8785 30.6596 33.8564 30.6547 33.8358H30.6554ZM24.8507 34.6443L22.9768 34.0798L22.9273 34.0648H29.2741L27.465 34.6443H24.8507Z" fill="black"/>
<path d="M30.4728 33.8774H21.6561L21.6422 33.8733L25.3061 32.2393H27.0031L30.4728 33.8774Z" fill="#BB6931"/>
<path d="M30.6553 33.8358C30.6545 33.832 30.6538 33.8287 30.6526 33.8253C30.6515 33.8212 30.65 33.817 30.6485 33.8129C30.641 33.7923 30.6301 33.7732 30.6159 33.7563C30.6129 33.7529 30.6095 33.7492 30.6065 33.7462C30.6028 33.7421 30.5986 33.7383 30.5945 33.7349C30.5908 33.7316 30.5867 33.7286 30.5825 33.7256C30.5822 33.7248 30.5818 33.7248 30.5814 33.7244C30.5735 33.7188 30.5649 33.7139 30.5563 33.7094C30.5552 33.7091 30.554 33.7083 30.5529 33.7076L27.0828 32.0698C27.0577 32.0578 27.0307 32.0518 27.003 32.0518H25.306C25.2794 32.0518 25.2535 32.0574 25.2295 32.0679L22.9586 33.0808L22.7326 33.1816L22.5066 33.2825L22.1115 33.4587L21.6912 33.6461L21.566 33.702C21.5106 33.7267 21.4716 33.7762 21.4592 33.8335C21.4555 33.85 21.454 33.8669 21.4551 33.8845C21.46 33.9629 21.5128 34.0296 21.5878 34.0524L21.6013 34.0566H21.602C21.602 34.0566 21.6046 34.0573 21.6058 34.0577C21.6219 34.0622 21.6391 34.0648 21.656 34.0648H30.4727C30.4926 34.0648 30.5117 34.0618 30.53 34.0558C30.5379 34.0532 30.5454 34.0502 30.5529 34.0468C30.5567 34.0449 30.5604 34.0431 30.5642 34.0408C30.5683 34.0386 30.572 34.0363 30.5758 34.0341C30.5784 34.0322 30.581 34.0303 30.5833 34.0285C30.587 34.0258 30.5904 34.0232 30.5938 34.0206C30.6024 34.0131 30.6103 34.0052 30.6174 33.9966C30.6196 33.9936 30.6223 33.9906 30.6245 33.9872C30.6358 33.9718 30.6448 33.9542 30.6508 33.9355C30.6519 33.9321 30.653 33.9287 30.6538 33.9254C30.6545 33.9231 30.6553 33.9205 30.6556 33.9182C30.6556 33.9182 30.6556 33.9171 30.6556 33.9167C30.6568 33.9115 30.6575 33.9059 30.6583 33.9003C30.6613 33.8785 30.6597 33.8564 30.6549 33.8358H30.6553ZM22.6115 33.6461L23.0317 33.4587L23.1798 33.3927L23.4055 33.2919L25.3457 32.4267H26.961L29.6368 33.69H22.5133L22.6115 33.6461Z" fill="black"/>
<path d="M26.7597 31.4108L26.2754 28.4636C26.2417 28.3426 26.07 28.3426 26.0363 28.4636L25.5493 31.4108H26.7597Z" fill="#BB6931"/>
<path d="M26.9444 31.3801L26.4601 28.4334C26.4589 28.4266 26.4574 28.4202 26.4559 28.4135C26.4372 28.3453 26.3975 28.2883 26.3446 28.2486C26.2921 28.2084 26.2265 28.1856 26.1557 28.1856C26.1204 28.1856 26.0867 28.1912 26.0552 28.2017H26.0545C25.9817 28.2261 25.9214 28.2763 25.8839 28.3438C25.8719 28.3651 25.8622 28.3884 25.8554 28.4131C25.8535 28.4195 25.852 28.4262 25.8509 28.4326L25.364 31.3798C25.355 31.4341 25.3703 31.4896 25.406 31.5316C25.4416 31.5736 25.494 31.5979 25.5488 31.5979H26.7596C26.8147 31.5979 26.8668 31.5736 26.9024 31.5316C26.938 31.4896 26.9534 31.4341 26.9444 31.3798V31.3801ZM25.7699 31.2234L26.1553 28.8907L26.5388 31.2234H25.7699Z" fill="black"/>
<path d="M30.2368 38.2659H21.8651V50.3514H30.2368V38.2659Z" fill="#FFE9DF"/>
<path d="M27.906 38.2659V38.4533H30.0495V39.8842C30.0495 39.8362 30.0675 39.7882 30.1042 39.7515L30.2369 39.6188V38.2659H27.906ZM25.6584 38.3019V38.4533H25.9369L25.6584 38.3019ZM25.4709 38.4132L25.2007 38.2659H23.2233V38.4533H25.5448L25.4709 38.4132ZM21.8652 39.5884V39.603L22.0136 39.7515C22.0211 39.759 22.0279 39.7672 22.0339 39.7758C22.0339 39.7762 22.0338 39.7766 22.0346 39.7769C22.0368 39.7803 22.0391 39.7837 22.041 39.7871C22.0428 39.7893 22.044 39.7919 22.0455 39.7942C22.0455 39.7942 22.0455 39.7942 22.0458 39.7942C22.0481 39.7991 22.0503 39.8039 22.0526 39.8092V39.588H21.8652V39.5884ZM27.906 38.2659V38.4533H30.0495V39.8842C30.0495 39.8362 30.0675 39.7882 30.1042 39.7515L30.2369 39.6188V38.2659H27.906ZM25.6584 38.3019V38.4533H25.9369L25.6584 38.3019ZM25.4709 38.4132L25.2007 38.2659H23.2233V38.4533H25.5448L25.4709 38.4132ZM21.8652 39.5884V39.603L22.0136 39.7515C22.0211 39.759 22.0279 39.7672 22.0339 39.7758C22.0339 39.7762 22.0338 39.7766 22.0346 39.7769C22.0368 39.7803 22.0391 39.7837 22.041 39.7871C22.0428 39.7893 22.044 39.7919 22.0455 39.7942C22.0455 39.7942 22.0455 39.7942 22.0458 39.7942C22.0481 39.7991 22.0503 39.8039 22.0526 39.8092V39.588H21.8652V39.5884ZM27.906 38.2659V38.4533H30.0495V39.8842C30.0495 39.8362 30.0675 39.7882 30.1042 39.7515L30.2369 39.6188V38.2659H27.906ZM25.6584 38.4533H25.9369L25.6584 38.3019V38.4533ZM25.2007 38.2659H23.2233V38.4533H25.5448L25.4709 38.4132L25.2007 38.2659ZM21.8652 39.603L22.0136 39.7515C22.0211 39.759 22.0279 39.7672 22.0339 39.7758C22.0339 39.7762 22.0338 39.7766 22.0346 39.7769C22.0368 39.7803 22.0391 39.7837 22.041 39.7871C22.0428 39.7893 22.044 39.7919 22.0455 39.7942C22.0455 39.7942 22.0455 39.7942 22.0458 39.7942C22.0481 39.7991 22.0503 39.8039 22.0526 39.8092V39.588H21.8652V39.6026V39.603ZM30.2369 38.0785H21.8652C21.7617 38.0785 21.6777 38.1624 21.6777 38.2659V50.3514C21.6777 50.4548 21.7617 50.5388 21.8652 50.5388H30.2369C30.3404 50.5388 30.4243 50.4548 30.4243 50.3514V38.2659C30.4243 38.1624 30.3404 38.0785 30.2369 38.0785ZM30.0495 50.1639H22.0526V38.4533H30.0495V50.1639ZM21.8652 39.5884V39.603L22.0136 39.7515C22.0211 39.759 22.0279 39.7672 22.0339 39.7758C22.0339 39.7762 22.0338 39.7766 22.0346 39.7769C22.0368 39.7803 22.0391 39.7837 22.041 39.7871C22.0428 39.7893 22.044 39.7919 22.0455 39.7942C22.0455 39.7942 22.0455 39.7942 22.0458 39.7942C22.0481 39.7991 22.0503 39.8039 22.0526 39.8092V39.588H21.8652V39.5884ZM25.4709 38.4132L25.2007 38.2659H23.2233V38.4533H25.5448L25.4709 38.4132ZM25.6584 38.3019V38.4533H25.9369L25.6584 38.3019ZM27.906 38.2659V38.4533H30.0495V39.8842C30.0495 39.8362 30.0675 39.7882 30.1042 39.7515L30.2369 39.6188V38.2659H27.906ZM21.8652 39.5884V39.603L22.0136 39.7515C22.0211 39.759 22.0279 39.7672 22.0339 39.7758C22.0339 39.7762 22.0338 39.7766 22.0346 39.7769C22.0368 39.7803 22.0391 39.7837 22.041 39.7871C22.0428 39.7893 22.044 39.7919 22.0455 39.7942C22.0455 39.7942 22.0455 39.7942 22.0458 39.7942C22.0481 39.7991 22.0503 39.8039 22.0526 39.8092V39.588H21.8652V39.5884ZM25.4709 38.4132L25.2007 38.2659H23.2233V38.4533H25.5448L25.4709 38.4132ZM25.6584 38.3019V38.4533H25.9369L25.6584 38.3019ZM27.906 38.2659V38.4533H30.0495V39.8842C30.0495 39.8362 30.0675 39.7882 30.1042 39.7515L30.2369 39.6188V38.2659H27.906Z" fill="black"/>
<path d="M30.7142 50.3513H21.324V50.7652H30.7142V50.3513Z" fill="#B56D45"/>
<path d="M30.714 50.1639H21.3238C21.2203 50.1639 21.1364 50.2479 21.1364 50.3514V50.7652C21.1364 50.8687 21.2203 50.9526 21.3238 50.9526H30.714C30.8178 50.9526 30.9014 50.8687 30.9014 50.7652V50.3514C30.9014 50.2479 30.8178 50.1639 30.714 50.1639ZM30.5266 50.5778H21.5112V50.5388H30.5266V50.5778Z" fill="black"/>
<path d="M31.2713 50.7652H20.767V51.179H31.2713V50.7652Z" fill="#B56D45"/>
<path d="M31.2711 50.5778H20.7668C20.6633 50.5778 20.5793 50.6618 20.5793 50.7652V51.1791C20.5793 51.2825 20.6633 51.3665 20.7668 51.3665H31.2711C31.3749 51.3665 31.4585 51.2825 31.4585 51.1791V50.7652C31.4585 50.6618 31.3749 50.5778 31.2711 50.5778ZM31.0837 50.9916H20.9542V50.9526H31.0837V50.9916Z" fill="black"/>
<path d="M26.624 38.2659H25.6583V39.6772H26.624V38.2659Z" fill="black"/>
<path d="M26.624 38.0785H25.6584C25.6527 38.0785 25.6475 38.0788 25.6422 38.0796C25.5673 38.0856 25.5051 38.1366 25.4814 38.2052C25.4747 38.2243 25.4713 38.2445 25.4713 38.2659V39.6772C25.4713 39.6802 25.4713 39.6832 25.4717 39.6862C25.4732 39.7192 25.4829 39.7496 25.4994 39.7758C25.5324 39.8291 25.5916 39.8647 25.6587 39.8647H26.6244C26.6915 39.8647 26.7507 39.8291 26.7837 39.7758C26.8017 39.7473 26.8118 39.7136 26.8118 39.6772V38.2659C26.8118 38.1624 26.7278 38.0785 26.6244 38.0785H26.624ZM26.4366 39.4898H25.8458V38.4533H26.4366V39.4898Z" fill="black"/>
<path d="M29.0593 38.2659H28.0936V39.6772H29.0593V38.2659Z" fill="black"/>
<path d="M29.0591 38.0785H28.0934C27.99 38.0785 27.906 38.1624 27.906 38.2659V39.6772C27.906 39.7136 27.9161 39.7473 27.9341 39.7758C27.9671 39.8291 28.0263 39.8647 28.0934 39.8647H29.0591C29.1625 39.8647 29.2465 39.7807 29.2465 39.6772V38.2659C29.2465 38.1624 29.1625 38.0785 29.0591 38.0785ZM28.8716 39.4898H28.2809V38.4533H28.8716V39.4898Z" fill="black"/>
<path d="M24.1889 38.2659H23.2233V39.6772H24.1889V38.2659Z" fill="black"/>
<path d="M24.189 38.0785H23.2233C23.1199 38.0785 23.0359 38.1624 23.0359 38.2659V39.6772C23.0359 39.7136 23.046 39.7473 23.064 39.7758C23.097 39.8291 23.1562 39.8647 23.2233 39.8647H24.189C24.2561 39.8647 24.3153 39.8291 24.3483 39.7758C24.3663 39.7473 24.3764 39.7136 24.3764 39.6772V38.2659C24.3764 38.1624 24.2924 38.0785 24.189 38.0785ZM24.0015 39.4898H23.4107V38.4533H24.0015V39.4898Z" fill="black"/>
<path d="M21.8809 40.0716C21.8329 40.0716 21.7849 40.0532 21.7482 40.0168L20.1299 38.3986C20.0568 38.3255 20.0568 38.2066 20.1299 38.1335C20.203 38.0604 20.3218 38.0604 20.3949 38.1335L22.0132 39.7518C22.0863 39.8249 22.0863 39.9437 22.0132 40.0168C21.9765 40.0536 21.9285 40.0716 21.8805 40.0716H21.8809Z" fill="black"/>
<path d="M30.2368 40.0716C30.1889 40.0716 30.1409 40.0532 30.1041 40.0168C30.031 39.9437 30.031 39.8249 30.1041 39.7518L31.7224 38.1335C31.7955 38.0604 31.9143 38.0604 31.9874 38.1335C32.0605 38.2066 32.0605 38.3255 31.9874 38.3986L30.3692 40.0168C30.3324 40.0536 30.2844 40.0716 30.2365 40.0716H30.2368Z" fill="black"/>
<path d="M11.8059 45.5569L10.2427 43.4663L9.66283 42.5254L9.60735 42.4358C7.70719 39.0865 6.62759 35.246 6.62759 31.1634C6.62759 29.7645 6.7543 28.394 6.99758 27.0621C7.00695 27.0093 7.01707 26.956 7.02719 26.9032C7.33795 25.2658 7.82452 23.6876 8.46853 22.1871C8.46853 22.1859 8.46928 22.1848 8.46965 22.1841C8.46965 22.1833 8.4704 22.1826 8.4704 22.1822V22.1814C12.1485 13.6073 20.9356 7.57129 31.191 7.57129C41.4464 7.57129 50.8419 14.0335 54.2763 23.0837C54.4233 23.4725 54.5605 23.8653 54.6872 24.2634C55.3814 26.4458 55.8774 28.7662 55.7544 31.1634C55.1738 42.4861 47.9806 46.3449 42.7359 50.4751L42.4795 51.0629L44.599 55.3036L44.9885 53.3649L49.3571 49.8427C54.92 44.9137 59.4089 39.0059 59.4089 31.1634C59.4089 16.265 46.8335 4.18744 31.3215 4.18744C15.8094 4.18744 3.23474 16.265 3.23474 31.1634C3.23474 35.8211 4.46391 40.2028 6.62722 44.026C6.62722 44.026 8.02769 46.9338 11.9337 49.7242L11.8059 45.5569Z" fill="white"/>
<path d="M44.6758 55.8757L42.2733 51.0685L42.5837 50.3574L42.6208 50.3281C43.2637 49.8217 43.9223 49.3295 44.6199 48.8084C49.5148 45.1506 55.0631 41.0046 55.568 31.1541C55.6738 29.095 55.3371 26.9234 54.5094 24.3204C54.3887 23.9414 54.2557 23.5579 54.1132 23.1801L54.102 23.1508C50.6083 13.9446 41.4014 7.75909 31.1917 7.75909C20.982 7.75909 12.4435 13.4337 8.65776 22.2208V22.2594L8.62852 22.289C7.99239 23.7765 7.51669 25.3347 7.21418 26.9208L7.2108 26.9391C7.20068 26.9913 7.19094 27.0434 7.18157 27.0955C6.93791 28.43 6.81458 29.7986 6.81458 31.1634C6.81458 35.068 7.83607 38.9328 9.7681 42.3402L10.3975 43.3606L11.9558 45.4445L11.6555 45.669L10.0871 43.5717L9.44384 42.5284C8.47521 40.8209 7.72811 39.0025 7.22355 37.1233C6.70324 35.1872 6.43972 33.1821 6.43972 31.1634C6.43972 29.7761 6.5653 28.3846 6.8127 27.0284C6.8217 26.9778 6.83145 26.9268 6.84119 26.8758L6.84269 26.8679C7.1497 25.2504 7.6344 23.6614 8.28253 22.1447V22.1042L8.31252 22.0746C9.23017 19.945 10.4661 17.9553 11.9869 16.1604C13.5036 14.3705 15.2782 12.8039 17.2612 11.5043C21.3749 8.8087 26.1914 7.38386 31.1906 7.38386C36.1897 7.38386 41.3271 8.90354 45.5304 11.7791C47.555 13.1642 49.3476 14.8282 50.8587 16.7254C52.3769 18.6315 53.5805 20.7356 54.4367 22.9799L54.4513 23.0181C54.6005 23.4117 54.7396 23.8117 54.8652 24.2068C55.7071 26.8544 56.049 29.068 55.941 31.1732C55.7116 35.6464 54.436 39.3597 52.0417 42.5254C49.9474 45.2945 47.3526 47.2337 44.8429 49.1087C44.1611 49.6181 43.5159 50.1002 42.8884 50.5935L42.686 51.0576L44.5224 54.732L44.8178 53.2618L49.2359 49.6999C56.0479 43.6631 59.2214 37.7726 59.2214 31.1638C59.2214 16.3925 46.7056 4.37523 31.3214 4.37523C15.9372 4.37523 3.4221 16.3921 3.4221 31.1634C3.4221 35.6235 4.58679 40.0394 6.79021 43.9338L6.79584 43.9446C6.8097 43.9731 8.2263 46.8453 12.0424 49.5717L11.8246 49.8768C9.78871 48.4223 8.44034 46.9353 7.66776 45.9441C6.85656 44.9032 6.49857 44.1902 6.46109 44.1133C5.36087 42.1678 4.51219 40.0963 3.93866 37.9563C3.34713 35.7495 3.04724 33.4639 3.04724 31.1634C3.04724 27.4954 3.79509 23.9373 5.27053 20.5875C6.695 17.3529 8.73423 14.4477 11.3316 11.9534C13.9283 9.45945 16.9519 7.50156 20.3189 6.1337C23.804 4.71786 27.5061 4 31.3221 4C35.1382 4 38.8403 4.71786 42.3254 6.1337C45.692 7.50156 48.716 9.45945 51.3126 11.9534C53.91 14.4477 55.9493 17.3529 57.3737 20.5875C58.8488 23.9373 59.597 27.4954 59.597 31.1634C59.597 33.0673 59.3294 34.9469 58.8012 36.7503C58.3116 38.4218 57.5814 40.0843 56.6311 41.6914C54.9945 44.4589 52.6561 47.1711 49.4822 49.9832L49.4755 49.9889L45.1597 53.4683L44.6761 55.8757H44.6758Z" fill="black"/>
<path d="M55.5954 28.4266C55.6078 28.5038 55.6141 28.5458 55.6141 28.5458C55.6141 28.5458 53.9861 28.244 50.6158 27.907C47.2458 27.57 47.0583 28.7685 45.4858 27.9445C45.3628 27.8804 45.2376 27.8324 45.1106 27.7991C43.6115 27.4017 41.9051 28.9934 41.9051 28.9934L40.3926 27.5918C40.3926 27.5918 36.5357 30.7162 34.8507 29.2333C33.166 27.7503 33.7651 30.9404 29.8703 28.4693C25.9759 25.9979 26.1258 28.9563 25.0796 28.2444C24.033 27.5329 21.2579 26.9339 20.5093 28.0195C20.1153 28.5912 19.2951 28.6646 18.4513 28.5188C17.949 28.4322 17.4377 28.2676 17.0025 28.0836C16.7798 27.9903 16.577 27.8909 16.4057 27.7949C15.3359 27.1959 16.2029 28.1694 15.1544 28.0195C14.1063 27.8699 15.4539 29.405 14.63 29.2333C13.8064 29.0608 14.2555 28.5814 12.1049 27.5918C9.95362 26.6021 6.83442 28.1533 7.0046 27.0726C7.0046 27.0692 7.00573 27.0658 7.0061 27.0625C7.01435 27.0145 7.02372 26.9616 7.03572 26.9035L55.595 28.427L55.5954 28.4266Z" fill="#41C1FF"/>
<path d="M36.0158 29.8188C35.5337 29.8188 35.0887 29.6913 34.7274 29.3738C34.1295 28.8475 33.921 28.9817 33.5421 29.2257C32.9498 29.6073 32.1382 30.1299 29.7702 28.6271C27.3366 27.0827 26.6068 27.7203 26.0737 28.1855C25.7836 28.4385 25.4548 28.7257 24.9746 28.3988C24.4607 28.0494 23.5097 27.7387 22.6625 27.6438C21.6796 27.5336 20.9513 27.7091 20.6641 28.1255C20.275 28.6901 19.4987 28.8899 18.4199 28.7032C17.8171 28.5993 17.2769 28.4025 16.9302 28.256C16.7105 28.1638 16.4976 28.0607 16.3146 27.9583C16.1051 27.841 16.0009 27.8028 15.9525 27.7908C15.9503 27.7975 15.948 27.8046 15.9462 27.811C15.8659 28.0648 15.7111 28.2886 15.1282 28.205C14.9708 28.1825 14.9303 28.2121 14.9299 28.2125C14.8917 28.2653 14.976 28.5427 15.0079 28.647C15.0885 28.9116 15.165 29.1616 15.0135 29.3273C14.9235 29.4259 14.7815 29.4559 14.5918 29.4162C14.1847 29.3311 14.0314 29.1676 13.8372 28.9607C13.5962 28.7039 13.2322 28.3163 12.0266 27.7615C10.9527 27.2675 9.57805 27.4414 8.57455 27.5685C7.74236 27.6738 7.19207 27.7435 6.93492 27.4785C6.83033 27.3706 6.79134 27.2251 6.81908 27.0456C6.81908 27.0437 6.81946 27.0414 6.81983 27.0396L6.82096 27.0309C6.8307 26.9721 6.84083 26.9181 6.85207 26.8649L7.03463 26.9031H7.22281V26.9222L7.21868 26.9413C7.20894 26.9882 7.19994 27.0369 7.19094 27.089C7.19094 27.0913 7.19019 27.0935 7.18982 27.0958L7.18907 27.101C7.18007 27.1591 7.18457 27.1981 7.20331 27.2172C7.33039 27.3481 7.96578 27.2675 8.52657 27.1966C9.57505 27.0639 11.0111 26.8821 12.1822 27.4208C13.4545 28.0063 13.8484 28.4262 14.1094 28.7039C14.287 28.8932 14.3759 28.9881 14.6671 29.0492C14.6911 29.054 14.7095 29.0567 14.7237 29.0578C14.7174 28.9832 14.675 28.8453 14.648 28.7564C14.5644 28.4824 14.4696 28.1716 14.6439 27.9685C14.8051 27.7803 15.087 27.8204 15.1796 27.8339C15.5286 27.8837 15.5518 27.8099 15.587 27.6982C15.6137 27.6146 15.6534 27.4883 15.7917 27.4332C15.9413 27.3739 16.1321 27.4275 16.4961 27.6315C16.667 27.727 16.8668 27.8238 17.0741 27.9107C17.5393 28.1075 18.0394 28.2578 18.4821 28.3339C19.1268 28.4457 19.9748 28.4629 20.3541 27.913C21.1822 26.7119 24.0596 27.3248 25.1842 28.0892C25.4144 28.2459 25.5216 28.169 25.826 27.9032C26.1075 27.6573 26.4928 27.3211 27.1485 27.2813C27.8854 27.2364 28.808 27.5734 29.9697 28.3107C32.1352 29.6849 32.8021 29.2557 33.3378 28.9105C33.7434 28.6492 34.1632 28.3789 34.9737 29.0923C35.7654 29.7888 37.1478 29.3183 38.1678 28.801C39.3119 28.2211 40.264 27.4534 40.2738 27.4459L40.4001 27.3436L41.9078 28.7407C42.3486 28.3681 43.8068 27.2596 45.1578 27.6176C45.2999 27.6551 45.4394 27.7091 45.5717 27.778C46.3083 28.1638 46.6831 28.0768 47.3631 27.9186C48.0296 27.7634 48.9424 27.5512 50.6334 27.7203C53.973 28.0543 55.6307 28.3583 55.6471 28.3613L55.6363 28.4198L55.7791 28.3969C55.7915 28.4749 55.7982 28.5176 55.7982 28.5176L55.8376 28.7782L55.5785 28.7302C55.5624 28.7272 53.9172 28.4258 50.5959 28.0937C48.9672 27.931 48.0889 28.1349 47.4478 28.2841C46.7566 28.4449 46.2573 28.5611 45.3974 28.1105C45.2902 28.0543 45.1769 28.0104 45.0615 27.9801C43.6786 27.6131 42.048 29.1148 42.0315 29.1301L41.9041 29.249L40.3814 27.8376C39.833 28.2608 37.6993 29.8184 36.0139 29.8188H36.0158Z" fill="#41C1FF"/>
<path d="M54.4585 23.0102L54.4574 23.008C53.6004 20.7528 52.393 18.6394 50.8685 16.725C49.3578 14.8278 47.5648 13.1638 45.5402 11.7791C42.1886 9.48569 38.356 8.05485 34.3147 7.57053C34.2356 7.56116 34.1565 7.55179 34.077 7.54317C34.0099 7.53567 33.9428 7.52855 33.8757 7.5218C33.8499 7.51917 33.824 7.51618 33.7981 7.51355C33.743 7.5083 33.6883 7.50268 33.6332 7.49781C33.6231 7.49668 33.6129 7.49556 33.6028 7.49481C33.6006 7.49481 33.5983 7.49406 33.5961 7.49406C33.5177 7.48694 33.4394 7.48019 33.361 7.47344C33.2913 7.46782 33.2212 7.4622 33.1515 7.45695C33.1335 7.45545 33.1155 7.45432 33.0975 7.4532C33.0855 7.45245 33.0735 7.45132 33.0615 7.45058C33.0015 7.44608 32.9416 7.44195 32.8816 7.4382C32.7215 7.42733 32.5611 7.41871 32.4003 7.41159C32.359 7.40972 32.3178 7.40784 32.2766 7.40634C32.2428 7.40484 32.2095 7.40334 32.1757 7.40222C32.1652 7.40184 32.1547 7.40147 32.1442 7.40109C32.1386 7.40109 32.133 7.40109 32.1274 7.40034C32.0576 7.39809 31.9876 7.39585 31.9178 7.39397C31.8372 7.39172 31.7566 7.38985 31.6757 7.38835C31.5175 7.38535 31.3589 7.38385 31.2003 7.38385C31.0418 7.38385 30.8881 7.38535 30.7321 7.38797C30.6583 7.38947 30.5841 7.39097 30.5102 7.39285C30.5035 7.39285 30.4964 7.39285 30.4892 7.39285C30.3412 7.39697 30.1931 7.40222 30.045 7.40859C29.9712 7.41196 29.8973 7.41571 29.8235 7.41946C29.753 7.42321 29.6829 7.42733 29.6124 7.43146C25.185 7.70098 20.9472 9.09508 17.2709 11.5039C15.2879 12.8032 13.5134 14.3697 11.9967 16.1597C10.4755 17.9549 9.23921 19.945 8.32155 22.0753C8.31668 22.0858 8.31218 22.0967 8.30768 22.1072L8.29194 22.1439L8.05653 22.6935L8.05315 22.701L8.00854 22.8048L8.01417 22.8003L8.09476 22.7347L8.31256 22.5585H8.31293L8.36616 22.5151H8.36654L8.5982 22.3265C8.60532 22.3205 8.61282 22.3149 8.61994 22.3089C8.62631 22.3036 8.63269 22.2988 8.63906 22.2935C8.65555 22.2796 8.67205 22.2665 8.68892 22.253C8.77926 22.1799 8.87147 22.1065 8.96406 22.0334C9.02704 21.9831 9.09076 21.9333 9.15412 21.8838C9.24783 21.8103 9.34155 21.7376 9.43376 21.6667C9.47425 21.6353 9.51436 21.6045 9.55447 21.5742C9.60582 21.5348 9.65718 21.4962 9.70741 21.4583C9.87759 21.3297 10.0407 21.2094 10.1899 21.1026C10.224 21.0778 10.2573 21.0542 10.2896 21.0314C10.3064 21.0194 10.3229 21.0077 10.3394 20.9961C10.3994 20.9541 10.4568 20.9148 10.5104 20.8784C10.5396 20.8585 10.5681 20.8394 10.5954 20.8218C10.6678 20.7738 10.7326 20.7337 10.7874 20.7019C10.8009 20.694 10.8136 20.6869 10.8256 20.6801C10.8327 20.6764 10.8395 20.6726 10.8459 20.6692C10.8912 20.6453 10.9265 20.6295 10.9508 20.6239C11.1825 20.6213 11.485 20.5122 11.729 20.4241C11.8332 20.3866 11.9412 20.3476 11.9839 20.3405C12.0263 20.3334 12.1552 20.3116 13.7341 19.1702C15.231 18.0872 15.352 17.9388 15.3802 17.8769C15.4101 17.8406 15.5563 17.7307 15.764 17.724C15.7846 17.7232 15.8049 17.724 15.8255 17.7251C15.8334 17.7255 15.8412 17.7262 15.8487 17.727C15.8585 17.7281 15.8682 17.7292 15.878 17.7307C15.8997 17.7341 15.9215 17.7386 15.9428 17.7442C15.9642 17.7498 15.9856 17.757 16.0069 17.7648C16.0212 17.7701 16.035 17.7761 16.0493 17.7825C16.0587 17.7869 16.068 17.7911 16.0774 17.7959C16.0995 17.8072 16.122 17.8199 16.1437 17.8342C16.1584 17.8436 16.173 17.8537 16.1876 17.8642C16.2652 17.9204 16.3405 17.9935 16.4136 18.0831C16.9137 18.6967 18.3933 19.8412 19.7117 19.8408H19.7169C20.3126 19.8397 20.8014 19.6069 21.1702 19.1499C22.4624 17.5485 26.7324 14.9155 27.1894 14.8383C27.3198 14.8563 27.5537 14.8289 28.9774 13.3561C29.4872 12.8283 29.9779 12.2923 30.2092 12.037C31.3537 13.2849 32.5641 14.6576 32.6683 14.8724C32.7178 15.0531 32.9416 15.0962 33.3086 15.109C33.5518 15.1172 33.8843 15.1101 34.2978 15.0872C34.8432 15.0572 35.3902 15.0077 35.6064 14.9871L37.9639 17.6992L38.0775 17.6681C38.8538 17.4548 39.7865 17.2449 39.9841 17.2655C40.1029 17.354 40.6344 17.8207 41.1491 18.2728C43.4418 20.2858 43.6824 20.4552 43.829 20.4552C44.0539 20.4552 45.3179 20.228 45.9035 19.1496C46.0864 18.8118 46.3469 18.6165 46.6775 18.5685C47.0348 18.5164 47.3452 18.657 47.4318 18.7432C47.5079 18.8197 47.6762 18.9468 47.9314 19.1394C48.5743 19.6253 49.6509 20.4383 50.0453 21.0692C50.4494 21.7158 52.0478 22.3812 53.5138 22.9544C53.5412 22.9653 53.569 22.9758 53.5963 22.9866C53.6657 23.014 53.7343 23.0406 53.7984 23.0665C53.8272 23.0777 53.8553 23.089 53.8823 23.0998C53.9063 23.1092 53.9292 23.1186 53.9506 23.1276C53.9678 23.1347 53.9843 23.1414 54 23.1478C54.0117 23.1527 54.0229 23.1572 54.0334 23.1617C54.0443 23.1662 54.0544 23.1707 54.0638 23.1748C54.0735 23.1789 54.0825 23.183 54.0911 23.1868C54.1016 23.1913 54.1114 23.1958 54.12 23.1999H54.1204C54.1204 23.1999 54.1237 23.2018 54.1256 23.2025C54.1286 23.204 54.132 23.2055 54.135 23.207H54.1354C54.147 23.213 54.156 23.2179 54.1624 23.222C54.156 23.2172 54.1312 23.1973 54.1144 23.1591C54.114 23.1583 54.114 23.1579 54.1136 23.1572L54.2793 23.0905L54.2876 23.0871L54.4532 23.0204L54.4611 23.017C54.4604 23.0147 54.4592 23.0121 54.4585 23.0099V23.0102ZM53.9314 22.7163C53.9142 22.7092 53.8966 22.7021 53.8778 22.695C53.8666 22.6905 53.8553 22.686 53.8433 22.6815C53.7852 22.6586 53.7211 22.6335 53.6503 22.6058C52.7042 22.2358 50.7354 21.4662 50.3632 20.8709C49.9321 20.1812 48.821 19.3422 48.1571 18.8407C47.9412 18.6776 47.7545 18.5367 47.6968 18.4786C47.6529 18.4347 47.5944 18.392 47.5247 18.3534C47.4977 18.3387 47.4692 18.3241 47.4389 18.3106C47.4089 18.2968 47.377 18.284 47.3444 18.2724C47.3159 18.2619 47.2871 18.2525 47.2571 18.2439C47.2271 18.2353 47.196 18.2274 47.1645 18.2203L47.133 18.2135C47.1116 18.2094 47.0899 18.2053 47.0681 18.2019C46.9276 18.1794 46.7761 18.1757 46.6236 18.1978C46.3117 18.2432 45.8761 18.4141 45.574 18.9711C45.1103 19.8254 44.0951 20.0567 43.8612 20.0788C43.5966 19.9233 42.2257 18.7192 41.3965 17.9912C40.546 17.2445 40.2408 16.9788 40.1587 16.9323C40.08 16.8869 39.9724 16.8251 38.9307 17.0665C38.5911 17.1452 38.2604 17.2314 38.0925 17.2764L35.7624 14.5954L35.6657 14.6051C34.5681 14.7161 33.2774 14.7821 33.003 14.7045C32.9352 14.5752 32.6852 14.2363 31.6468 13.0697C31.0005 12.3436 30.3524 11.6389 30.346 11.6318L30.2062 11.4799L30.0686 11.6336C28.9115 12.9261 27.5012 14.3619 27.2085 14.4631C27.1279 14.4559 26.9449 14.4829 26.1724 14.9245C25.6476 15.224 25.0024 15.6293 24.3565 16.0652C23.5791 16.5896 21.6838 17.917 20.8786 18.9149C20.584 19.2796 20.193 19.4652 19.7162 19.4663H19.7117C18.5099 19.4663 17.0933 18.3241 16.7042 17.8469C16.2948 17.3446 15.8596 17.3262 15.6362 17.3604C15.355 17.4027 15.1271 17.5598 15.0507 17.6981C14.8194 17.9414 12.2047 19.8329 11.9041 19.9746C11.8295 19.9896 11.7279 20.0264 11.6016 20.0717C11.3939 20.1467 11.1094 20.2494 10.9422 20.2494C10.847 20.2494 10.6873 20.2494 9.49561 21.1494C9.42251 21.2045 9.34979 21.26 9.27857 21.3144C9.25945 21.3294 9.24071 21.344 9.22196 21.3582C9.15524 21.4096 9.09001 21.4598 9.02741 21.5089C9.01054 21.5224 8.99368 21.5352 8.97718 21.5479C8.97343 21.5509 8.96968 21.5535 8.96594 21.5569C12.6309 13.7302 20.3733 8.51817 29.2151 7.83481C29.2683 7.83068 29.3219 7.82656 29.3755 7.82281C29.4299 7.81906 29.4846 7.81531 29.539 7.81194C29.5918 7.80857 29.6447 7.80519 29.6975 7.80219C29.7511 7.79882 29.8051 7.79582 29.8587 7.7932H29.8591C29.8947 7.79132 29.9303 7.78945 29.9663 7.78795C30.0023 7.78607 30.0383 7.78457 30.0739 7.78308C30.3727 7.77033 30.6729 7.76246 30.9743 7.75983C31.0497 7.75908 31.125 7.75871 31.2003 7.75871C31.3574 7.75871 31.5141 7.76021 31.6708 7.76321C31.8271 7.76583 31.9834 7.77033 32.1394 7.77633C32.1412 7.77633 32.1431 7.77633 32.145 7.77633C32.2245 7.77933 32.3036 7.7827 32.3827 7.78645C32.4617 7.7902 32.5408 7.79395 32.6196 7.79882C32.6987 7.80332 32.7774 7.80819 32.8561 7.81344C32.9337 7.81831 33.0113 7.82394 33.0885 7.82956C33.093 7.82993 33.0975 7.83031 33.102 7.83068C33.2561 7.8423 33.4098 7.85542 33.5631 7.87004C33.6414 7.87716 33.7198 7.88504 33.7981 7.89328C33.8761 7.90116 33.9541 7.9094 34.032 7.91877C34.11 7.92777 34.1884 7.93677 34.2659 7.94651C34.3338 7.95439 34.4016 7.96301 34.4691 7.97238C34.4777 7.9735 34.4864 7.97463 34.495 7.97575C34.4961 7.97575 34.4976 7.97575 34.4987 7.97575C34.5014 7.97575 34.5036 7.97575 34.5059 7.97688H34.5066C34.5096 7.97688 34.513 7.97763 34.516 7.978C34.5842 7.98662 34.6532 7.996 34.7214 8.00612C34.7236 8.00612 34.7263 8.00687 34.7285 8.00724C34.7311 8.00724 34.7338 8.00762 34.7364 8.00837C34.7386 8.00837 34.7405 8.00912 34.7428 8.00912C34.8162 8.01961 34.8901 8.03011 34.9636 8.04173C35.0389 8.05297 35.1143 8.06497 35.1896 8.07697C35.2758 8.09083 35.3617 8.10508 35.4475 8.1197C35.5172 8.13132 35.5866 8.14369 35.6559 8.15644C35.7328 8.16993 35.8092 8.18417 35.8853 8.19879C43.9894 9.73159 50.9011 15.1716 53.9423 22.7197C53.9389 22.7182 53.9352 22.7167 53.9314 22.7156V22.7163Z" fill="black"/>
<path d="M7.03625 26.9028C7.28891 25.6721 8.42398 22.3437 8.47759 22.187C8.47759 22.1859 8.47834 22.1848 8.47871 22.184C8.47871 22.1833 8.47946 22.1825 8.47946 22.1822V22.1814C8.51245 22.1544 10.6349 20.4364 10.9415 20.4364C11.2482 20.4364 11.7842 20.1834 11.9525 20.1557C12.1212 20.1276 15.1542 17.9369 15.2104 17.7967C15.267 17.6561 15.9407 17.2067 16.5588 17.965C17.1766 18.7233 19.7324 20.6333 21.0245 19.0322C22.3163 17.4316 26.8378 14.595 27.2029 14.6509C27.5681 14.7071 30.2082 11.7585 30.2082 11.7585C30.2082 11.7585 32.7917 14.5665 32.8479 14.8192C32.9042 15.0722 35.6845 14.7914 35.6845 14.7914L38.0278 17.4874C38.0278 17.4874 39.8691 16.9817 40.0655 17.0942C40.2619 17.2063 43.6319 20.2678 43.8287 20.2678C44.0255 20.2678 45.2048 20.0428 45.7382 19.06C46.2717 18.0775 47.3108 18.3582 47.5638 18.6109C47.8165 18.8635 49.642 20.0713 50.2036 20.9699C50.7651 21.8684 54.2329 22.9611 54.285 23.0833C54.4301 23.4222 54.5677 23.8278 54.6959 24.263C55.1727 25.885 55.5131 27.9186 55.5944 28.4266L7.03625 26.9028Z" fill="#41C1FF"/>
<path d="M55.7347 28.1188C55.6121 27.3912 55.3392 25.8843 54.9715 24.5464C54.9715 24.5457 54.9711 24.5453 54.9711 24.5445C54.9404 24.4317 54.9085 24.3204 54.8763 24.2105C54.7368 23.7352 54.5959 23.3315 54.4583 23.0103L54.4572 23.008L54.4437 22.9765L54.4362 22.9694C54.4343 22.9668 54.4324 22.9645 54.4306 22.9619C54.3983 22.9199 54.3369 22.8832 54.1719 22.8134C54.1108 22.7876 54.0358 22.7572 53.9425 22.7205C53.9391 22.719 53.9354 22.7175 53.9316 22.7164C53.9144 22.7092 53.8968 22.7021 53.878 22.695C53.8668 22.6905 53.8555 22.686 53.8435 22.6815C53.7854 22.6586 53.7213 22.6335 53.6505 22.6058C52.7043 22.2358 50.7356 21.4662 50.3633 20.8709C49.9323 20.1812 48.8212 19.3423 48.1573 18.8407C47.9414 18.6776 47.7547 18.5367 47.697 18.4786C47.6531 18.4347 47.5946 18.392 47.5249 18.3534C47.4979 18.3384 47.4694 18.3241 47.4391 18.3106C47.4091 18.2968 47.3772 18.284 47.3446 18.2724C47.3161 18.2619 47.2872 18.2525 47.2573 18.2439C47.2273 18.2353 47.1962 18.2274 47.1647 18.2203L47.1332 18.2135C47.1118 18.2091 47.0901 18.2053 47.0683 18.2019C46.9278 18.1794 46.7763 18.1757 46.6237 18.1978C46.3119 18.2432 45.8763 18.4141 45.5741 18.9711C45.1104 19.8254 44.0953 20.0567 43.8614 20.0788C43.5968 19.9233 42.2259 18.7192 41.3967 17.9913C40.5461 17.2445 40.241 16.9788 40.1589 16.9323C40.0802 16.8869 39.9726 16.8251 38.9309 17.0665C38.5913 17.1452 38.2606 17.2314 38.0927 17.2764L35.7626 14.5954L35.6659 14.6052C34.5683 14.7161 33.2776 14.7821 33.0032 14.7045C32.9354 14.5752 32.6853 14.2363 31.647 13.0697C31.0007 12.3436 30.3526 11.6389 30.3462 11.6318L30.2064 11.4799L30.0688 11.6336C28.9116 12.9262 27.5014 14.3619 27.2087 14.4631C27.1281 14.456 26.9451 14.4829 26.1725 14.9245C25.6477 15.224 25.0026 15.6293 24.3567 16.0652C23.5793 16.5897 21.684 17.917 20.8788 18.9149C20.5841 19.2796 20.1932 19.4652 19.7163 19.4663H19.7118C18.51 19.4663 17.0934 18.3241 16.7043 17.8469C16.295 17.3446 15.8598 17.3263 15.6364 17.3604C15.3552 17.4027 15.1273 17.5598 15.0508 17.6981C14.8195 17.9414 12.2049 19.8329 11.9043 19.9746C11.8297 19.9896 11.7281 20.0264 11.6018 20.0717C11.3941 20.1467 11.1096 20.2494 10.9424 20.2494C10.8472 20.2494 10.6875 20.2494 9.49579 21.1494C9.4227 21.2046 9.34997 21.26 9.27875 21.3144C9.25963 21.3294 9.24089 21.344 9.22215 21.3582C9.15542 21.4096 9.0902 21.4598 9.0276 21.5089C9.01073 21.5224 8.99386 21.5352 8.97736 21.5479C8.97362 21.5509 8.96987 21.5535 8.96612 21.5569C8.96125 21.5607 8.95637 21.564 8.9515 21.5682H8.95112C8.82967 21.6634 8.71984 21.7503 8.62874 21.8223C8.46681 21.9509 8.36447 22.0341 8.36222 22.036L8.32173 22.0757L8.2925 22.1042V22.1507C8.26701 22.2245 8.19503 22.4367 8.09494 22.7351C7.74633 23.7798 7.05921 25.8835 6.85866 26.8372C6.85641 26.8466 6.85454 26.8559 6.85266 26.8649H6.85379L6.87628 26.8698H6.87778L6.89465 26.8736L7.02735 26.9009L7.03634 26.9028H7.03822L7.21103 26.9388L7.21965 26.9407H7.22002C7.22115 26.9347 7.22265 26.9283 7.22377 26.9223C7.2249 26.9182 7.22565 26.914 7.2264 26.9099V26.9088L7.2279 26.902C7.48055 25.7145 8.4923 22.7261 8.63924 22.2939C8.65573 22.28 8.67223 22.2669 8.6891 22.2534C8.77944 22.1803 8.87165 22.1068 8.96424 22.0337C9.02722 21.9835 9.09095 21.9337 9.1543 21.8842C9.24801 21.8107 9.34173 21.738 9.43394 21.6671C9.47443 21.6356 9.51454 21.6049 9.55465 21.5745C9.606 21.5352 9.65736 21.4966 9.70759 21.4587C9.87778 21.3301 10.0408 21.2098 10.19 21.103C10.2241 21.0782 10.2575 21.0546 10.2897 21.0317C10.3066 21.0197 10.3231 21.0081 10.3396 20.9965C10.3996 20.9545 10.4569 20.9152 10.5105 20.8788C10.5398 20.8589 10.5683 20.8398 10.5956 20.8222C10.668 20.7742 10.7328 20.7341 10.7876 20.7022C10.8011 20.6944 10.8138 20.6872 10.8258 20.6805C10.8329 20.6768 10.8397 20.673 10.846 20.6696C10.8914 20.6456 10.9266 20.6299 10.951 20.6243C11.1827 20.6216 11.4852 20.5126 11.7292 20.4245C11.8334 20.387 11.9414 20.348 11.9841 20.3409C12.0265 20.3338 12.1554 20.312 13.7343 19.1706C15.2311 18.0876 15.3522 17.9392 15.3803 17.8773C15.4103 17.8409 15.5565 17.7311 15.7642 17.7244C15.7848 17.7236 15.8051 17.7244 15.8257 17.7255C15.8335 17.7259 15.8414 17.7266 15.8489 17.7274C15.8587 17.7285 15.8684 17.7296 15.8781 17.7311C15.8999 17.7345 15.9216 17.739 15.943 17.7446C15.9644 17.7502 15.9857 17.7573 16.0071 17.7652C16.0213 17.7705 16.0352 17.7765 16.0495 17.7828C16.0588 17.7873 16.0682 17.7915 16.0776 17.7963C16.0997 17.808 16.1222 17.8207 16.1439 17.8346C16.1585 17.8439 16.1732 17.8541 16.1878 17.8646C16.2654 17.9208 16.3407 17.9939 16.4138 18.0835C16.9139 18.6971 18.3935 19.8416 19.7118 19.8412H19.7171C20.3127 19.8401 20.8016 19.6073 21.1704 19.1503C22.4626 17.5489 26.7326 14.9159 27.1895 14.8387C27.32 14.8567 27.5539 14.8293 28.9776 13.3565C29.4874 12.8287 29.9781 12.2926 30.2094 12.0374C31.3538 13.2853 32.5643 14.658 32.6685 14.8728C32.718 15.0535 32.9417 15.0966 33.3087 15.1093C33.552 15.1176 33.8845 15.1105 34.298 15.0876C34.8434 15.0576 35.3903 15.0081 35.6066 14.9875L37.9641 17.6996L38.0777 17.6685C38.854 17.4552 39.7867 17.2453 39.9842 17.2659C40.1031 17.3544 40.6346 17.8211 41.1493 18.2732C43.4419 20.2861 43.6826 20.4556 43.8292 20.4556C44.0541 20.4556 45.3181 20.2284 45.9036 19.1499C46.0866 18.8122 46.3471 18.6169 46.6777 18.5689C47.035 18.5168 47.3453 18.6574 47.4319 18.7436C47.508 18.8201 47.6763 18.9471 47.9316 19.1398C48.5745 19.6256 49.6511 20.4387 50.0455 21.0696C50.4496 21.7162 52.048 22.3816 53.514 22.9548C53.5414 22.9656 53.5691 22.9761 53.5965 22.987C53.6659 23.0144 53.7345 23.041 53.7985 23.0669C53.8274 23.0781 53.8555 23.0893 53.8825 23.1002C53.9065 23.1096 53.9294 23.119 53.9507 23.128C53.968 23.1351 53.9845 23.1418 54.0002 23.1482C54.0118 23.1531 54.0231 23.1576 54.0336 23.1621C54.0445 23.1666 54.0546 23.1711 54.064 23.1752C54.0737 23.1793 54.0827 23.1834 54.0913 23.1872C54.1018 23.1917 54.1116 23.1962 54.1202 23.2003H54.1206C54.1206 23.2003 54.1239 23.2022 54.1258 23.2029C54.1288 23.2044 54.1322 23.2059 54.1352 23.2074H54.1355C54.2604 23.5073 54.389 23.8795 54.5172 24.3163C54.5486 24.4242 54.5801 24.5337 54.6101 24.6446C54.6109 24.6469 54.6112 24.6491 54.612 24.6514C54.9992 26.0616 55.2807 27.6653 55.3876 28.3168C55.394 28.3546 55.3996 28.3895 55.4048 28.4206C55.4067 28.433 55.4086 28.445 55.4104 28.4562L55.4217 28.4543L55.4596 28.4483L55.5956 28.4266L55.6376 28.4198L55.644 28.4187L55.7808 28.397C55.7692 28.3254 55.7538 28.2313 55.7351 28.1188H55.7347Z" fill="black"/>
<path d="M21.963 22.4775C21.9079 22.4775 21.8535 22.4535 21.8164 22.4071C21.7519 22.3261 21.7651 22.2084 21.846 22.1435C21.8562 22.1357 22.8567 21.3297 23.046 20.6452C23.1149 20.3959 23.2544 20.1418 23.4602 19.8895C23.8257 19.4416 24.3366 19.0697 24.7883 18.7649C24.924 18.6735 25.1066 18.5663 25.318 18.4422C25.6741 18.2334 26.0774 17.9965 26.3773 17.7629C26.7151 17.4998 26.7754 17.348 26.7574 17.2996C26.6783 17.0837 26.7327 16.7486 28.3881 15.492C29.2248 14.857 30.0952 14.2764 30.1042 14.2707C30.1904 14.2134 30.3066 14.2366 30.364 14.3228C30.4213 14.4091 30.3981 14.5253 30.3119 14.5826C30.304 14.5879 29.5018 15.1228 28.7033 15.7237C27.2699 16.8025 27.1289 17.129 27.1154 17.1864C27.2886 17.7206 26.3428 18.275 25.508 18.7653C25.3019 18.886 25.1242 18.9906 24.9982 19.0757C24.5694 19.3651 24.0854 19.7163 23.7511 20.1268C23.5783 20.3386 23.4628 20.547 23.4077 20.7457C23.1858 21.5475 22.1253 22.4011 22.0803 22.4371C22.0458 22.4644 22.0046 22.4779 21.9634 22.4779L21.963 22.4775Z" fill="white"/>
<path d="M21.9626 20.4555C21.8858 20.4555 21.8134 20.4079 21.786 20.3315C21.7512 20.234 21.8018 20.1268 21.8993 20.0919C21.9345 20.0796 22.7689 19.7838 23.6131 19.8209C23.7166 19.8254 23.7968 19.9127 23.7923 20.0162C23.7878 20.1197 23.7008 20.1991 23.597 20.1954C22.8252 20.162 22.0338 20.442 22.026 20.4447C22.005 20.4522 21.9836 20.4555 21.9626 20.4555Z" fill="white"/>
<path d="M37.3412 26.2411C37.2573 26.2411 37.1808 26.1841 37.1594 26.099C37.0672 25.7305 36.3134 25.1671 35.8148 24.7941C35.4257 24.5033 35.2008 24.3319 35.1071 24.1914C35.0505 24.1067 34.9264 24.0264 34.7952 23.9417C34.5107 23.7577 34.1204 23.5058 34.1204 22.9641C34.1204 22.4224 32.8804 21.2251 32.2476 20.8574C31.8818 20.6445 31.553 20.1823 31.3903 19.6507C31.1988 19.0251 31.2595 18.3934 31.5616 17.8712C32.1224 16.903 31.1467 14.8656 31.1369 14.8454C31.0919 14.7524 31.1306 14.64 31.2239 14.595C31.3172 14.55 31.4289 14.5886 31.4743 14.6816C31.5185 14.7723 32.5464 16.9187 31.8863 18.059C31.3165 19.0434 31.9268 20.237 32.4362 20.5331C33.0337 20.8806 34.4953 22.1626 34.4953 22.9641C34.4953 23.279 34.6853 23.4244 34.9984 23.6268C35.1558 23.7288 35.3189 23.8341 35.4186 23.9837C35.4808 24.077 35.7646 24.2892 36.0386 24.4943C36.6444 24.9471 37.3982 25.5101 37.5227 26.0083C37.5478 26.1088 37.4867 26.2104 37.3862 26.2355C37.3708 26.2392 37.3555 26.2411 37.3405 26.2411H37.3412Z" fill="white"/>
<path d="M27.4553 21.4103C27.4156 21.4103 27.3758 21.398 27.3417 21.3721C26.9642 21.0846 26.8094 20.8634 26.8237 20.6321C26.8439 20.3015 27.2034 20.0923 27.7473 19.7752C28.1638 19.5327 28.6818 19.2305 29.2475 18.7743C29.4807 18.5861 29.6973 18.413 29.8975 18.2529C30.949 17.4121 31.6129 16.8809 31.6762 16.5848C31.6751 16.5705 31.674 16.5567 31.6732 16.5435C31.6702 16.5034 31.668 16.4701 31.6665 16.4464C31.6552 16.247 31.7917 16.2178 31.834 16.2137C31.8415 16.2129 32.0155 16.1979 32.0428 16.3985C32.0451 16.4157 32.0484 16.4419 32.0526 16.4791C32.0571 16.5188 32.0574 16.5589 32.0533 16.5986C32.0661 16.7595 32.0856 16.9945 32.1047 17.2112C32.1137 17.3142 32.0372 17.4053 31.9341 17.4143C31.8314 17.423 31.7399 17.3469 31.7309 17.2438L31.7257 17.1827C31.4217 17.514 30.9006 17.9309 30.1318 18.546C29.932 18.7057 29.7161 18.8785 29.4829 19.0663C28.8951 19.5405 28.3407 19.8633 27.9362 20.0995C27.5606 20.3184 27.206 20.5249 27.1981 20.6557C27.1959 20.6947 27.227 20.8139 27.5692 21.0745C27.6517 21.1371 27.6675 21.2548 27.6049 21.3372C27.5681 21.3856 27.5123 21.4111 27.4557 21.4111L27.4553 21.4103Z" fill="white"/>
<path d="M36.5552 22.8708C36.4892 22.8708 36.4255 22.836 36.391 22.7745C36.3299 22.6647 36.2801 22.5507 36.2321 22.4405C36.0297 21.9768 35.9195 21.7774 35.4235 21.9097C34.5194 22.1507 32.7703 21.211 32.6964 21.1708C32.6053 21.1214 32.5716 21.0078 32.6211 20.9167C32.6705 20.8256 32.7841 20.7919 32.8752 20.8413C33.343 21.0947 34.6959 21.7159 35.3272 21.5476C36.1552 21.3268 36.3884 21.861 36.5758 22.2905C36.6204 22.3929 36.6665 22.4982 36.719 22.5927C36.7693 22.683 36.7366 22.7974 36.6463 22.8476C36.6174 22.8637 36.5863 22.8712 36.5556 22.8712L36.5552 22.8708Z" fill="white"/>
<path d="M15.8175 19.6309C15.7755 19.5361 15.6649 19.493 15.5701 19.5349C15.3984 19.611 15.04 20.155 14.7701 20.5977L14.6974 20.7172C14.1801 21.5671 14.1085 21.6593 13.6392 21.6574C13.5878 21.6574 13.535 21.6563 13.4821 21.6555C12.9704 21.6491 12.4872 21.6428 12.3227 21.9175C12.2691 22.0068 12.2308 22.1597 12.3527 22.3809C12.3868 22.4427 12.4509 22.4776 12.5172 22.4776C12.5476 22.4776 12.5787 22.4701 12.6076 22.4543C12.6979 22.4045 12.7309 22.2905 12.681 22.1998C12.6514 22.1458 12.6469 22.1173 12.6466 22.1076C12.7298 22.0206 13.2336 22.0274 13.4772 22.0304C13.5312 22.0311 13.5845 22.0319 13.6369 22.0323H13.6523C14.336 22.0323 14.5096 21.747 15.0175 20.9122L15.0899 20.793C15.5498 20.0391 15.7204 19.8854 15.7429 19.8667C15.8224 19.8187 15.8557 19.7182 15.8175 19.6309Z" fill="white"/>
<path d="M10.1208 26.243C10.0965 26.243 10.0713 26.2381 10.0474 26.228C9.95214 26.1879 9.90791 26.0762 9.94802 25.981C9.97838 25.9083 10.2888 25.2631 11.7481 24.9711C12.4573 24.8294 13.0256 24.2904 13.5268 23.8147C13.9868 23.3783 14.3837 23.0016 14.8178 23.0016C15.5345 23.0016 15.6361 22.9345 16.0264 22.202C16.2033 21.8703 16.423 21.6694 16.679 21.6053C16.9763 21.5307 17.2004 21.6724 17.2248 21.6889C17.311 21.7466 17.3339 21.8628 17.2765 21.949C17.2195 22.0345 17.1045 22.0577 17.0186 22.0019C17.0107 21.997 16.9028 21.9333 16.7648 21.97C16.6201 22.009 16.4792 22.1499 16.3574 22.3782C15.9049 23.2269 15.6747 23.3761 14.8178 23.3761C14.5329 23.3761 14.1697 23.721 13.7847 24.0861C13.2734 24.5715 12.6369 25.1754 11.8216 25.3385C10.5568 25.5915 10.2944 26.1242 10.2921 26.1294C10.2621 26.2007 10.1935 26.243 10.1212 26.243H10.1208Z" fill="white"/>
<path d="M14.4807 27.0834C14.4684 27.0834 14.4564 27.0823 14.4436 27.0797C14.4163 27.0741 13.7734 26.941 13.5072 26.4923C13.3809 26.2794 13.3588 26.0372 13.4413 25.7726C13.6875 24.9846 13.5125 23.9545 13.5106 23.9444C13.493 23.8424 13.5612 23.7453 13.6632 23.7277C13.7648 23.7101 13.8622 23.7779 13.8798 23.8799C13.8877 23.9256 14.0725 25.0086 13.7989 25.8846C13.7486 26.0451 13.7584 26.1812 13.8289 26.3004C13.978 26.5534 14.3765 26.6835 14.5175 26.7123C14.6187 26.7329 14.6843 26.8319 14.664 26.9331C14.646 27.022 14.5681 27.0834 14.4807 27.0834Z" fill="white"/>
<path d="M21.373 24.8369C21.3516 24.8369 21.3295 24.8332 21.3082 24.8253C20.3343 24.4665 19.3244 22.4592 19.282 22.3741C19.2359 22.2815 19.2734 22.169 19.366 22.1229C19.4586 22.0768 19.5711 22.1143 19.6175 22.2069C19.8889 22.7508 20.7451 24.2188 21.4379 24.4737C21.535 24.5093 21.5848 24.6172 21.5488 24.7143C21.5207 24.7901 21.4491 24.8369 21.373 24.8369Z" fill="white"/>
<path d="M38.0275 19.894C37.0899 19.894 36.5891 18.54 36.3736 17.733C36.176 16.9922 34.969 16.5113 34.2673 16.2909C34.1687 16.2598 34.1136 16.1548 34.1447 16.0558C34.1758 15.9569 34.2808 15.9021 34.3797 15.9333C35.3266 16.2309 36.5044 16.7681 36.7357 17.6366C36.8534 18.0782 37.2946 19.5195 38.0271 19.5195C38.1306 19.5195 38.2145 19.6035 38.2145 19.707C38.2145 19.8104 38.1306 19.8944 38.0271 19.8944L38.0275 19.894Z" fill="white"/>
<path d="M50.179 23.2078C50.1617 23.2078 50.1441 23.2056 50.1265 23.2003C50.1066 23.1947 50.0354 23.1872 49.978 23.1816C49.5904 23.1418 48.7837 23.0594 48.5641 22.3453C48.4014 21.8167 47.4395 21.3189 47.083 21.1716C46.9874 21.1322 46.9417 21.0224 46.981 20.9268C47.0204 20.8312 47.1299 20.7855 47.2258 20.8248C47.2851 20.8492 48.6747 21.4295 48.9224 22.235C49.069 22.7115 49.6853 22.7748 50.0163 22.8086C50.1107 22.8183 50.179 22.8251 50.2311 22.8404C50.3304 22.8693 50.3878 22.9731 50.3589 23.0729C50.3353 23.155 50.2603 23.2082 50.179 23.2082V23.2078Z" fill="white"/>
<path d="M46.9681 24.1817C46.9632 24.1817 46.4988 24.1419 46.0306 24.0478C45.2077 23.8821 45.1478 23.709 45.1474 23.7078C45.1579 23.5654 45.177 23.2996 43.1708 21.5198C42.2104 20.6681 41.2331 19.8678 41.2234 19.8599C41.1431 19.7943 41.0251 19.8063 40.9598 19.8861C40.8942 19.9664 40.9059 20.0844 40.9861 20.15C40.9955 20.1575 41.9262 20.92 42.8604 21.7458C44.5761 23.2629 44.7549 23.6257 44.7729 23.6921C44.7542 24.1138 45.4087 24.3005 45.9046 24.4043C46.4125 24.5108 46.9156 24.5535 46.937 24.5554C46.9422 24.5558 46.9475 24.5558 46.9527 24.5558C47.0491 24.5558 47.1311 24.4819 47.1394 24.3841C47.1476 24.281 47.0712 24.1903 46.9681 24.1817Z" fill="white"/>
<path d="M43.6337 25.3423C43.5842 25.3423 43.5347 25.3228 43.498 25.2842C43.2123 24.9839 42.3636 24.1855 41.8726 24.097C41.1971 23.9752 38.2451 22.1391 37.9107 21.9303C37.823 21.8756 37.7963 21.7597 37.8511 21.672C37.9058 21.5843 38.0216 21.5577 38.1094 21.6124C39.3981 22.4176 41.4812 23.6453 41.9389 23.7281C42.6384 23.8545 43.6554 24.9063 43.769 25.0259C43.8402 25.1009 43.8372 25.2197 43.7622 25.2909C43.7259 25.3254 43.6794 25.3427 43.6329 25.3427L43.6337 25.3423Z" fill="white"/>
<path d="M32.7859 26.709C32.7791 26.709 32.7724 26.709 32.7656 26.7078C32.6888 26.6996 30.8823 26.4889 30.4025 24.8902C29.9846 23.4976 28.5383 22.8618 28.5237 22.8554C28.4289 22.8146 28.3846 22.7043 28.4255 22.6095C28.4664 22.5143 28.5762 22.4701 28.6714 22.5109C28.7374 22.539 30.2927 23.2187 30.762 24.7826C31.171 26.1452 32.7896 26.3334 32.8057 26.3352C32.9088 26.3461 32.9831 26.4387 32.9722 26.5414C32.9621 26.6377 32.8807 26.709 32.7859 26.709Z" fill="white"/>
<path d="M44.3013 57.0025C44.181 57.0658 44.0599 57.1284 43.9384 57.1899C43.8144 57.2529 43.6895 57.3151 43.5639 57.3766C43.4342 57.44 43.3038 57.5026 43.173 57.564H31.2843V57.0025H44.3013Z" fill="#9D999A"/>
<path d="M31.0966 56.8151V57.7515H42.7667C42.9028 57.69 43.0381 57.6278 43.1727 57.564C43.3035 57.5026 43.4339 57.44 43.5636 57.3766H31.4714V57.1899H43.9381C44.0596 57.1284 44.1806 57.0658 44.301 57.0025C44.4183 56.941 44.5349 56.8784 44.6515 56.8151H31.0966Z" fill="black"/>
<path d="M41.0055 50.7135V43.7516H48.3494V50.7337L41.0055 50.7135Z" fill="white"/>
<path d="M48.5368 50.7337H48.162V43.939H41.193V50.7135H40.8181V43.5641H48.5368V50.7337Z" fill="#C56E2B"/>
<path d="M48.8211 50.7337H48.4462V43.7096H40.9205V50.7131H40.5457V43.3347H48.8211V50.7337Z" fill="#C56E2B"/>
<path d="M51.3713 51.7586C51.324 51.8066 51.2764 51.8542 51.2288 51.9014C49.5569 53.5718 47.6793 55.0363 45.6374 56.2535C45.5317 56.3169 45.4252 56.3791 45.3188 56.4409H33.4594C33.4594 56.4409 34.7099 52.1042 40.7327 50.7131C40.7612 50.7063 40.7897 50.6996 40.8182 50.6932C40.8523 50.6857 40.8864 50.6782 40.9206 50.6711C40.9487 50.6647 40.9772 50.6584 41.0056 50.6527C41.0675 50.6392 41.1301 50.6265 41.1931 50.6141C41.626 50.5287 42.0819 50.4578 42.5624 50.4046C42.6625 50.3933 42.7634 50.3828 42.8657 50.3735C42.9789 50.3626 43.0932 50.3528 43.2091 50.3442C43.6124 50.3139 44.0323 50.2955 44.4686 50.2902C45.8308 50.2738 47.0368 50.3952 48.1021 50.6141C48.1223 50.6179 48.1422 50.622 48.1621 50.6265C48.2213 50.6389 48.2802 50.6516 48.3383 50.6644C48.342 50.6655 48.3458 50.6662 48.3495 50.667C48.3818 50.6741 48.4144 50.6816 48.4462 50.6891C48.4766 50.6962 48.507 50.7033 48.5369 50.7105C48.5478 50.7131 48.5591 50.7157 48.5699 50.7183C48.5913 50.7232 48.6127 50.7285 48.6337 50.7337C49.6866 50.9931 50.593 51.3496 51.3713 51.7586Z" fill="white"/>
<path d="M50.2094 51.0291C49.7645 50.8589 49.3015 50.712 48.821 50.5883C48.7985 50.5823 48.7756 50.5767 48.7527 50.571C48.6811 50.5527 48.6092 50.5354 48.5368 50.5186C48.5323 50.5171 48.5275 50.5163 48.523 50.5156C48.4975 50.5092 48.4716 50.5032 48.4461 50.4976C48.4139 50.4901 48.3816 50.4826 48.3494 50.4758C48.3295 50.4713 48.3097 50.4668 48.2898 50.4627C48.2474 50.4533 48.2047 50.4443 48.162 50.4357C47.016 50.1988 45.7801 50.0871 44.4662 50.1028C44.1307 50.107 43.8009 50.1186 43.4766 50.1384H43.4762C43.3626 50.1452 43.2498 50.1531 43.1377 50.1621C43.0219 50.1711 42.9072 50.1812 42.7932 50.1924C42.2418 50.246 41.708 50.3233 41.193 50.4241C41.1304 50.4361 41.0678 50.4485 41.0055 50.462C40.977 50.4676 40.9489 50.4736 40.9204 50.4796C40.8863 50.4867 40.8522 50.4942 40.8181 50.5021C40.7266 50.5219 40.6359 50.5433 40.5456 50.565C39.9229 50.7154 39.3303 50.902 38.7691 51.1247C37.4492 51.6484 36.3018 52.3707 35.359 53.2723C33.7471 54.8129 33.2977 56.3251 33.2793 56.3889L33.2103 56.6284H44.9895C45.0997 56.5665 45.2092 56.5039 45.3187 56.441C45.4251 56.3791 45.5316 56.3169 45.6373 56.2535H33.7261C33.9173 55.7745 34.4556 54.6488 35.6345 53.5272C36.7565 52.4603 38.6567 51.2252 41.699 50.7154H41.7005C41.9509 50.6734 42.2092 50.6363 42.4754 50.6048C42.5462 50.5962 42.6178 50.5879 42.6901 50.5808C42.7715 50.5718 42.854 50.5635 42.9368 50.556C43.4226 50.5111 43.9336 50.4841 44.4707 50.4777C45.6707 50.4631 46.745 50.5583 47.7043 50.7319H47.7058C47.7744 50.7442 47.8407 50.757 47.9082 50.7701H47.9086C47.9888 50.7858 48.0679 50.802 48.1466 50.8188C48.2253 50.8357 48.3029 50.8529 48.3801 50.8713H48.3805C49.4931 51.1281 50.4359 51.4917 51.2287 51.9014C51.2763 51.8542 51.3239 51.8066 51.3711 51.7586C51.4169 51.7121 51.4622 51.6656 51.508 51.6191C51.0945 51.3987 50.6612 51.2019 50.2094 51.0291Z" fill="black"/>
<path d="M43.6161 30.5471C43.6161 30.5471 43.8054 29.3304 44.7395 29.3304C45.6737 29.3304 45.863 30.5471 45.863 30.5471H43.6161Z" fill="#C47334"/>
<path d="M46.0526 30.5471L46.0474 30.5164C46.0395 30.4681 46.0282 30.4156 46.014 30.3597C45.8959 29.899 45.5548 29.2333 44.88 29.1512C44.8347 29.1455 44.7878 29.1425 44.7391 29.1425C44.6904 29.1425 44.6435 29.1455 44.5981 29.1508C43.9163 29.2321 43.5778 29.8983 43.4634 30.3597C43.4492 30.4163 43.4383 30.4696 43.4308 30.5183L43.4263 30.5471L43.3971 30.7346H46.0837L46.0526 30.5471ZM43.8533 30.3597C43.938 30.0797 44.1427 29.6197 44.5854 29.532H44.5858C44.6341 29.5227 44.6851 29.5174 44.7391 29.5174C44.7931 29.5174 44.8444 29.523 44.8928 29.5332C45.322 29.6227 45.5319 30.0808 45.6211 30.3597H43.8533Z" fill="black"/>
<path d="M45.7604 33.0467H43.7384L40.7332 43.5222H48.6337L45.7604 33.0467Z" fill="#9C7259"/>
<path d="M48.821 43.4978L48.7764 43.3348L47.5146 38.7349C47.5131 38.7281 47.5112 38.7214 47.509 38.7146L46.9703 36.75C46.9703 36.75 46.9703 36.7485 46.9699 36.7481L46.9482 36.669L46.9478 36.6683L46.3769 34.587C46.3769 34.587 46.3765 34.5855 46.3762 34.5848L46.3709 34.5653L45.9556 33.0512L45.9031 32.8593H43.5969L43.5415 33.0524L43.1066 34.569L42.496 36.6979C42.496 36.6979 42.4956 36.6994 42.4956 36.6997C42.4949 36.702 42.4941 36.7046 42.4934 36.7069L41.9299 38.6715C41.9299 38.6715 41.9292 38.6723 41.9299 38.6726L41.9003 38.7727V38.7746L40.5924 43.3348L40.546 43.4967L40.4849 43.7096H48.8795L48.8214 43.4978H48.821ZM41.5911 41.2119L41.6983 40.8371L42.237 38.9602L42.3445 38.5853L42.815 36.9457L42.9222 36.5708L43.4268 34.8123L43.5343 34.4375L43.8796 33.2342H45.6174L45.9473 34.4375L46.0504 34.8123L46.5325 36.5708L46.6352 36.9457L47.085 38.5853L47.1877 38.9602L47.7028 40.8371L47.8055 41.2119L48.3877 43.3348H40.9819L41.5911 41.2119Z" fill="black"/>
<path d="M45.7603 33.0467H43.7383L42.8582 30.5472H46.5561L45.7603 33.0467Z" fill="#C47334"/>
<path d="M42.5934 30.3597L43.5414 33.0524L43.6055 33.2342H45.8974L45.9555 33.0512L46.8124 30.3597H42.5934ZM43.8709 32.8593L43.1231 30.7346H46.2996L45.6234 32.8593H43.8709Z" fill="black"/>
<path d="M44.5518 30.5472L44.6627 27.2271C44.6642 27.1847 44.6995 27.1517 44.7418 27.1532C44.7823 27.1547 44.8145 27.1873 44.8157 27.2271L44.9266 30.5472C44.9255 30.8028 44.5533 30.8043 44.5518 30.5472Z" fill="black"/>
<path d="M44.2952 46.4689C44.3061 46.1709 44.708 46.1218 44.8024 46.3977C44.922 46.7381 44.5786 46.9896 44.2757 46.8337C44.0576 46.7283 43.9395 46.4517 44.0471 46.2279C44.1996 45.8613 44.7237 45.7185 44.9831 46.0528C45.1218 46.2155 45.2103 46.4483 45.148 46.6654C45.0817 46.8655 44.9276 47.0046 44.8009 47.1527C44.6975 47.2771 44.5543 47.4042 44.5254 47.5545C44.5239 47.5804 44.5243 47.6164 44.5235 47.6419C44.516 48.1697 44.5014 48.6975 44.462 49.2245C44.4609 49.2418 44.4459 49.2545 44.4287 49.2534C44.4129 49.2523 44.4009 49.2399 44.3998 49.2245C44.3605 48.6975 44.3462 48.1715 44.3383 47.6449C44.3383 47.6149 44.3365 47.5755 44.3376 47.5463C44.3432 47.4529 44.3803 47.3877 44.4152 47.3277C44.4883 47.2108 44.5734 47.1171 44.6551 47.0226C44.7649 46.8903 44.8995 46.7643 44.9531 46.6091C45.0007 46.421 44.8766 46.1942 44.7132 46.0986C44.5824 46.0435 44.4204 46.0903 44.3226 46.19C44.1764 46.3325 44.1772 46.5443 44.3717 46.6466C44.4759 46.7066 44.6349 46.6586 44.6247 46.5233C44.6221 46.4656 44.6094 46.4213 44.5636 46.4101C44.5509 46.4082 44.5321 46.409 44.5213 46.4131C44.4977 46.4187 44.486 46.4521 44.4827 46.4731C44.4759 46.5968 44.2949 46.5911 44.2952 46.4674V46.4689Z" fill="black"/>
<path d="M46.3219 46.0967C46.465 46.0967 46.5809 45.9807 46.5809 45.8377C46.5809 45.6946 46.465 45.5786 46.3219 45.5786C46.1788 45.5786 46.0629 45.6946 46.0629 45.8377C46.0629 45.9807 46.1788 46.0967 46.3219 46.0967Z" fill="black"/>
<path d="M46.6315 45.6693C46.5715 45.5599 46.4553 45.4853 46.3219 45.4853H46.3144C46.3009 45.4864 46.2874 45.4872 46.2742 45.4887C46.1359 45.5074 46.0223 45.6071 45.9837 45.7383C45.9744 45.7698 45.9695 45.8032 45.9695 45.8377C45.9695 45.9299 46.0047 46.0135 46.0628 46.0761C46.1269 46.1465 46.2195 46.1904 46.3219 46.1904C46.4058 46.1904 46.4834 46.1608 46.5441 46.1113C46.6236 46.0465 46.6746 45.9479 46.6746 45.8377C46.6746 45.7766 46.6589 45.7192 46.6315 45.6693ZM46.3219 45.6727H46.3222C46.4133 45.6731 46.4872 45.7466 46.4872 45.8377C46.4872 45.9288 46.4129 46.003 46.3219 46.003C46.2308 46.003 46.1569 45.9288 46.1569 45.8377C46.1569 45.7537 46.2199 45.6847 46.3005 45.6742C46.3076 45.6731 46.3147 45.6727 46.3219 45.6727Z" fill="black"/>
<path d="M47.6371 45.5622C47.6176 45.5258 47.5764 45.5067 47.5359 45.5146C47.3549 45.5509 47.1971 45.5337 46.9969 45.5119C46.8095 45.4913 46.5973 45.4681 46.3161 45.4853H46.3143C46.3008 45.4864 46.2873 45.4872 46.2742 45.4887C45.6939 45.5382 45.4922 45.8549 45.484 45.8684C45.4618 45.9044 45.4663 45.9505 45.4948 45.9816C45.5061 45.9936 45.7771 46.2789 46.3574 46.3119C46.372 46.3126 46.3866 46.313 46.4012 46.313C46.974 46.313 47.594 45.6994 47.6206 45.6727C47.6499 45.6435 47.6566 45.5985 47.6371 45.5622ZM46.5441 46.1113C46.4845 46.1229 46.4256 46.1278 46.3679 46.1244C46.2517 46.1177 46.1504 46.1001 46.0627 46.0761C45.8839 46.0281 45.7628 45.9558 45.6957 45.9067C45.7467 45.8575 45.8382 45.7889 45.9836 45.7383C46.0192 45.7256 46.0579 45.7144 46.1002 45.7046C46.1598 45.6907 46.2262 45.6802 46.3004 45.6742C46.3075 45.6742 46.3146 45.6731 46.3218 45.6727H46.3221C46.324 45.6727 46.3259 45.6727 46.3278 45.6727C46.3945 45.6686 46.4567 45.6671 46.5159 45.6671H46.5163C46.556 45.6671 46.5947 45.6682 46.6314 45.6697C46.7596 45.675 46.8721 45.687 46.9766 45.6986C47.082 45.7099 47.1806 45.7207 47.2792 45.723C47.0951 45.8688 46.8158 46.0588 46.5441 46.1117V46.1113Z" fill="black"/>
<path d="M43.0029 46.0967C43.146 46.0967 43.262 45.9807 43.262 45.8377C43.262 45.6946 43.146 45.5786 43.0029 45.5786C42.8599 45.5786 42.7439 45.6946 42.7439 45.8377C42.7439 45.9807 42.8599 46.0967 43.0029 46.0967Z" fill="black"/>
<path d="M43.3409 45.7379C43.3023 45.6067 43.1887 45.507 43.0496 45.4887C43.0369 45.4872 43.0241 45.4864 43.011 45.4853H43.0028C42.8697 45.4853 42.7535 45.5599 42.6935 45.6693C42.6658 45.7192 42.6504 45.7766 42.6504 45.8377C42.6504 45.9482 42.7014 46.0468 42.7812 46.1113C42.8416 46.1612 42.9188 46.1904 43.0028 46.1904C43.1055 46.1904 43.1981 46.1465 43.2622 46.0761C43.3199 46.0135 43.3555 45.9299 43.3555 45.8377C43.3555 45.8032 43.3506 45.7694 43.3409 45.7379ZM43.1681 45.8377C43.1681 45.9288 43.0939 46.003 43.0028 46.003C42.9117 46.003 42.8378 45.9288 42.8378 45.8377C42.8378 45.7466 42.912 45.6727 43.0028 45.6727C43.0099 45.6727 43.017 45.6731 43.0241 45.6742C43.1051 45.6847 43.1681 45.7537 43.1681 45.8377Z" fill="black"/>
<path d="M43.8409 45.8684C43.8326 45.8549 43.6306 45.5378 43.0496 45.4887C43.0368 45.4872 43.0241 45.4864 43.011 45.4853H43.0087C42.7276 45.4681 42.5154 45.4913 42.328 45.5119C42.1278 45.5337 41.97 45.5509 41.7889 45.5146C41.7484 45.5067 41.7072 45.5258 41.6877 45.5622C41.6682 45.5985 41.6749 45.6435 41.7042 45.6727C41.7308 45.6994 42.3508 46.313 42.9236 46.313C42.9382 46.313 42.9528 46.313 42.9675 46.3119C43.5477 46.2789 43.8188 45.9936 43.83 45.9816C43.8585 45.9505 43.863 45.9044 43.8409 45.8684ZM43.2621 46.0761C43.1744 46.1001 43.0728 46.1177 42.957 46.1244C42.8996 46.1278 42.8408 46.1229 42.7812 46.1113C42.5094 46.0588 42.2297 45.8688 42.0457 45.7226C42.1443 45.7204 42.2425 45.7095 42.3482 45.6982C42.4528 45.6866 42.5652 45.6742 42.6934 45.6694C42.7302 45.6679 42.7688 45.6667 42.8085 45.6667H42.8089C42.8685 45.6667 42.9307 45.6682 42.9971 45.6724C42.999 45.6724 43.0008 45.6724 43.0027 45.6724C43.0098 45.6727 43.0169 45.6735 43.0241 45.6739C43.0983 45.6795 43.165 45.6904 43.2246 45.7042C43.267 45.714 43.3056 45.7252 43.3408 45.7376C43.487 45.7886 43.5781 45.8575 43.6291 45.9063C43.5616 45.9554 43.4405 46.0277 43.2621 46.0757V46.0761Z" fill="black"/>
<path d="M43.9171 45.5254C43.8909 45.5254 43.865 45.5145 43.8463 45.4932C43.8425 45.4891 43.4658 45.0636 42.9706 45.0636C42.4466 45.0636 41.7006 45.3121 41.6931 45.3147C41.644 45.3312 41.5908 45.3046 41.5743 45.2559C41.5578 45.2068 41.584 45.1536 41.6331 45.1371C41.665 45.1266 42.4154 44.8762 42.9702 44.8762C43.5524 44.8762 43.97 45.35 43.9876 45.3702C44.0213 45.4092 44.0172 45.4684 43.9782 45.5026C43.9606 45.5179 43.9385 45.5254 43.9168 45.5254H43.9171Z" fill="black"/>
<path d="M45.3007 45.5254C45.279 45.5254 45.2572 45.5179 45.2393 45.5026C45.2003 45.4688 45.1958 45.4096 45.2299 45.3702C45.2475 45.35 45.6651 44.8762 46.2473 44.8762C46.8294 44.8762 47.5529 45.1262 47.5844 45.1371C47.6335 45.1536 47.6597 45.2068 47.6432 45.2559C47.6267 45.305 47.5735 45.3316 47.5244 45.3147C47.5169 45.3121 46.7709 45.0636 46.2469 45.0636C45.7228 45.0636 45.375 45.4887 45.3712 45.4932C45.3528 45.5145 45.3266 45.5254 45.3004 45.5254H45.3007Z" fill="black"/>
<path d="M47.9446 41.2119H41.5341C41.4306 41.2119 41.3467 41.128 41.3467 41.0245C41.3467 40.921 41.4306 40.8371 41.5341 40.8371H47.9446C48.048 40.8371 48.132 40.921 48.132 41.0245C48.132 41.128 48.048 41.2119 47.9446 41.2119Z" fill="black"/>
<path d="M44.6948 38.8912C44.6948 38.8912 44.4939 39.3406 46.4413 40.7508C48.3883 42.1614 46.8533 43.5218 46.8533 43.5218H42.5252C42.5252 43.5218 40.9897 42.1614 42.9371 40.7508C44.8842 39.3402 44.6836 38.8912 44.6836 38.8912H44.6952H44.6948Z" fill="white"/>
<path d="M47.6135 42.2188C47.5963 41.8675 47.4606 41.5309 47.2083 41.2119C47.1075 41.0841 46.9875 40.9589 46.8492 40.8371C46.7581 40.7565 46.6587 40.6774 46.5512 40.5994C45.1068 39.5528 44.9078 39.0745 44.8808 38.9601C44.8789 38.9534 44.8782 38.9478 44.8774 38.9436C44.8774 38.9403 44.8778 38.9365 44.8778 38.9331C44.8973 38.8477 44.8545 38.7573 44.7713 38.7202C44.7447 38.7082 44.7158 38.703 44.6892 38.7037C44.6615 38.703 44.6334 38.7082 44.6068 38.7202C44.5235 38.7573 44.4808 38.8477 44.5003 38.9331C44.5003 38.9365 44.5007 38.9403 44.5007 38.9436C44.4999 38.9478 44.4992 38.9534 44.4973 38.9601C44.4703 39.0745 44.2713 39.5528 42.8269 40.5994C42.7197 40.677 42.6204 40.7561 42.5289 40.8371C42.3906 40.9589 42.2706 41.0841 42.1694 41.2119C41.9175 41.5309 41.7818 41.8675 41.7646 42.2188C41.7413 42.6881 41.937 43.0787 42.1177 43.3347C42.1698 43.409 42.2208 43.4719 42.2646 43.5222C42.2781 43.5375 42.2909 43.5514 42.3029 43.5642C42.3569 43.623 42.3943 43.6567 42.4007 43.6624C42.4348 43.6927 42.4791 43.7096 42.5248 43.7096H46.8533C46.899 43.7096 46.9433 43.6927 46.9774 43.6624C46.9837 43.6567 47.0212 43.623 47.0752 43.5642C47.0872 43.5514 47.1 43.5375 47.1134 43.5222C47.1573 43.4719 47.2083 43.409 47.2604 43.3347C47.4411 43.0787 47.6368 42.6881 47.6135 42.2188ZM42.6016 43.3347C42.4693 43.1964 42.1113 42.7698 42.1391 42.2342C42.1571 41.8822 42.337 41.5399 42.6747 41.2119C42.7827 41.1073 42.9064 41.0042 43.0466 40.9027C43.077 40.8805 43.107 40.8588 43.1366 40.8371C44.0224 40.187 44.4711 39.7263 44.6892 39.4055C44.907 39.7263 45.3557 40.187 46.2415 40.8371C46.2711 40.8588 46.3011 40.8805 46.3315 40.9027C46.4717 41.0042 46.5954 41.1073 46.7034 41.2119C47.0411 41.5399 47.221 41.8822 47.239 42.2342C47.2668 42.7702 46.9084 43.1968 46.7765 43.3347H42.6016Z" fill="black"/>
<path d="M49.8076 43.3347H39.5474V43.7096H49.8076V43.3347Z" fill="#C56E2B"/>
<path d="M46.1931 34.8123H43.2853C43.1819 34.8123 43.0979 34.7284 43.0979 34.6249C43.0979 34.5214 43.1819 34.4375 43.2853 34.4375H46.1931C46.2966 34.4375 46.3805 34.5214 46.3805 34.6249C46.3805 34.7284 46.2966 34.8123 46.1931 34.8123Z" fill="black"/>
<path d="M46.7835 36.9456H42.6739C42.5704 36.9456 42.4865 36.8617 42.4865 36.7582C42.4865 36.6547 42.5704 36.5708 42.6739 36.5708H46.7835C46.8869 36.5708 46.9709 36.6547 46.9709 36.7582C46.9709 36.8617 46.8869 36.9456 46.7835 36.9456Z" fill="black"/>
<path d="M47.3309 38.9601H42.0877C41.9842 38.9601 41.9003 38.8762 41.9003 38.7727C41.9003 38.6692 41.9842 38.5853 42.0877 38.5853H47.3309C47.4343 38.5853 47.5183 38.6692 47.5183 38.7727C47.5183 38.8762 47.4343 38.9601 47.3309 38.9601Z" fill="black"/>
<path d="M19.5557 34.9791L28.366 39.7758H6.9657L15.8247 34.9791H19.5557Z" fill="#D98360"/>
<path d="M28.3661 39.9633H6.96575C6.8799 39.9633 6.80493 39.9052 6.78394 39.8219C6.76295 39.7387 6.80081 39.6518 6.87653 39.6113L15.7356 34.8146L15.914 35.1441L7.70534 39.5884H27.6299L19.4662 35.1437L19.6454 34.8146L28.4557 39.6113C28.531 39.6521 28.5689 39.7391 28.5479 39.8219C28.5269 39.9052 28.4519 39.9633 28.3661 39.9633Z" fill="black"/>
<path d="M23.7162 33.6461L19.5561 34.9791H15.8247L11.4014 33.6461H23.7162Z" fill="#D98360"/>
<path d="M23.9021 33.6255C23.9021 33.6255 23.9017 33.6229 23.9017 33.6214C23.9014 33.6199 23.9017 33.6184 23.9014 33.6169C23.9006 33.6132 23.9002 33.6098 23.8991 33.606C23.8972 33.5978 23.8946 33.5892 23.892 33.5813C23.8882 33.5715 23.8841 33.5622 23.8789 33.5532C23.8766 33.5487 23.8736 33.5446 23.8706 33.5404C23.865 33.5314 23.8579 33.5228 23.85 33.5149C23.8463 33.5108 23.8421 33.5071 23.838 33.5037C23.8354 33.5011 23.8328 33.4988 23.8298 33.4973C23.8271 33.4951 23.8249 33.4932 23.8223 33.4917C23.8215 33.4909 23.8208 33.4902 23.8196 33.4898C23.8125 33.4853 23.805 33.4808 23.7972 33.4771C23.7724 33.4655 23.7451 33.4587 23.7162 33.4587H11.4013C11.3083 33.4587 11.2292 33.5266 11.2157 33.6188C11.2023 33.7106 11.2581 33.7983 11.3466 33.8253C11.3473 33.8253 11.3481 33.8253 11.3488 33.8253L15.3396 35.0286L15.5922 35.1047L15.7707 35.1583C15.7879 35.1636 15.8063 35.1662 15.8246 35.1662H19.556C19.5751 35.1662 19.5946 35.1632 19.613 35.1576L19.7835 35.1028L20.0302 35.0237L22.3476 34.2812L22.9766 34.0795L23.0234 34.0645L23.6082 33.8771L23.7732 33.8242C23.7732 33.8242 23.7743 33.8242 23.775 33.8234C23.778 33.8227 23.7807 33.8216 23.7837 33.8204C23.7874 33.8193 23.7908 33.8178 23.7942 33.8159C23.7987 33.8141 23.8032 33.8118 23.8073 33.8092C23.811 33.8073 23.8148 33.8051 23.8181 33.8028C23.8238 33.7995 23.829 33.7953 23.8339 33.7916C23.8373 33.7886 23.8403 33.786 23.8433 33.7833C23.8478 33.7792 23.8519 33.7751 23.8556 33.7706C23.859 33.7668 23.8624 33.7627 23.8654 33.7586C23.8688 33.7545 23.8718 33.75 23.8744 33.7455C23.877 33.7414 23.8796 33.7365 23.8822 33.732C23.8822 33.7316 23.8826 33.7312 23.883 33.7309C23.8871 33.7222 23.8909 33.7132 23.8942 33.7039C23.8942 33.7035 23.8942 33.7027 23.8946 33.7024C23.8961 33.6982 23.8972 33.6937 23.8984 33.6896C23.8987 33.6885 23.8987 33.6874 23.8987 33.6866C23.9006 33.6791 23.9017 33.6716 23.9021 33.6641C23.9025 33.6623 23.9029 33.6604 23.9029 33.6585C23.9029 33.6555 23.9032 33.6529 23.9032 33.6499V33.6473C23.9036 33.6398 23.9032 33.6323 23.9021 33.6251V33.6255ZM22.3802 33.8774L22.0289 33.9899L21.795 34.0649L21.7148 34.0907L19.5264 34.7917H15.8524L12.6725 33.8336H22.517L22.3802 33.8774Z" fill="black"/>
<path d="M23.7163 33.6461H11.4015L11.382 33.6401L16.4992 31.358H18.8694L23.7163 33.6461Z" fill="#BB6931"/>
<path d="M23.9023 33.6255C23.9016 33.6191 23.9004 33.6124 23.8993 33.606C23.8974 33.5978 23.8948 33.5892 23.8922 33.5813C23.8884 33.5715 23.8843 33.5622 23.8791 33.5532C23.8768 33.5487 23.8738 33.5445 23.8708 33.5404C23.8652 33.5314 23.8581 33.5228 23.8502 33.5149C23.8464 33.5108 23.8423 33.5071 23.8382 33.5037C23.8356 33.5011 23.833 33.4988 23.83 33.4973C23.8273 33.4951 23.8251 33.4932 23.8225 33.4917C23.8217 33.4909 23.821 33.4902 23.8198 33.4898C23.8127 33.4853 23.8052 33.4808 23.7973 33.4771C23.797 33.4767 23.7966 33.4763 23.7962 33.4763L23.4056 33.2919L23.1822 33.1866L22.9588 33.0808L18.9497 31.1886C18.9245 31.1769 18.8972 31.1706 18.8694 31.1706H16.4992C16.473 31.1706 16.4471 31.1762 16.4231 31.1871L11.3059 33.4688C11.2343 33.5011 11.1901 33.5738 11.1949 33.6518C11.1998 33.7301 11.2527 33.7968 11.3276 33.8197L11.3468 33.8253C11.3468 33.8253 11.3483 33.8253 11.349 33.8253C11.3659 33.8306 11.3835 33.8332 11.4015 33.8332H23.7164C23.7362 33.8332 23.7554 33.8302 23.7734 33.8242C23.7741 33.8242 23.7745 33.8242 23.7752 33.8234C23.7782 33.8227 23.7809 33.8216 23.7838 33.8204C23.7876 33.8193 23.791 33.8178 23.7943 33.8159C23.7988 33.8141 23.8033 33.8118 23.8075 33.8092C23.8112 33.8073 23.815 33.8051 23.8183 33.8028C23.824 33.7995 23.8292 33.7953 23.8341 33.7916C23.8375 33.7886 23.8405 33.786 23.8435 33.7833C23.8479 33.7792 23.8521 33.7751 23.8558 33.7706C23.8592 33.7668 23.8626 33.7627 23.8656 33.7586C23.8689 33.7545 23.8719 33.75 23.8746 33.7455C23.8772 33.7413 23.8798 33.7365 23.8824 33.732C23.8824 33.7316 23.8828 33.7312 23.8832 33.7309C23.8873 33.7222 23.8911 33.7132 23.8944 33.7039C23.8944 33.7035 23.8944 33.7027 23.8948 33.7024C23.8959 33.6982 23.8971 33.6941 23.8982 33.6896C23.8982 33.6885 23.8982 33.6877 23.8989 33.6866C23.9008 33.6791 23.9019 33.6716 23.9023 33.6641C23.9031 33.6593 23.9034 33.6548 23.9034 33.6499V33.6473C23.9038 33.6398 23.9034 33.6323 23.9023 33.6251V33.6255ZM18.8275 31.5454L22.5067 33.2825L22.7305 33.3879L22.8801 33.4587H12.2494L16.5393 31.5454H18.8275Z" fill="black"/>
<path d="M18.8696 29.8608L17.9212 24.0902C17.8553 23.8529 17.519 23.8529 17.4527 24.0902L16.499 29.8608H18.8696Z" fill="#BB6931"/>
<path d="M19.0544 29.8304L18.8786 28.7606L18.8471 28.5702L18.816 28.3794L18.633 27.2668L18.106 24.0598C18.1049 24.0535 18.1034 24.0467 18.1019 24.0404C18.0494 23.8518 17.883 23.7251 17.6873 23.7251H17.6869C17.4912 23.7251 17.3248 23.8514 17.2719 24.04C17.2704 24.0467 17.2689 24.0531 17.2678 24.0598L16.7475 27.2075L16.6632 27.7196L16.6309 27.913L16.5991 28.1065L16.3142 29.8304C16.3052 29.8848 16.3205 29.9403 16.3561 29.9823C16.3918 30.0242 16.4439 30.0482 16.499 30.0482H18.8696C18.9243 30.0482 18.9768 30.0242 19.0124 29.9823C19.048 29.9403 19.0634 29.8848 19.0544 29.8304ZM16.9525 28.2658L16.984 28.0757L17.0155 27.8853L17.1254 27.2195L17.6355 24.1337C17.6442 24.1112 17.6614 24.1 17.6869 24.1C17.7124 24.1 17.7296 24.1112 17.7383 24.1337L18.2511 27.2548L18.4269 28.3235L18.4591 28.5199L18.4913 28.7152L18.6488 29.6734H16.7198L16.9525 28.2658Z" fill="black"/>
<path d="M23.3865 39.7758V56.6565H17.0663C16.9558 56.5946 16.8456 56.532 16.7361 56.4691C14.9934 55.4652 13.3669 54.2829 11.8805 52.9473C11.8179 52.8907 11.7553 52.8341 11.6931 52.7771V39.7758H23.3865Z" fill="#FFE9DF"/>
<path d="M22.0458 39.7946H22.0454C22.0439 39.7923 22.0428 39.7897 22.0409 39.7875C22.039 39.7841 22.0368 39.7807 22.0345 39.7773C22.0342 39.777 22.0342 39.7766 22.0338 39.7762H11.5055V44.8428L11.6929 45.0936V45.4066L11.8058 45.5569L11.8804 47.9894V39.9636H22.0525V39.81C22.0503 39.8047 22.048 39.7998 22.0458 39.795V39.7946ZM23.5456 39.6773C23.5126 39.624 23.4538 39.5884 23.3863 39.5884H11.6929C11.5895 39.5884 11.5055 39.6724 11.5055 39.7758V52.6043C11.5677 52.6624 11.6303 52.7197 11.6929 52.7771C11.7551 52.8341 11.8178 52.8907 11.8804 52.9473V39.9633H23.1989V56.4691H16.7359C16.8454 56.5321 16.9556 56.5947 17.0662 56.6565C17.1794 56.7199 17.2933 56.7825 17.4077 56.8439H23.3863C23.4901 56.8439 23.5737 56.76 23.5737 56.6565V39.7758C23.5737 39.7395 23.5636 39.7057 23.5456 39.6773Z" fill="black"/>
<path d="M24.0535 56.6565V57.2345H18.1559C18.0333 57.1731 17.9111 57.1105 17.7896 57.0471C17.6618 56.9804 17.5344 56.9129 17.4077 56.8439C17.2933 56.7825 17.1794 56.7199 17.0662 56.6565H24.0535Z" fill="#B56D45"/>
<path d="M24.0537 56.4691H16.7361C16.8455 56.532 16.9558 56.5946 17.0663 56.6565C17.1795 56.7199 17.2935 56.7825 17.4078 56.8439H23.8663V57.0471H17.7898C17.9113 57.1105 18.0335 57.1731 18.1561 57.2345C18.282 57.2979 18.4083 57.3605 18.5354 57.422H24.0537C24.1572 57.422 24.2411 57.338 24.2411 57.2345V56.6565C24.2411 56.553 24.1572 56.4691 24.0537 56.4691Z" fill="black"/>
<path d="M24.8316 57.2345V57.8126H19.3763C19.2383 57.7515 19.1008 57.6889 18.9639 57.6251C18.8204 57.5588 18.6776 57.4909 18.5355 57.422C18.4084 57.3605 18.2821 57.2979 18.1561 57.2345H24.8316Z" fill="#B56D45"/>
<path d="M24.8317 57.0471H17.7899C17.9114 57.1105 18.0336 57.1731 18.1562 57.2345C18.2821 57.2979 18.4084 57.3605 18.5355 57.422H24.6442V57.6252H18.964C19.1008 57.6889 19.2384 57.7515 19.3763 57.8126C19.5191 57.8763 19.6623 57.9389 19.8067 58H24.8317C24.9351 58 25.0191 57.916 25.0191 57.8126V57.2345C25.0191 57.1311 24.9351 57.0471 24.8317 57.0471Z" fill="black"/>
<path d="M18.3404 39.7758H16.9917V41.7468H18.3404V39.7758Z" fill="black"/>
<path d="M18.3401 39.5884H16.9918C16.8879 39.5884 16.8043 39.6724 16.8043 39.7758V41.7472C16.8043 41.8507 16.8879 41.9347 16.9918 41.9347H18.3401C18.444 41.9347 18.5275 41.8507 18.5275 41.7472V39.7758C18.5275 39.6724 18.444 39.5884 18.3401 39.5884ZM18.1527 41.5598H17.1792V39.9633H18.1527V41.5598Z" fill="black"/>
<path d="M21.7416 39.7758H20.3928V41.7468H21.7416V39.7758Z" fill="black"/>
<path d="M21.8652 39.6356C21.8322 39.606 21.7891 39.5884 21.7415 39.5884H20.3928C20.2893 39.5884 20.2053 39.6724 20.2053 39.7758V41.7472C20.2053 41.8507 20.2893 41.9347 20.3928 41.9347H21.7415C21.7891 41.9347 21.8322 41.917 21.8652 41.8878C21.9042 41.8533 21.9289 41.8031 21.9289 41.7472V39.7758C21.9289 39.72 21.9042 39.6698 21.8652 39.6356ZM21.5541 41.5598H20.5802V39.9633H21.5541V41.5598Z" fill="black"/>
<path d="M14.939 39.7758H13.5902V41.7468H14.939V39.7758Z" fill="black"/>
<path d="M14.939 39.5884H13.5903C13.4868 39.5884 13.4028 39.6724 13.4028 39.7758V41.7472C13.4028 41.8507 13.4868 41.9347 13.5903 41.9347H14.939C15.0425 41.9347 15.1264 41.8507 15.1264 41.7472V39.7758C15.1264 39.6724 15.0425 39.5884 14.939 39.5884ZM14.7516 41.5598H13.7777V39.9633H14.7516V41.5598Z" fill="black"/>
<path d="M19.3556 48.2162H15.6505V55.367H19.3556V48.2162Z" fill="#F8B157"/>
<path d="M15.463 48.0287V55.5544H19.543V48.0287H15.463ZM19.1681 55.1796H15.8379V48.4036H19.1681V55.1796Z" fill="black"/>
<path d="M11.7155 42.2233C11.6675 42.2233 11.6195 42.2049 11.5828 42.1686L9.32277 39.9085C9.24967 39.8354 9.24967 39.7166 9.32277 39.6435C9.39587 39.5704 9.5147 39.5704 9.58779 39.6435L11.8478 41.9035C11.9209 41.9766 11.9209 42.0955 11.8478 42.1686C11.8111 42.2053 11.7631 42.2233 11.7151 42.2233H11.7155Z" fill="black"/>
<path d="M23.3865 42.2233C23.3385 42.2233 23.2905 42.2049 23.2538 42.1686C23.1807 42.0955 23.1807 41.9766 23.2538 41.9035L25.5138 39.6435C25.5869 39.5704 25.7058 39.5704 25.7789 39.6435C25.8519 39.7166 25.8519 39.8354 25.7789 39.9085L23.5188 42.1686C23.4821 42.2053 23.4341 42.2233 23.3861 42.2233H23.3865Z" fill="black"/>
<path d="M10.3296 39.4298C10.2262 39.4298 10.1422 39.3459 10.1422 39.2424V38.6066C10.1422 38.5032 10.2262 38.4192 10.3296 38.4192C10.4331 38.4192 10.5171 38.5032 10.5171 38.6066V39.2424C10.5171 39.3459 10.4331 39.4298 10.3296 39.4298Z" fill="black"/>
<path d="M11.7968 39.4298C11.6933 39.4298 11.6094 39.3458 11.6094 39.2424V37.9641C11.6094 37.8607 11.6933 37.7767 11.7968 37.7767C11.9003 37.7767 11.9842 37.8607 11.9842 37.9641V39.2424C11.9842 39.3458 11.9003 39.4298 11.7968 39.4298Z" fill="black"/>
<path d="M13.264 39.4298C13.1605 39.4298 13.0765 39.3459 13.0765 39.2424V37.3925C13.0765 37.289 13.1605 37.205 13.264 37.205C13.3674 37.205 13.4514 37.289 13.4514 37.3925V39.2424C13.4514 39.3459 13.3674 39.4298 13.264 39.4298Z" fill="black"/>
<path d="M14.7313 39.4298C14.6278 39.4298 14.5438 39.3459 14.5438 39.2424V36.7747C14.5438 36.6712 14.6278 36.5873 14.7313 36.5873C14.8347 36.5873 14.9187 36.6712 14.9187 36.7747V39.2424C14.9187 39.3459 14.8347 39.4298 14.7313 39.4298Z" fill="black"/>
<path d="M16.1985 39.4298C16.0951 39.4298 16.0111 39.3458 16.0111 39.2424V36.1595C16.0111 36.0561 16.0951 35.9721 16.1985 35.9721C16.302 35.9721 16.386 36.0561 16.386 36.1595V39.2424C16.386 39.3458 16.302 39.4298 16.1985 39.4298Z" fill="black"/>
<path d="M17.6657 39.4299C17.5622 39.4299 17.4783 39.3459 17.4783 39.2424V35.8931C17.4783 35.7896 17.5622 35.7056 17.6657 35.7056C17.7692 35.7056 17.8531 35.7896 17.8531 35.8931V39.2424C17.8531 39.3459 17.7692 39.4299 17.6657 39.4299Z" fill="black"/>
<path d="M19.1331 39.4298C19.0296 39.4298 18.9457 39.3458 18.9457 39.2424V36.1595C18.9457 36.0561 19.0296 35.9721 19.1331 35.9721C19.2366 35.9721 19.3205 36.0561 19.3205 36.1595V39.2424C19.3205 39.3458 19.2366 39.4298 19.1331 39.4298Z" fill="black"/>
<path d="M20.6004 39.4298C20.4969 39.4298 20.413 39.3459 20.413 39.2424V36.7747C20.413 36.6712 20.4969 36.5873 20.6004 36.5873C20.7039 36.5873 20.7878 36.6712 20.7878 36.7747V39.2424C20.7878 39.3459 20.7039 39.4298 20.6004 39.4298Z" fill="black"/>
<path d="M16.6689 34.7111C16.5654 34.7111 16.4814 34.6271 16.4814 34.5237V34.1031C16.4814 33.9996 16.5654 33.9156 16.6689 33.9156C16.7723 33.9156 16.8563 33.9996 16.8563 34.1031V34.5237C16.8563 34.6271 16.7723 34.7111 16.6689 34.7111Z" fill="black"/>
<path d="M17.8735 34.7291C17.77 34.7291 17.686 34.6451 17.686 34.5417V34.0847C17.686 33.9812 17.77 33.8973 17.8735 33.8973C17.9769 33.8973 18.0609 33.9812 18.0609 34.0847V34.5417C18.0609 34.6451 17.9769 34.7291 17.8735 34.7291Z" fill="black"/>
<path d="M19.0777 34.7111C18.9742 34.7111 18.8903 34.6271 18.8903 34.5237V34.1031C18.8903 33.9996 18.9742 33.9156 19.0777 33.9156C19.1811 33.9156 19.2651 33.9996 19.2651 34.1031V34.5237C19.2651 34.6271 19.1811 34.7111 19.0777 34.7111Z" fill="black"/>
<path d="M22.0676 39.4298C21.9641 39.4298 21.8801 39.3459 21.8801 39.2424V37.3925C21.8801 37.289 21.9641 37.205 22.0676 37.205C22.171 37.205 22.255 37.289 22.255 37.3925V39.2424C22.255 39.3459 22.171 39.4298 22.0676 39.4298Z" fill="black"/>
<path d="M23.5348 39.4298C23.4314 39.4298 23.3474 39.3458 23.3474 39.2424V37.9641C23.3474 37.8607 23.4314 37.7767 23.5348 37.7767C23.6383 37.7767 23.7223 37.8607 23.7223 37.9641V39.2424C23.7223 39.3458 23.6383 39.4298 23.5348 39.4298Z" fill="black"/>
<path d="M25.0021 39.4298C24.8987 39.4298 24.8147 39.3459 24.8147 39.2424V38.6066C24.8147 38.5032 24.8987 38.4192 25.0021 38.4192C25.1056 38.4192 25.1896 38.5032 25.1896 38.6066V39.2424C25.1896 39.3459 25.1056 39.4298 25.0021 39.4298Z" fill="black"/>
<path d="M19.2651 30.3279H16.0671V30.8909H19.2651V30.3279Z" fill="#BB6931"/>
<path d="M19.2649 30.1404H16.0669C15.9635 30.1404 15.8795 30.2244 15.8795 30.3279V30.8909C15.8795 30.9944 15.9635 31.0783 16.0669 31.0783H19.2649C19.3683 31.0783 19.4523 30.9944 19.4523 30.8909V30.3279C19.4523 30.2244 19.3683 30.1404 19.2649 30.1404ZM19.0774 30.7035H16.2544V30.5153H19.0774V30.7035Z" fill="black"/>
<path d="M27.0336 31.7643H25.2751V31.9127H27.0336V31.7643Z" fill="#BB6931"/>
<path d="M27.0337 31.7081H25.2752C25.2441 31.7081 25.219 31.7332 25.219 31.7643V31.9124C25.219 31.9435 25.2441 31.9686 25.2752 31.9686H27.0337C27.0644 31.9686 27.0899 31.9435 27.0899 31.9124V31.7643C27.0899 31.7332 27.0644 31.7081 27.0337 31.7081ZM26.9775 31.8562H25.3315V31.8206H26.9775V31.8562Z" fill="black"/>
<path d="M6.85797 26.8385L6.72449 27.6025L7.09375 27.6671L7.22723 26.903L6.85797 26.8385Z" fill="black"/>
<path d="M55.733 28.1083L55.3658 28.184L55.5077 28.8724L55.8748 28.7967L55.733 28.1083Z" fill="black"/>
</svg>
