<svg width="14" height="18" viewBox="0 0 14 18" fill="none" xmlns="http://www.w3.org/2000/svg">
<path fill-rule="evenodd" clip-rule="evenodd" d="M7.4992 12.7658C10.7909 12.5111 13.3826 9.75945 13.3826 6.40237C13.3826 2.8773 10.525 0.0196533 6.99991 0.0196533C3.47483 0.0196533 0.617188 2.8773 0.617188 6.40237C0.617188 9.72664 3.15848 12.4573 6.4043 12.7577V14.0706C5.59066 14.3241 5 15.0832 5 15.9803C5 17.0849 5.89542 17.9803 6.99998 17.9803C8.10457 17.9803 9 17.0849 9 15.9803C9 15.0481 8.36223 14.2649 7.4992 14.0432V12.7658ZM7.00005 8.36619C8.08466 8.36619 8.96398 7.48687 8.96398 6.40227C8.96398 5.31763 8.08466 4.43835 7.00005 4.43835C5.9154 4.43835 5.03613 5.31763 5.03613 6.40227C5.03613 7.48687 5.9154 8.36619 7.00005 8.36619Z" fill="#363434"/>
</svg>
