<svg width="21" height="24" viewBox="0 0 21 24" fill="none" xmlns="http://www.w3.org/2000/svg">
<path d="M6.85714 5.71429H13.7143C13.7143 4.76191 13.381 3.95238 12.7143 3.28571C12.0476 2.61905 11.2381 2.28571 10.2857 2.28571C9.33333 2.28571 8.52381 2.61905 7.85714 3.28571C7.19048 3.95238 6.85714 4.76191 6.85714 5.71429ZM10.2857 14.8571C11.8667 14.8571 13.2145 14.2998 14.3291 13.1851C15.443 12.0712 16 10.7238 16 9.14286H13.7143C13.7143 10.0952 13.381 10.9048 12.7143 11.5714C12.0476 12.2381 11.2381 12.5714 10.2857 12.5714C9.33333 12.5714 8.52381 12.2381 7.85714 11.5714C7.19048 10.9048 6.85714 10.0952 6.85714 9.14286H4.57143C4.57143 10.7238 5.12876 12.0712 6.24343 13.1851C7.35733 14.2998 8.70476 14.8571 10.2857 14.8571ZM18.2857 24H2.28571C1.65714 24 1.11886 23.7764 0.670857 23.3291C0.223619 22.8811 0 22.3429 0 21.7143V8C0 7.37143 0.223619 6.83352 0.670857 6.38629C1.11886 5.93829 1.65714 5.71429 2.28571 5.71429H4.57143C4.57143 4.13333 5.12876 2.78552 6.24343 1.67086C7.35733 0.556952 8.70476 0 10.2857 0C11.8667 0 13.2145 0.556952 14.3291 1.67086C15.443 2.78552 16 4.13333 16 5.71429H18.2857C18.9143 5.71429 19.4526 5.93829 19.9006 6.38629C20.3478 6.83352 20.5714 7.37143 20.5714 8V21.7143C20.5714 22.3429 20.3478 22.8811 19.9006 23.3291C19.4526 23.7764 18.9143 24 18.2857 24Z" fill="#BCBEC0"/>
</svg>
