<svg width="26" height="24" viewBox="0 0 26 24" fill="none" xmlns="http://www.w3.org/2000/svg">
<path d="M25.2719 6.29578L24.3991 1.92884C24.2059 0.814074 23.2392 0 22.1083 0H3.16353C2.033 0 1.066 0.814074 0.872731 1.92884L0 6.29578H0.0224588C0.00759171 6.44011 0 6.58634 0 6.73447C0 9.07383 1.89508 10.9701 4.23301 10.9701C6.39539 10.9701 8.17881 9.34793 8.43439 7.25324C8.68998 9.34761 10.4734 10.9701 12.6358 10.9701C14.7981 10.9701 16.5816 9.34793 16.8372 7.25324C17.0927 9.34761 18.8762 10.9701 21.0385 10.9701C23.3765 10.9701 25.2715 9.07383 25.2715 6.73447C25.2715 6.58634 25.264 6.44011 25.2491 6.29578H25.2715H25.2719Z" fill="#BCBEC0"/>
<path d="M21.0388 12.5527C19.3997 12.5527 17.9022 11.8678 16.8375 10.7559C15.7727 11.8681 14.2753 12.5527 12.6361 12.5527C10.9969 12.5527 9.49944 11.8678 8.4347 10.7559C7.36996 11.8681 5.8725 12.5527 4.23332 12.5527C2.70454 12.5527 1.31177 11.9592 0.272659 10.9904V22.2662C0.272659 23.224 1.0486 24.0001 2.00547 24.0001H23.2664C24.2236 24.0001 24.9992 23.2237 24.9992 22.2662V10.9904C23.9601 11.9592 22.5673 12.5527 21.0385 12.5527H21.0388ZM12.6361 20.3307C11.7899 20.3307 11.1038 19.6442 11.1038 18.7975C11.1038 17.9509 11.7899 17.2643 12.6361 17.2643C13.4822 17.2643 14.1683 17.9509 14.1683 18.7975C14.1683 19.6442 13.4822 20.3307 12.6361 20.3307Z" fill="#BCBEC0"/>
</svg>
