<svg width="28" height="27" viewBox="0 0 28 27" fill="none" xmlns="http://www.w3.org/2000/svg">
<g clip-path="url(#clip0_3401_5224)">
<path d="M21.577 26.3723H4.83876C3.86617 26.3723 3.07745 25.5835 3.07745 24.611V12.9834H23.3374V24.611C23.3374 25.5835 22.5486 26.3723 21.5761 26.3723H21.577Z" fill="black"/>
<path d="M22.237 8.13985L1.2813 13.746C1.02872 13.8138 0.768394 13.6638 0.700651 13.4102L0.0599988 11.0179C-0.191617 10.0783 0.366777 9.11341 1.30647 8.86179L19.776 3.92044C20.7157 3.66883 21.6806 4.22722 21.9322 5.16691L22.5728 7.56016C22.6406 7.81275 22.4906 8.07307 22.237 8.14081V8.13985Z" fill="black"/>
<path d="M10.9472 6.7774L11.0943 5.86868C11.1156 5.73513 11.6469 2.58896 13.6937 0.842168C14.3092 0.316679 15.064 0.0176429 15.8169 0.000223297C16.6279 -0.0171963 17.3383 0.28571 17.8231 0.853781C18.786 1.98218 18.4996 3.8122 17.1853 4.93383C15.4395 6.4232 12.0108 6.69611 11.8656 6.70772L10.9472 6.77643V6.7774ZM15.8837 1.45185C15.8721 1.45185 15.8615 1.45185 15.8498 1.45185C15.4357 1.46153 14.9934 1.64153 14.6363 1.94637C13.6192 2.81445 13.053 4.1993 12.7695 5.12835C13.8766 4.93867 15.4105 4.54092 16.2437 3.82962C16.9376 3.23736 17.1553 2.30638 16.7199 1.79541C16.5292 1.57282 16.234 1.45089 15.8837 1.45089V1.45185Z" fill="black"/>
<path d="M4.92876 8.52139C4.63069 8.52139 4.33746 8.49817 4.05778 8.44688C2.35841 8.13139 1.1971 6.68847 1.46807 5.23007C1.73904 3.77166 3.34068 2.84262 5.04005 3.15714C7.68492 3.64779 9.71623 6.10975 9.80139 6.21427L10.383 6.92847L9.55268 7.32719C9.43752 7.38235 7.03846 8.52139 4.92876 8.52139ZM4.37811 4.5478C3.63778 4.5478 2.99906 4.93296 2.89454 5.49523C2.77164 6.15524 3.42584 6.85299 4.32198 7.01944C5.39909 7.21977 6.9262 6.79783 7.98008 6.40976C7.27072 5.74588 6.08909 4.82845 4.77392 4.58457C4.64037 4.55941 4.50682 4.5478 4.37714 4.5478H4.37811Z" fill="black"/>
<path d="M10.324 7.85454C11.5816 7.85454 12.6011 6.83504 12.6011 5.57742C12.6011 4.3198 11.5816 3.30029 10.324 3.30029C9.06636 3.30029 8.04686 4.3198 8.04686 5.57742C8.04686 6.83504 9.06636 7.85454 10.324 7.85454Z" fill="black"/>
<path d="M15.1211 20.6538L13.2079 19.3473L11.2946 20.6538V12.605H15.1211V20.6538Z" fill="#F7941D"/>
<path d="M27.3787 9.53326H26.7187V8.87325C26.7187 8.5297 26.441 8.25195 26.0974 8.25195C25.7538 8.25195 25.4761 8.5297 25.4761 8.87325V9.53326H24.8161C24.4725 9.53326 24.1948 9.811 24.1948 10.1546C24.1948 10.4981 24.4725 10.7759 24.8161 10.7759H25.4761V11.4359C25.4761 11.7794 25.7538 12.0572 26.0974 12.0572C26.441 12.0572 26.7187 11.7794 26.7187 11.4359V10.7759H27.3787C27.7223 10.7759 28 10.4981 28 10.1546C28 9.811 27.7223 9.53326 27.3787 9.53326Z" fill="black"/>
<path d="M25.1084 6.07934C25.4344 6.07934 25.6987 5.81504 25.6987 5.48901C25.6987 5.16298 25.4344 4.89868 25.1084 4.89868C24.7823 4.89868 24.518 5.16298 24.518 5.48901C24.518 5.81504 24.7823 6.07934 25.1084 6.07934Z" fill="black"/>
<path d="M20.8793 11.7591C21.1797 11.7591 21.4232 11.5156 21.4232 11.2153C21.4232 10.9149 21.1797 10.6714 20.8793 10.6714C20.5789 10.6714 20.3354 10.9149 20.3354 11.2153C20.3354 11.5156 20.5789 11.7591 20.8793 11.7591Z" fill="black"/>
</g>
<defs>
<clipPath id="clip0_3401_5224">
<rect width="28" height="26.3722" fill="white"/>
</clipPath>
</defs>
</svg>
