<svg width="24" height="24" viewBox="0 0 24 24" fill="none" xmlns="http://www.w3.org/2000/svg">
<mask id="mask0_4430_5254" style="mask-type:alpha" maskUnits="userSpaceOnUse" x="0" y="0" width="24" height="24">
<rect width="24" height="24" fill="#D9D9D9"/>
</mask>
<g mask="url(#mask0_4430_5254)">
<path d="M7 17C6.16667 17 5.45833 16.7083 4.875 16.125C4.29167 15.5417 4 14.8333 4 14H2V11C2 9.9 2.39167 8.95833 3.175 8.175C3.95833 7.39167 4.9 7 6 7H10V12H13.5L17 7.65V5H14V3H17C17.55 3 18.021 3.19567 18.413 3.587C18.8043 3.979 19 4.45 19 5V8.35L14.5 14H10C10 14.8333 9.70833 15.5417 9.125 16.125C8.54167 16.7083 7.83333 17 7 17ZM7 15C7.28333 15 7.521 14.904 7.713 14.712C7.90433 14.5207 8 14.2833 8 14H6C6 14.2833 6.09567 14.5207 6.287 14.712C6.479 14.904 6.71667 15 7 15ZM5 6V4H10V6H5ZM19 17C18.1667 17 17.4583 16.7083 16.875 16.125C16.2917 15.5417 16 14.8333 16 14C16 13.1667 16.2917 12.4583 16.875 11.875C17.4583 11.2917 18.1667 11 19 11C19.8333 11 20.5417 11.2917 21.125 11.875C21.7083 12.4583 22 13.1667 22 14C22 14.8333 21.7083 15.5417 21.125 16.125C20.5417 16.7083 19.8333 17 19 17ZM19 15C19.2833 15 19.5207 14.904 19.712 14.712C19.904 14.5207 20 14.2833 20 14C20 13.7167 19.904 13.479 19.712 13.287C19.5207 13.0957 19.2833 13 19 13C18.7167 13 18.4793 13.0957 18.288 13.287C18.096 13.479 18 13.7167 18 14C18 14.2833 18.096 14.5207 18.288 14.712C18.4793 14.904 18.7167 15 19 15ZM13 23L7 20H11V18L17 21H13V23ZM4 12H8V9H6C5.45 9 4.97933 9.19567 4.588 9.587C4.196 9.979 4 10.45 4 11V12Z" fill="#FED41E"/>
</g>
</svg>
