<svg width="28" height="24" viewBox="0 0 28 24" fill="none" xmlns="http://www.w3.org/2000/svg">
<path d="M25.6062 9.65698H21.8441L26.6926 5.44753C27.4381 4.80053 27.478 3.66097 26.7804 2.96339C26.0828 2.26581 24.9433 2.30575 24.2963 3.05125L18.5639 9.65698H12.3788C12.4907 9.07921 12.7702 8.71711 13.1057 8.28578C13.5823 7.67073 14.1787 6.90393 14.1787 5.47149C14.1787 4.03905 13.5849 3.27224 13.1057 2.6572C12.669 2.09541 12.3256 1.65077 12.3256 0.694919C12.3256 0.311515 12.0141 0 11.6307 0C11.2473 0 10.9357 0.311515 10.9357 0.694919C10.9357 2.12736 11.5295 2.89416 12.0087 3.50921C12.4454 4.071 12.7889 4.51564 12.7889 5.47149C12.7889 6.42734 12.4454 6.87198 12.0087 7.43377C11.6014 7.95829 11.1115 8.59463 10.973 9.65698H1.66749C0.645077 9.65698 -0.124393 10.5676 0.0167209 11.5793C0.645077 16.0763 3.45138 19.8757 7.336 21.8806C7.37328 23.0575 8.33445 24 9.51927 24H17.7571C18.9419 24 19.9058 23.0548 19.9404 21.878C23.8357 19.8624 26.6473 16.0444 27.2597 11.5234C27.3955 10.5329 26.602 9.65698 25.6009 9.65698H25.6062Z" fill="black"/>
<path d="M7.89502 8.01951C7.89502 8.40291 8.20653 8.71443 8.58994 8.71443C8.97334 8.71443 9.28486 8.40291 9.28486 8.01951C9.28486 7.6361 9.41266 7.46836 9.64164 7.18081C9.9212 6.83202 10.3046 6.35277 10.3046 5.47147C10.3046 4.59018 9.9212 4.11358 9.64164 3.76213C9.41 3.47458 9.28486 3.31483 9.28486 2.92343C9.28486 2.53204 8.97334 2.22852 8.58994 2.22852C8.20653 2.22852 7.89502 2.54003 7.89502 2.92343C7.89502 3.80473 8.27842 4.28132 8.55799 4.63278C8.78697 4.92033 8.91477 5.08008 8.91477 5.47147C8.91477 5.86286 8.78697 6.02261 8.55799 6.31017C8.27842 6.65896 7.89502 7.13821 7.89502 8.01951Z" fill="black"/>
<path d="M15.4915 8.2512C15.4915 8.6346 15.803 8.94612 16.1864 8.94612C16.5698 8.94612 16.8813 8.6346 16.8813 8.2512C16.8813 7.86779 17.0091 7.70005 17.2381 7.4125C17.5176 7.06371 17.901 6.58446 17.901 5.70316C17.901 4.82186 17.5176 4.34527 17.2381 3.99382C17.0091 3.70627 16.8813 3.54652 16.8813 3.15512C16.8813 2.76373 16.5698 2.46021 16.1864 2.46021C15.803 2.46021 15.4915 2.77172 15.4915 3.15512C15.4915 4.03642 15.8749 4.51301 16.1544 4.86447C16.3861 5.15202 16.5112 5.31177 16.5112 5.70316C16.5112 6.09455 16.3834 6.2543 16.1544 6.54186C15.8749 6.89065 15.4915 7.3699 15.4915 8.2512Z" fill="black"/>
<path d="M10.0916 20.1127C9.99837 20.1127 9.90518 20.0967 9.81466 20.0621C6.71548 18.9145 4.30057 16.481 3.19029 13.3871C3.04119 12.9718 3.25686 12.5138 3.67221 12.3647C4.08756 12.2156 4.54552 12.4313 4.69462 12.8466C5.64514 15.4959 7.71126 17.578 10.3685 18.5631C10.7812 18.7175 10.9942 19.1755 10.8397 19.5882C10.7199 19.9103 10.4164 20.11 10.0916 20.11V20.1127Z" fill="white"/>
<path d="M20.9015 15.8926C21.8897 15.8926 22.6907 15.0916 22.6907 14.1034C22.6907 13.1153 21.8897 12.3142 20.9015 12.3142C19.9134 12.3142 19.1123 13.1153 19.1123 14.1034C19.1123 15.0916 19.9134 15.8926 20.9015 15.8926Z" fill="white"/>
<path d="M15.7787 15.1923C16.0802 15.1923 16.3245 14.948 16.3245 14.6465C16.3245 14.3451 16.0802 14.1007 15.7787 14.1007C15.4773 14.1007 15.2329 14.3451 15.2329 14.6465C15.2329 14.948 15.4773 15.1923 15.7787 15.1923Z" fill="white"/>
</svg>
