<svg width="25" height="24" viewBox="0 0 25 24" fill="none" xmlns="http://www.w3.org/2000/svg">
<rect x="0.5" width="24" height="24" rx="5" fill="#FED41E"/>
<path d="M7.61856 9.94812C7.56417 9.88693 7.50978 9.84614 7.45539 9.81214L7.40099 9.77815L7.43499 9.72376C7.48938 9.64897 7.51658 9.56738 7.51658 9.479C7.51658 9.34302 7.46898 9.23424 7.3738 9.13905C7.27862 9.04387 7.16303 8.99628 7.03386 8.99628H6.57153V11.3691H7.16303L7.19023 11.3555C7.3534 11.3283 7.49618 11.2535 7.61856 11.1243C7.78173 10.9544 7.86332 10.7572 7.86332 10.526C7.85652 10.3085 7.77493 10.1113 7.61856 9.94812ZM6.82309 9.26143H7.02706C7.09505 9.26143 7.14944 9.28183 7.19023 9.32262C7.23782 9.36342 7.25822 9.41781 7.25822 9.479C7.25822 9.54698 7.23782 9.59458 7.19703 9.63537C7.16303 9.66936 7.11544 9.68976 7.06785 9.69656H6.88428H6.82309V9.26143ZM7.42139 10.9476C7.32621 11.0495 7.21743 11.1039 7.08825 11.1175H6.82989V9.97531H7.02706C7.18343 9.97531 7.31941 10.0297 7.42819 10.1385C7.53697 10.2473 7.59136 10.3832 7.59136 10.5396C7.59136 10.696 7.53697 10.832 7.42139 10.9476Z" fill="black"/>
<path d="M8.271 9.00311V10.594C8.271 10.8116 8.35258 11.002 8.50216 11.1584C8.65853 11.3147 8.8489 11.3895 9.06646 11.3895C9.28403 11.3895 9.47439 11.3079 9.63077 11.1584C9.75995 11.0292 9.84153 10.866 9.86193 10.6688V9.00311H9.60357V10.594C9.60357 10.7436 9.54918 10.866 9.4472 10.9748C9.34522 11.0768 9.20924 11.1312 9.06646 11.1312C8.92369 11.1312 8.78771 11.0768 8.68573 10.9748C8.57694 10.866 8.52935 10.7436 8.52935 10.594V9.00311H8.271Z" fill="black"/>
<path d="M10.9499 11.1447C10.8207 11.1447 10.7051 11.0971 10.6167 11.002C10.5352 10.9204 10.4944 10.832 10.4808 10.7232L10.474 10.6416L10.2224 10.73L10.2292 10.7844C10.2496 10.934 10.3176 11.0699 10.4332 11.1855C10.576 11.3283 10.7459 11.4031 10.9499 11.4031C11.1471 11.4031 11.3238 11.3283 11.4666 11.1923C11.6094 11.0495 11.6774 10.8796 11.6774 10.6756C11.6774 10.4784 11.6026 10.3017 11.4666 10.1589C11.3374 10.0297 11.1811 9.93454 11.0043 9.88014H10.9975C10.8955 9.83255 10.8139 9.77816 10.7527 9.72377C10.6983 9.66938 10.6711 9.60139 10.6711 9.5266C10.6711 9.44502 10.6983 9.38383 10.7527 9.32944C10.8615 9.22065 11.0383 9.22065 11.1539 9.32944C11.1879 9.36343 11.2082 9.39742 11.2218 9.43142L11.2422 9.49261L11.4802 9.39742L11.4598 9.33624C11.4394 9.26145 11.3986 9.20026 11.3374 9.14587C11.1267 8.9351 10.7799 8.9351 10.5692 9.14587C10.4672 9.24785 10.4128 9.37703 10.4128 9.5266C10.4128 9.67618 10.4672 9.80536 10.5692 9.90734C10.6643 10.0025 10.8003 10.0841 10.9703 10.1385C11.0995 10.1929 11.2014 10.2609 11.2898 10.3425C11.385 10.4377 11.4258 10.5464 11.4258 10.6756C11.4258 10.8048 11.3782 10.9136 11.2898 11.0088C11.1946 11.0971 11.0723 11.1447 10.9499 11.1447Z" fill="black"/>
<path d="M12.4662 11.3759H12.7245V9.26147H13.2956V9.00311H11.9019V9.26147H12.4662V11.3759Z" fill="black"/>
<path d="M14.9068 9.26147V9.00311H13.6558V11.3759H14.9068V11.1176H13.9141V10.3221H14.9068V10.0569H13.9141V9.26147H14.9068Z" fill="black"/>
<path d="M16.5048 10.3629C16.6612 10.2065 16.736 10.0161 16.736 9.79858C16.736 9.58102 16.6544 9.39065 16.5048 9.23427C16.3756 9.1051 16.2124 9.02351 16.0153 9.00311H15.3694V11.3759H15.6277V10.6008H15.9405L16.4368 11.3759H16.7496L16.2192 10.5533L16.2804 10.5261C16.3688 10.4853 16.4436 10.4309 16.5048 10.3629ZM15.9473 10.3357H15.6345V9.26147H15.9473C16.0969 9.26147 16.2192 9.31586 16.328 9.41784C16.4368 9.52663 16.4844 9.64901 16.4844 9.79858C16.4844 9.94816 16.43 10.0705 16.328 10.1793C16.2192 10.2881 16.0901 10.3357 15.9473 10.3357Z" fill="black"/>
<path d="M17.7421 9.87335H17.7353C17.6333 9.82575 17.5517 9.77136 17.4905 9.71697C17.4361 9.66258 17.4089 9.59459 17.4089 9.5198C17.4089 9.43822 17.4361 9.37703 17.4905 9.32264C17.5993 9.21386 17.7761 9.21386 17.8849 9.32264C17.9188 9.35663 17.9392 9.39063 17.9528 9.42462L17.9732 9.49261L18.2112 9.39742L18.1908 9.33624C18.1704 9.26145 18.1296 9.20026 18.0684 9.14587C17.8577 8.9351 17.5109 8.9351 17.3001 9.14587C17.1982 9.24785 17.1438 9.37703 17.1438 9.5266C17.1438 9.67618 17.1982 9.80536 17.3001 9.90734C17.3953 10.0025 17.5313 10.0841 17.7013 10.1385C17.8305 10.1929 17.9324 10.2609 18.0208 10.3425C18.116 10.4377 18.1568 10.5464 18.1568 10.6756C18.1568 10.8048 18.1092 10.9204 18.0208 11.0088C17.8305 11.1923 17.5381 11.1923 17.3545 11.0088C17.273 10.9272 17.2322 10.8388 17.2186 10.73L17.2118 10.6416L16.9602 10.73L16.967 10.7844C16.9874 10.934 17.0554 11.0699 17.171 11.1855C17.3137 11.3283 17.4837 11.4031 17.6877 11.4031C17.8849 11.4031 18.0616 11.3283 18.2044 11.1923C18.3472 11.0495 18.4152 10.8796 18.4152 10.6756C18.4152 10.4784 18.3404 10.3017 18.2044 10.1589C18.0752 10.0297 17.9188 9.92774 17.7421 9.87335Z" fill="black"/>
<path d="M4.97363 7.69773H5.32717V6.25637H6.49658V5.89603H5.32717V4.80822H6.49658V4.44788H4.97363V7.69773Z" fill="black"/>
<path d="M9.52249 8.35041C10.148 8.35041 10.6919 8.12604 11.1338 7.68412C11.5758 7.24219 11.8001 6.69828 11.8001 6.07279C11.8001 5.44729 11.5758 4.90338 11.1338 4.46145C10.6919 4.01953 10.148 3.79517 9.52249 3.79517C8.897 3.79517 8.35309 4.01953 7.91116 4.46145C7.46924 4.90338 7.24487 5.44729 7.24487 6.07279C7.24487 6.69828 7.46924 7.24219 7.91116 7.68412C8.35309 8.12604 8.897 8.35041 9.52249 8.35041ZM9.52249 4.65862C10.3112 4.65862 10.9435 5.29772 10.9435 6.07959C10.9435 6.86146 10.3044 7.50055 9.52249 7.50055C8.74062 7.50055 8.10153 6.86146 8.10153 6.07959C8.10153 5.29772 8.73382 4.65862 9.52249 4.65862Z" fill="black"/>
<path d="M14.9071 7.99009C15.4306 7.99009 15.8861 7.79972 16.26 7.43258C16.634 7.05865 16.8175 6.60312 16.8175 6.07961C16.8175 5.5561 16.6272 5.10057 16.26 4.72664C15.8861 4.3527 15.4306 4.16913 14.9071 4.16913C14.3836 4.16913 13.928 4.3595 13.5541 4.72664C13.1802 5.10057 12.9966 5.5561 12.9966 6.07961C12.9966 6.60312 13.187 7.05865 13.5541 7.43258C13.9212 7.79972 14.3768 7.99009 14.9071 7.99009ZM14.9071 4.88301C15.5666 4.88301 16.1037 5.42012 16.1037 6.07961C16.1037 6.7391 15.5666 7.27621 14.9071 7.27621C14.2476 7.27621 13.7105 6.7391 13.7105 6.07961C13.7105 5.42012 14.2476 4.88301 14.9071 4.88301Z" fill="black"/>
<path d="M19.5301 4.8966C19.2513 4.61785 18.8638 4.46827 18.3743 4.45467L18.0208 4.44788V7.69773H18.2859L18.3811 7.69094C18.8706 7.67734 19.2581 7.52776 19.5369 7.24901C19.8632 6.92946 20.0264 6.52833 20.0264 6.07281C20.0128 5.61728 19.8496 5.22295 19.5301 4.8966ZM19.2717 6.99745C19.061 7.20822 18.7618 7.3238 18.3675 7.33739V4.81501C18.755 4.82861 19.061 4.94419 19.2717 5.15496C19.5301 5.41332 19.6525 5.71247 19.6525 6.0796C19.6525 6.43994 19.5301 6.73909 19.2717 6.99745Z" fill="black"/>
<path d="M14.7373 13.2048H16.3758C16.675 13.2048 16.9333 13.368 17.0829 13.6127C17.2801 13.0076 17.1237 12.7289 16.5458 12.5725C16.1923 12.4773 15.8387 12.5045 15.4784 12.4977C12.6568 12.4297 10.6104 12.7629 7.79565 11.811C8.17639 12.6949 8.76789 13.3 9.47497 13.7963C10.8144 14.7413 12.3441 14.9181 13.9214 14.8909V14.0343C13.9146 13.5787 14.2818 13.2048 14.7373 13.2048Z" fill="#533915"/>
<path d="M16.3755 13.2048H14.737C14.2882 13.2048 13.9143 13.5719 13.9143 14.0274V14.8841V16.781C13.9143 17.2093 14.2271 17.59 14.6486 17.6376C14.9409 17.6648 15.2129 17.5357 15.3829 17.3249C15.4373 17.2501 15.5596 17.2909 15.5596 17.3861V19.3442C15.5596 19.7725 15.8724 20.1532 16.2939 20.2008C16.7834 20.2484 17.1982 19.8609 17.1982 19.3849V14.0274C17.1982 13.8779 17.1506 13.7351 17.0826 13.6127C16.9398 13.3747 16.6746 13.2048 16.3755 13.2048Z" fill="#8EC7EC"/>
</svg>
