<svg width="200" height="200" viewBox="0 0 200 200" fill="none" xmlns="http://www.w3.org/2000/svg">
<circle cx="100" cy="100" r="100" fill="#FAFAFA"/>
<path d="M45.0223 88.251C43.8752 83.3749 43.888 73.0826 42.7419 68.2065C61.4871 65.6668 80.3509 64.0104 99.2509 63.2458C99.3599 61.5103 99.4699 59.7748 99.5788 58.0382C117.03 58.683 134.481 59.3267 151.932 59.9716C153.349 60.024 155.052 60.2581 155.636 61.552C155.949 62.2471 155.825 63.0491 155.732 63.8051C154.634 72.7115 155.926 81.711 155.623 90.5351" fill="#EBEBEB"/>
<path d="M149.486 104.554L53.0149 106.474L51.7781 70.93L148.769 68.4684L149.486 104.554Z" fill="#E6E9ED"/>
<path d="M149.503 105.442L53.0309 107.363C52.546 107.373 52.1433 106.991 52.1263 106.506L50.8905 70.961C50.8819 70.7247 50.9695 70.4937 51.1308 70.3205C51.2931 70.1484 51.5185 70.0478 51.7546 70.0425L148.746 67.5798C148.971 67.5563 149.21 67.6611 149.381 67.8258C149.552 67.9883 149.65 68.2139 149.656 68.4503L150.372 104.536C150.382 105.027 149.993 105.432 149.503 105.442ZM53.8705 105.569L148.581 103.683L147.9 69.3784L52.6966 71.7962L53.8705 105.569Z" fill="#E0E0E0"/>
<path d="M152.482 110.265L56.0098 112.186L54.774 76.6413L151.765 74.1797L152.482 110.265Z" fill="white"/>
<path d="M152.499 111.153L56.027 113.074C55.5421 113.084 55.1394 112.702 55.1224 112.217L53.8866 76.6723C53.878 76.4359 53.9656 76.205 54.1269 76.0317C54.2892 75.8596 54.5146 75.7591 54.7507 75.7537L151.742 73.291H151.746C151.98 73.2868 152.207 73.3745 152.377 73.537C152.548 73.6995 152.646 73.9252 152.652 74.1615L153.368 110.247C153.378 110.738 152.989 111.143 152.499 111.153ZM56.8666 111.28L151.577 109.394L150.896 75.0897L55.6927 77.5074L56.8666 111.28Z" fill="#E0E0E0"/>
<path d="M156.838 90.5095C157.038 83.8754 156.404 77.2541 156.507 70.6211C156.531 69.032 156.598 67.443 156.732 65.8593C156.844 64.5259 157.278 62.9647 156.939 61.6323C156.356 59.3386 153.946 58.8563 151.907 58.7547C148.925 58.6061 145.937 58.5344 142.952 58.4243C130.914 57.9795 118.874 57.5357 106.836 57.0908C105.427 57.0384 104.007 56.9326 102.597 56.9347C101.171 56.9358 99.8704 57.4651 99.0042 58.635C98.0226 59.9609 98.1348 61.6964 98.0354 63.2694C98.4317 62.8556 98.829 62.4428 99.2253 62.029C88.1213 62.4835 77.0312 63.2352 65.9689 64.2981C60.4874 64.8253 55.0144 65.4263 49.5489 66.1032C47.5281 66.3534 44.9508 66.2368 43.3657 67.7349C41.9505 69.0716 41.8907 70.7227 42.0754 72.5384C42.5657 77.3782 42.7494 82.3163 43.8261 87.0748C43.9115 87.4534 44.3046 87.8447 44.6912 87.9068C51.0592 88.9365 57.4262 89.9674 63.7942 90.9971C73.9337 92.6375 84.0732 94.2778 94.2127 95.9182C96.4899 96.286 98.7671 96.7234 101.054 97.0249C102.953 97.2752 104.912 97.257 106.823 97.3575C116.956 97.8857 127.09 98.4151 137.223 98.9433L142.73 99.231C143.554 99.2737 144.473 99.4416 145.298 99.3646C146.457 99.2566 147.621 97.9232 148.495 97.2506C150.511 95.6979 152.528 94.1452 154.544 92.5926C154.971 92.2643 155.398 91.936 155.824 91.6077C157.05 90.6635 155.798 88.5762 154.556 89.5322C153.191 90.5833 151.827 91.6334 150.462 92.6845C148.701 94.0404 146.649 95.2948 145.055 96.8464C144.74 97.1533 144.642 96.9533 145.015 97.0228C146.11 97.227 145.089 96.8923 145.164 96.9287C144.933 96.8164 144.427 96.8902 144.174 96.8774C142.706 96.8004 141.236 96.7245 139.767 96.6475C129.703 96.1224 119.639 95.5974 109.574 95.0723C106.888 94.9323 104.199 94.8082 101.513 94.6521C101.263 94.6371 102.021 94.7302 101.567 94.6542C101.276 94.6061 100.986 94.5601 100.695 94.5131C99.4635 94.3142 98.232 94.1142 97.0004 93.9153C87.3395 92.352 77.6774 90.7897 68.0164 89.2263L53.6131 86.8963C51.9095 86.6204 50.2058 86.3455 48.5022 86.0697C47.5911 85.9221 46.5892 85.6259 45.6643 85.6109C45.5425 85.6088 45.4122 85.5703 45.2904 85.55C45.5788 85.8269 45.8672 86.1049 46.1556 86.3819C45.6162 84.0016 45.3652 81.5667 45.1259 79.1404C44.8728 76.573 44.4413 73.9253 44.3836 71.3482C44.3505 69.8415 45.1879 69.1176 46.6181 68.9123C48.2031 68.6845 49.7967 68.5091 51.3861 68.3167C54.5669 67.9328 57.7498 67.5735 60.937 67.2398C73.6827 65.9064 86.47 64.9857 99.2734 64.4607C99.9698 64.4318 100.422 63.8896 100.463 63.2202C100.536 62.0664 100.31 60.3095 101.451 59.6166C101.925 59.329 102.384 59.3642 102.892 59.3749C104.162 59.4017 105.433 59.469 106.702 59.5161C111.887 59.7075 117.07 59.8989 122.255 60.0903C131.977 60.4496 141.698 60.7939 151.42 61.1671C151.954 61.1874 152.497 61.1896 153.023 61.2858C153.763 61.4206 154.466 61.5959 154.615 62.4503C154.723 63.0673 154.512 63.8116 154.445 64.4222C154.251 66.2015 154.14 67.9873 154.093 69.7763C153.911 76.7066 154.616 83.6262 154.406 90.5576C154.359 92.1231 156.787 92.0707 156.834 90.5095H156.838Z" fill="#E0E0E0"/>
<path d="M151.046 91.3627C154.332 91.2975 157.02 93.9634 156.972 97.2526C156.797 109.104 157.709 122.549 157.076 133.731C156.89 137.012 156.568 140.614 154.24 142.932C151.879 145.283 148.22 145.557 144.894 145.694C122.307 146.624 99.7208 147.553 77.1337 148.482C70.1878 148.768 63.2142 149.053 56.2993 148.341C54.7324 148.179 53.0597 147.917 51.9094 146.84C50.6181 145.631 50.3211 143.725 50.0968 141.969C48.3078 127.92 46.4845 102.221 44.6954 88.1719L49.3609 82.7696L115.058 79.8685L117.42 92.0321L151.046 91.3627Z" fill="#F6F6F6"/>
<path d="M151.603 95.0424L140.941 95.2548C139.686 95.2798 138.689 96.3186 138.714 97.5751L138.727 98.208C138.752 99.4645 139.789 100.463 141.044 100.438L151.706 100.225C152.961 100.2 153.958 99.1616 153.934 97.9051L153.921 97.2722C153.896 96.0157 152.858 95.0174 151.603 95.0424Z" fill="#EBEBEB"/>
<path d="M103.417 138.808C85.4606 139.803 67.4225 142.212 49.6931 138.583C49.8288 139.765 49.9633 140.909 50.099 141.969C50.3222 143.725 50.6202 145.63 51.9116 146.839C53.0619 147.916 54.7346 148.179 56.3015 148.341C63.2164 149.053 70.19 148.769 77.1359 148.482C99.723 147.553 122.309 146.623 144.896 145.695C148.222 145.558 151.882 145.283 154.242 142.933C154.995 142.184 155.523 141.291 155.919 140.326C138.412 139.915 120.949 137.837 103.419 138.809L103.417 138.808Z" fill="#EBEBEB"/>
<path d="M151.139 92.5774C152.614 92.601 153.983 93.2062 154.878 94.4092C155.917 95.8068 155.749 97.4386 155.74 99.0811C155.717 102.762 155.782 106.442 155.86 110.122C156.015 117.489 156.263 124.87 155.938 132.237C155.807 135.212 155.852 138.799 154.025 141.323C152.059 144.04 148.394 144.312 145.327 144.458C137.313 144.841 129.292 145.119 121.276 145.448C104.967 146.119 88.6585 146.906 72.3454 147.449C68.3763 147.582 64.3998 147.643 60.4328 147.439C58.5498 147.343 56.5492 147.32 54.711 146.873C52.8012 146.409 51.9532 145.249 51.5473 143.395C51.0058 140.921 50.8701 138.299 50.5999 135.784C50.2998 132.992 50.0231 130.198 49.7561 127.402C48.5032 114.318 47.5633 101.188 45.9131 88.1461C45.7998 88.4349 45.6877 88.7236 45.5745 89.0134C47.1296 87.2126 48.6848 85.4119 50.2399 83.6111C49.9558 83.7352 49.6717 83.8603 49.3887 83.9843C58.4163 83.5855 67.4449 83.1866 76.4725 82.7888C87.5274 82.3001 98.5822 81.8125 109.637 81.3238C111.964 81.2212 114.105 81.7783 114.719 84.4484C115.32 87.0672 115.747 89.7384 116.259 92.3764C116.36 92.8929 116.953 93.2554 117.448 93.2458C127.27 93.0501 137.092 92.8544 146.914 92.6587C148.324 92.6309 149.734 92.602 151.142 92.5742C152.705 92.5432 152.66 90.1116 151.094 90.1426C141.272 90.3383 131.451 90.5339 121.629 90.7296C120.219 90.7574 118.809 90.7863 117.4 90.8141C117.796 91.1039 118.193 91.3937 118.589 91.6835C118.053 88.9225 117.72 86.0299 116.948 83.3245C116.036 80.1315 113.092 78.736 110.005 78.8729C104.709 79.1071 99.4143 79.3402 94.1186 79.5744C79.8445 80.2042 65.5715 80.8351 51.2974 81.465C50.0242 81.5216 48.9806 81.3559 48.0856 82.391C46.9075 83.7544 45.7304 85.1189 44.5523 86.4823C44.2415 86.8416 43.7555 87.2682 43.5803 87.7227C43.2236 88.6444 43.7512 90.3532 43.8634 91.321C45.2818 103.632 46.2228 115.995 47.4127 128.328C47.6914 131.218 47.9809 134.107 48.2981 136.992C48.5844 139.589 48.6453 142.454 49.4421 144.952C50.4813 148.209 53.1719 149.222 56.3271 149.552C60.4734 149.988 64.6529 150.047 68.8185 149.973C85.7159 149.67 102.626 148.647 119.512 147.952C127.982 147.603 136.453 147.279 144.922 146.906C147.941 146.773 151.26 146.572 153.843 144.815C156.414 143.067 157.557 140.187 157.977 137.204C158.971 130.147 158.556 122.778 158.412 115.678C158.332 111.765 158.23 107.854 158.187 103.941C158.166 102.124 158.159 100.308 158.175 98.4908C158.188 96.967 158.192 95.5716 157.536 94.1633C156.353 91.6257 153.845 90.1853 151.094 90.1415C149.53 90.1169 149.581 92.5486 151.142 92.5732L151.139 92.5774Z" fill="#E0E0E0"/>
<path d="M52.6967 114.018C52.9114 117.62 53.2937 121.21 53.8438 124.776C53.9848 125.691 54.6086 126.585 55.6542 126.518C56.5087 126.462 57.5458 125.69 57.3942 124.705C56.8441 121.139 56.4617 117.549 56.247 113.947C56.1915 113.02 55.4214 112.142 54.4366 112.205C53.5074 112.265 52.6379 113.023 52.6967 114.018Z" fill="white"/>
<path d="M54.3362 130.673C54.3383 130.763 54.3394 130.853 54.3415 130.943C54.3373 131.188 54.3928 131.414 54.5082 131.624C54.584 131.843 54.71 132.031 54.8863 132.189C55.0508 132.359 55.243 132.477 55.4652 132.545C55.6788 132.652 55.9074 132.699 56.152 132.684C56.309 132.659 56.466 132.636 56.623 132.611C56.9221 132.52 57.1795 132.363 57.3974 132.138C57.4871 132.016 57.5779 131.895 57.6676 131.774C57.8225 131.494 57.8973 131.193 57.8919 130.872C57.8898 130.782 57.8887 130.693 57.8866 130.603C57.8908 130.358 57.8353 130.131 57.72 129.922C57.6441 129.702 57.5181 129.514 57.3418 129.357C57.1774 129.187 56.9851 129.068 56.7629 129.001C56.5493 128.894 56.3207 128.847 56.0761 128.862C55.9191 128.887 55.7621 128.91 55.6051 128.935C55.306 129.026 55.0486 129.183 54.8307 129.407C54.741 129.529 54.6502 129.651 54.5605 129.772C54.4056 130.052 54.3309 130.353 54.3362 130.673Z" fill="white"/>
<g style="mix-blend-mode:screen" opacity="0.57">
<path d="M138.597 65.3534C144.081 76.9086 141.306 92.5432 127.107 99.049C109.174 107.266 90.7884 95.9554 88.7056 77.1449C87.0949 62.6052 99.0961 52.0595 112.679 50.3742C124.718 48.8814 134.152 55.9893 138.598 65.3534H138.597Z" fill="white"/>
</g>
<path d="M90.9593 86.2556C89.6658 87.202 88.5101 88.3365 87.5392 89.6122C87.222 90.0293 86.9155 90.4816 86.8418 91.0002C86.7136 91.8995 87.301 92.7304 87.8789 93.4308C88.9598 94.7418 90.1187 95.9897 91.3459 97.166C91.9259 97.722 92.6266 98.2984 93.4255 98.2182C93.9564 98.1647 94.4103 97.8258 94.8162 97.4793C95.9345 96.5233 96.8317 96.3052 97.6403 95.0754" fill="white"/>
<path d="M88.147 88.9194C86.9753 85.7552 82.4198 89.376 81.0291 90.5031C77.9872 92.9657 74.1377 95.3247 74.2542 99.4758C74.3791 103.918 78.4144 108.909 83.0532 109.029C87.442 109.143 95.9057 101.992 94.6955 98.9861" fill="white"/>
<path d="M108.709 66.8013C106.496 67.4225 104.617 69.1367 103.796 71.286L108.709 66.8013Z" fill="white"/>
<path d="M138.597 65.3535C134.152 55.9883 124.717 48.8805 112.678 50.3732C99.0949 52.0585 87.0948 62.6042 88.7045 77.1439C90.7872 95.9545 109.172 107.265 127.106 99.048C141.305 92.5422 144.08 76.9086 138.595 65.3524L138.597 65.3535ZM117.439 91.7445C110.188 93.2309 102.922 89.0958 99.3823 82.8402C97.6669 79.8076 96.7611 76.0072 97.2856 72.533C97.7716 69.3164 99.3577 66.4153 101.57 64.0639C105.995 59.3588 113.029 56.7871 119.292 59.0444C119.412 59.0883 119.519 59.1428 119.62 59.2006C127.183 61.1382 132.498 68.4182 132.303 76.3055C132.102 84.4581 124.945 90.2036 117.439 91.7424V91.7445Z" fill="#D1D1D1"/>
<path d="M139.315 67.0281C139.779 68.8224 140.033 70.6724 139.952 72.6046C139.688 78.8602 137.283 86.7925 133.088 91.2666C128.437 96.2282 122.222 99.1069 115.426 99.4469C109.363 99.7495 102.384 96.7394 96.8274 94.2896C104.293 101.637 115.787 104.234 127.106 99.0481C140.63 92.8513 143.784 78.3747 139.314 67.0281H139.315Z" fill="#ECECEC"/>
<path d="M90.9593 86.2556C89.6658 87.202 88.5101 88.3365 87.5392 89.6122C87.222 90.0293 86.9155 90.4816 86.8418 91.0002C86.7136 91.8995 87.301 92.7304 87.8789 93.4308C88.9598 94.7418 90.1187 95.9897 91.3459 97.166C91.9259 97.722 92.6266 98.2984 93.4255 98.2182C93.9564 98.1647 94.4103 97.8258 94.8162 97.4793C95.9345 96.5233 96.8317 96.3052 97.6403 95.0754" fill="white"/>
<path d="M83.0532 109.028C86.108 109.107 89.3016 106.712 91.44 104.767C92.5156 103.788 93.6851 102.637 94.3164 101.302C95.5287 98.739 93.762 99.2448 92.1556 98.1744C91.8085 97.9424 91.5393 97.613 91.2766 97.289C90.3719 96.1726 89.4672 95.0562 88.5625 93.9399C87.9387 93.1699 87.2936 92.3562 87.1099 91.3809C86.8471 89.9812 88.5283 89.2434 87.6824 88.1441C87.1665 87.4747 86.1571 87.6404 85.4629 87.8051C83.8233 88.1933 82.3098 89.4647 81.0281 90.502C77.9862 92.9646 74.1367 95.3225 74.2542 99.4736C74.3792 103.916 78.4145 108.907 83.0532 109.027V109.028Z" fill="#C1C1C1"/>
<path d="M79.0649 93.4159C81.513 91.2848 84.2174 89.5011 86.9048 87.6961C86.4295 87.6063 85.8869 87.7057 85.4628 87.8062C83.8233 88.1944 82.3098 89.4658 81.0281 90.5031C78.1389 92.8428 74.5287 95.0905 74.2723 98.8663C75.4793 96.7629 77.3079 94.9451 79.0638 93.4159H79.0649Z" fill="#EBEBEB"/>
<path d="M91.4398 104.767C92.5154 103.788 93.685 102.637 94.3162 101.302C95.3544 99.1079 94.2073 99.1613 92.8476 98.5497C90.502 101.016 88.0582 103.431 85.169 105.255C83.3404 106.41 81.4007 107.285 79.3713 107.877C80.5035 108.561 81.7511 108.995 83.0531 109.028C86.1068 109.107 89.3015 106.712 91.4398 104.767Z" fill="#EBEBEB"/>
<path d="M108.709 66.8013C106.496 67.4225 104.617 69.1367 103.796 71.286L108.709 66.8013Z" fill="#C1B6BA"/>
<path d="M137.561 65.9876C141.528 74.4951 140.752 85.2066 134.345 92.3283C127.377 100.072 115.185 102.663 105.612 98.6962C96.1781 94.7867 89.9692 85.1093 89.778 74.9485C89.5772 64.2659 97.636 55.8696 107.391 52.7728C113.269 50.9068 119.699 50.8159 125.356 53.4711C130.814 56.0332 134.958 60.6013 137.561 65.9876C138.241 67.3948 140.311 66.1191 139.634 64.7183C137.107 59.4882 133.114 54.9392 128.014 52.1012C122.705 49.1467 116.633 48.3971 110.696 49.4547C99.8246 51.3912 89.4757 59.3599 87.6599 70.729C85.8858 81.8329 91.739 93.6607 101.371 99.2939C111.296 105.098 124.495 103.81 133.379 96.5821C142.85 88.8787 144.644 75.464 139.634 64.7183C138.974 63.3025 136.905 64.5803 137.561 65.9876Z" fill="#C1C1C1"/>
<path d="M90.3248 85.2173C89.4019 85.9017 88.5261 86.6502 87.741 87.4907C87.0446 88.236 86.2756 89.0808 85.875 90.0293C84.8881 92.3679 87.0521 94.4092 88.4887 95.9801C89.2182 96.7778 89.9648 97.583 90.7787 98.2963C91.6556 99.0662 92.7643 99.6714 93.9659 99.3495C94.9539 99.0844 95.6717 98.2973 96.4984 97.7402C97.3721 97.1521 98.0995 96.5404 98.6997 95.6657C99.0714 95.1246 98.766 94.3098 98.2308 94.0104C97.6124 93.665 96.9502 93.9366 96.5774 94.4798C96.2249 94.9931 95.7379 95.3235 95.2305 95.6646C94.9261 95.87 94.6271 96.0795 94.3387 96.3073C94.0749 96.5158 93.7822 96.8377 93.4618 96.9596C92.9256 97.1638 92.3659 96.4602 92.0262 96.1319C91.3886 95.516 90.7712 94.8787 90.1731 94.2243C89.6145 93.6137 89.0356 92.9967 88.5496 92.3251C88.1416 91.7616 87.8756 91.3178 88.2601 90.6869C89.0644 89.3663 90.3632 88.2018 91.5937 87.2897C92.1202 86.8994 92.3606 86.2128 91.9963 85.6172C91.677 85.0954 90.8556 84.8206 90.3258 85.2141L90.3248 85.2173Z" fill="#C1C1C1"/>
<path d="M89.3113 88.5729C87.5948 84.4378 83.0031 87.3902 80.6693 89.2444C77.4083 91.8354 73.1135 94.543 73.0377 99.2063C72.9672 103.546 76.1085 107.991 80.0797 109.602C83.74 111.088 87.2755 109.461 90.2683 107.274C91.9249 106.064 93.4747 104.668 94.6785 102.997C95.5468 101.791 96.4045 100.158 95.8609 98.6396C95.3364 97.1735 93.0026 97.8536 93.5313 99.3325C93.6339 99.6201 93.6435 99.665 93.5164 100.092C93.3668 100.593 93.0806 101.057 92.7858 101.487C92.0071 102.624 90.969 103.614 89.9137 104.491C88.053 106.037 85.3198 108.007 82.7574 107.8C79.3277 107.525 76.5613 104.256 75.7186 101.108C74.7103 97.3382 77.3784 94.898 80.0967 92.7732C80.8498 92.184 86.2244 87.4415 86.9817 89.2669C87.5756 90.6966 89.9126 90.0218 89.3113 88.574V88.5729Z" fill="#C1C1C1"/>
<path d="M108.363 65.6358C107.05 66.0122 105.861 66.7105 104.854 67.628C103.839 68.554 103.112 69.7132 102.618 70.9857C102.512 71.2594 102.613 71.6818 102.759 71.9203C102.911 72.1694 103.205 72.4047 103.496 72.4646C103.807 72.5298 104.157 72.5073 104.429 72.3234C104.709 72.1352 104.851 71.8978 104.973 71.5856C104.83 71.9523 105.02 71.485 105.059 71.4006C105.112 71.2883 105.167 71.1782 105.226 71.0691C105.354 70.8295 105.495 70.5975 105.649 70.3729C105.69 70.312 105.736 70.2532 105.777 70.1912C105.583 70.4788 105.726 70.2628 105.772 70.2051C105.849 70.1078 105.928 70.0137 106.009 69.9206C106.196 69.7068 106.395 69.5036 106.606 69.3122C106.706 69.2202 106.815 69.1379 106.915 69.0448C106.838 69.1176 106.73 69.1903 106.876 69.0791C106.935 69.0341 106.995 68.9903 107.054 68.9465C107.276 68.7882 107.504 68.6406 107.74 68.507C107.859 68.4396 107.978 68.3765 108.1 68.3156C108.162 68.2845 108.249 68.2632 108.301 68.2204C108.229 68.2792 108.067 68.3209 108.251 68.245C108.513 68.1359 108.782 68.0439 109.055 67.9659C109.666 67.7905 110.087 67.0698 109.873 66.4528C109.656 65.8251 109.017 65.4455 108.362 65.6337L108.363 65.6358Z" fill="white"/>
<path d="M102.512 77.0648C104.074 77.0338 104.03 74.6021 102.464 74.6331C100.901 74.6641 100.946 77.0958 102.512 77.0648Z" fill="white"/>
</svg>
