<svg width="200" height="200" viewBox="0 0 200 200" fill="none" xmlns="http://www.w3.org/2000/svg">
<circle cx="100" cy="100" r="100" fill="#FAFAFA"/>
<path d="M74.608 154.545L127.693 154.963L128.219 87.8269L75.1343 87.4092L74.608 154.545Z" fill="#EBEBEB"/>
<path d="M107.456 89.8007L106.521 154.807L98.1216 154.742L99.9271 89.7361L107.456 89.8007Z" fill="#FAFAFA"/>
<path d="M44.6479 89.3162L75.1168 89.5423L128.204 89.9622L75.0523 96.9716L74.6009 154.548L44.1643 154.306L44.6479 89.3162Z" fill="#E0E0E0"/>
<path d="M61.2367 89.4454L60.0276 154.435L50.9836 154.371L52.4668 89.3647L61.2367 89.4454Z" fill="#FAFAFA"/>
<path d="M85.3377 69.6611C85.3377 70.0648 84.4671 70.5009 82.8389 70.8885C81.2107 71.2761 78.8248 71.6799 75.794 71.8252C74.2786 71.906 72.602 71.906 70.7965 71.7768C69.8937 71.7122 68.9425 71.6153 67.9753 71.4538C66.9919 71.2923 66.073 71.1469 64.8639 70.7916C64.2674 70.5978 63.6387 70.3717 62.9616 69.9679C62.2845 69.5641 61.5268 68.9827 60.9465 68.0783C60.35 67.1739 60.0921 66.0433 60.0759 65.1551C60.0598 64.2506 60.2049 63.5077 60.3339 62.894C60.8336 60.746 61.3495 58.5495 62.3651 56.1592C62.881 54.9802 63.5259 53.8174 64.2997 52.7353C64.7027 52.1862 65.1057 51.7017 65.6055 51.1848C66.1213 50.668 66.6856 50.1835 67.3788 49.7474C68.072 49.3275 68.8781 48.9561 69.7808 48.7784C70.6836 48.6007 71.6831 48.633 72.5375 48.843C74.2464 49.2952 75.3265 50.1673 76.1648 50.8618C79.389 53.5913 81.6782 56.6599 83.1452 59.4378C84.6122 62.2157 85.2732 64.7028 85.4989 66.4309C85.7085 68.1752 85.4989 69.1604 85.112 69.2411C84.2576 69.4511 83.0001 66.0272 79.6308 61.715C77.9381 59.5831 75.6812 57.2413 72.8116 55.174C72.1506 54.6895 71.538 54.3988 71.264 54.3826C71.1189 54.3826 71.0705 54.3826 70.9738 54.4149C70.8771 54.4472 70.7159 54.528 70.5063 54.6572C70.3128 54.8026 70.071 54.9964 69.8292 55.2548C69.5874 55.5132 69.3133 55.8685 69.0715 56.1915C68.5879 56.886 68.1687 57.6612 67.7818 58.5333C67.0403 60.2453 66.4921 62.2964 65.9601 64.2345C65.8473 64.6382 65.7989 64.9451 65.7989 65.0743V65.1389C65.7989 65.1389 65.67 65.1712 65.6377 65.1874C65.4443 65.2358 65.3959 65.2843 65.5249 65.2035C65.541 65.2035 65.67 65.1066 65.7183 65.0581C65.7183 65.0581 65.7183 65.0581 65.7183 65.0905C65.7344 65.1228 65.7828 65.1712 65.8634 65.2358C66.0246 65.3489 66.2987 65.4942 66.6211 65.6234C67.2498 65.8818 68.1848 66.1241 68.9909 66.334C69.8131 66.5601 70.6353 66.7217 71.4252 66.8993C73.0212 67.2223 74.5366 67.4484 75.9552 67.6422C78.7764 68.0137 81.1301 68.2721 82.7583 68.5951C84.4027 68.902 85.3216 69.2573 85.3216 69.6772L85.3377 69.6611Z" fill="#E0E0E0"/>
<path d="M84.2414 70.1455C84.0963 69.3057 88.0621 68.0621 94.2687 66.2371C97.3479 65.3004 100.975 64.1537 104.715 62.4902C105.634 62.0864 106.472 61.6504 106.972 61.2304C107.214 61.0366 107.327 60.859 107.295 60.8751C107.262 60.8751 107.23 61.1174 107.214 61.0043C107.198 60.9074 107.069 60.5683 106.827 60.0676C106.569 59.5508 106.327 59.0178 106.069 58.4848C105.553 57.4512 105.038 56.4822 104.457 55.5939C103.877 54.7218 103.248 53.9627 102.571 53.3328C102.233 53.0098 101.862 52.7353 101.507 52.4768C101.169 52.2507 100.846 52.0731 100.54 51.96C99.9111 51.7178 99.4597 51.6855 98.9761 51.8147C98.4763 51.9439 97.7993 52.3315 97.106 52.9129C94.0592 55.4647 91.5926 58.291 89.8516 60.8105C86.2888 65.8818 85.3538 69.8387 84.4671 69.7095C84.0802 69.661 83.79 68.5789 83.919 66.6247C84.0641 64.6867 84.6928 61.8765 86.2082 58.711C87.7236 55.5293 90.0934 52.0731 93.4949 48.7945C94.4138 47.9547 95.5907 46.9857 97.2511 46.4042C98.9277 45.8067 100.927 45.9036 102.507 46.485C103.313 46.7596 104.038 47.1472 104.715 47.5671C105.344 47.987 105.957 48.4231 106.521 48.9399C107.665 49.9412 108.617 51.1202 109.423 52.3315C110.212 53.5428 110.857 54.7702 111.405 55.9331C111.663 56.5145 111.921 57.0798 112.179 57.645C112.437 58.2426 112.792 59.0178 112.969 60.0838C113.163 61.1335 112.969 62.5871 112.373 63.6207C111.792 64.6705 111.051 65.3004 110.406 65.801C109.084 66.7539 107.859 67.2061 106.779 67.6099C102.474 69.1927 98.4763 69.9517 95.1554 70.4039C88.4974 71.2276 84.3865 70.9854 84.2575 70.2101L84.2414 70.1455Z" fill="#EBEBEB"/>
<path d="M35 89.2353L113.024 89.8492L113.198 67.6268L35.1742 67.0129L35 89.2353Z" fill="#E0E0E0"/>
<path d="M63.6977 89.4561L134.225 90.011L134.4 67.7886L63.872 67.2336L63.6977 89.4561Z" fill="#EBEBEB"/>
<path d="M112.743 67.6261L112.26 89.9461L104.022 89.7685L104.602 67.5615L112.743 67.6261Z" fill="#FAFAFA"/>
<path d="M54.3046 67.2707L53.5146 89.397L44.4707 89.3324L44.9543 67.0931L54.3046 67.2707Z" fill="#FAFAFA"/>
<path d="M132.105 153.322L162.186 153.559L162.484 115.526L132.403 115.289L132.105 153.322Z" fill="#EBEBEB"/>
<path d="M150.725 116.643L150.193 153.466L145.437 153.434L146.453 116.611L150.725 116.643Z" fill="#FAFAFA"/>
<path d="M115.146 116.352L132.395 116.498L162.477 116.724L132.363 120.697L132.105 153.337L114.855 153.192L115.146 116.352Z" fill="#E0E0E0"/>
<path d="M124.528 116.433L123.851 153.272L118.725 153.224L119.563 116.401L124.528 116.433Z" fill="#FAFAFA"/>
<path d="M138.199 105.225C138.199 105.774 136.232 106.468 132.782 106.759C131.025 106.856 129.01 106.888 126.479 106.242C125.802 106.016 124.851 105.709 124.044 104.546C123.658 103.965 123.496 103.238 123.48 102.689C123.48 102.124 123.561 101.671 123.625 101.316C123.915 100.089 124.19 98.829 124.802 97.4239C125.108 96.7294 125.479 96.0511 125.947 95.4051C126.414 94.7913 126.946 94.1453 127.817 93.6124C128.623 93.0794 129.945 92.7564 131.041 93.0632C132.105 93.3539 132.75 93.8869 133.25 94.2907C135.104 95.8896 136.393 97.6823 137.215 99.2973C138.844 102.592 138.602 104.934 138.086 105.015C137.489 105.16 136.683 103.254 134.733 100.912C133.749 99.7496 132.476 98.4737 130.88 97.3431C130.509 97.0847 130.203 96.9555 130.154 96.9717V97.004C130.154 97.004 130.122 97.0363 130.042 97.0847C129.88 97.1816 129.622 97.4885 129.348 97.8599C129.106 98.2153 128.881 98.6352 128.671 99.1035C128.268 100.024 127.962 101.187 127.656 102.269L127.575 102.641C127.575 102.641 127.365 102.641 127.301 102.657C127.204 102.657 127.124 102.689 127.059 102.705C126.946 102.737 126.93 102.754 126.995 102.705C127.059 102.673 127.14 102.592 127.285 102.447L127.365 102.35C127.365 102.35 127.365 102.366 127.398 102.382C127.446 102.431 127.575 102.511 127.736 102.576C129.397 103.19 131.363 103.545 132.911 103.787C136.087 104.256 138.199 104.627 138.215 105.225H138.199Z" fill="#E0E0E0"/>
<path d="M137.57 105.499C137.457 104.853 139.698 103.997 143.164 102.867C144.889 102.285 146.904 101.607 148.968 100.638C149.467 100.412 149.919 100.153 150.112 99.9756C150.209 99.8949 150.209 99.8303 150.112 99.9595C150.032 100.073 149.983 100.379 149.999 100.396C149.806 99.9756 149.596 99.5557 149.403 99.1358C149.113 98.5544 148.839 98.0376 148.532 97.5692C148.226 97.1008 147.904 96.7132 147.565 96.4064C147.211 96.0834 146.84 95.825 146.614 95.7281C146.356 95.6311 146.259 95.615 146.098 95.6311C145.937 95.6473 145.598 95.825 145.228 96.1157C143.535 97.4885 142.132 99.0228 141.117 100.379C139.053 103.109 138.36 105.305 137.699 105.208C137.119 105.192 136.635 102.527 138.328 98.7644C139.166 96.8909 140.488 94.8721 142.455 92.9502C143.003 92.4495 143.712 91.8358 144.776 91.4643C145.84 91.0767 147.13 91.1413 148.129 91.4966C148.645 91.6743 149.097 91.9004 149.516 92.1749C149.903 92.4333 150.274 92.6918 150.612 92.9986C151.305 93.5962 151.886 94.3068 152.353 95.0336C152.821 95.7604 153.191 96.471 153.514 97.1493L153.949 98.1345C154.094 98.4898 154.32 98.9582 154.433 99.6688C154.562 100.363 154.433 101.348 154.03 102.043C153.643 102.737 153.159 103.157 152.74 103.464C151.902 104.062 151.176 104.32 150.548 104.546C148.049 105.435 145.743 105.822 143.841 106.032C140.021 106.387 137.683 106.097 137.57 105.499Z" fill="#E0E0E0"/>
<path d="M109.671 116.306L153.89 116.654L153.988 104.057L109.77 103.709L109.671 116.306Z" fill="#E0E0E0"/>
<path d="M125.922 116.438L165.885 116.753L165.984 104.156L126.021 103.841L125.922 116.438Z" fill="#EBEBEB"/>
<path d="M153.723 104.078L153.449 116.724L148.79 116.627L149.113 104.029L153.723 104.078Z" fill="#FAFAFA"/>
<path d="M120.611 103.868L120.159 116.417L115.033 116.368L115.307 103.771L120.611 103.868Z" fill="#FAFAFA"/>
</svg>
