<svg width="21" height="24" viewBox="0 0 21 24" fill="none" xmlns="http://www.w3.org/2000/svg">
<path d="M13.2498 0H7.74544C7.21903 0 6.7923 0.426734 6.7923 0.953138V2.19222C6.7923 2.71862 7.21903 3.14535 7.74544 3.14535H13.2498C13.7762 3.14535 14.2029 2.71862 14.2029 2.19222V0.953138C14.2029 0.426734 13.7762 0 13.2498 0Z" fill="#BCBEC0"/>
<path fill-rule="evenodd" clip-rule="evenodd" d="M15.6327 1H18.6017C18.9809 1 19.3445 1.15063 19.6126 1.41875C19.8808 1.68687 20.0314 2.05052 20.0314 2.42971V22.4456C20.0314 22.8248 19.8808 23.1884 19.6126 23.4566C19.3445 23.7247 18.9809 23.8753 18.6017 23.8753H2.39833C2.01915 23.8753 1.65555 23.7247 1.38743 23.4566C1.11931 23.1884 0.968628 22.8248 0.968628 22.4456V2.42971C0.968628 2.05052 1.11931 1.68687 1.38743 1.41875C1.65555 1.15063 2.01915 1 2.39833 1H5.36741V2.07228C5.36741 2.70425 5.61846 3.31033 6.06533 3.7572C6.5122 4.20407 7.11828 4.45512 7.75025 4.45512H13.2498C13.8818 4.45512 14.4879 4.20407 14.9347 3.7572C15.3816 3.31033 15.6327 2.70425 15.6327 2.07228V1ZM5.44361 17.3844H12.1537C12.4169 17.3844 12.6303 17.5978 12.6303 17.861V18.5425C12.6303 18.8057 12.4169 19.0191 12.1537 19.0191H5.44361C5.18041 19.0191 4.96704 18.8057 4.96704 18.5425V17.861C4.96704 17.5978 5.18041 17.3844 5.44361 17.3844ZM9.4325 13.162H5.44361C5.18041 13.162 4.96704 13.3754 4.96704 13.6386V14.3201C4.96704 14.5833 5.18041 14.7967 5.44361 14.7967H9.4325C9.6957 14.7967 9.90907 14.5833 9.90907 14.3201V13.6386C9.90907 13.3754 9.6957 13.162 9.4325 13.162ZM5.44361 8.94443H15.5564C15.8196 8.94443 16.033 9.15779 16.033 9.421V10.1025C16.033 10.3657 15.8196 10.5791 15.5564 10.5791H5.44361C5.18041 10.5791 4.96704 10.3657 4.96704 10.1025V9.421C4.96704 9.15779 5.18041 8.94443 5.44361 8.94443Z" fill="#BCBEC0"/>
</svg>
