<svg width="25" height="24" viewBox="0 0 25 24" fill="none" xmlns="http://www.w3.org/2000/svg">
<path fill-rule="evenodd" clip-rule="evenodd" d="M24.5047 12.0047C24.5066 13.8107 24.0994 15.5935 23.3136 17.2195C22.5278 18.8455 21.384 20.2724 19.9678 21.3931C17.8468 23.0882 15.2104 24.0079 12.4952 24C9.78338 24.0057 7.15069 23.0861 5.03218 21.3931C3.61606 20.2724 2.4722 18.8455 1.68643 17.2195C0.900667 15.5935 0.493406 13.8107 0.495245 12.0047C0.494619 10.4285 0.804593 8.86754 1.40737 7.41109C2.01014 5.95463 2.89394 4.6312 4.0083 3.5164C5.12267 2.40159 6.44573 1.51726 7.90194 0.913904C9.35815 0.310551 10.919 3.66208e-06 12.4952 3.78638e-06C14.0723 -0.00124897 15.6341 0.308374 17.0915 0.911166C18.5488 1.51396 19.873 2.39809 20.9884 3.51303C22.1037 4.62795 22.9884 5.95181 23.5918 7.40889C24.1952 8.86596 24.5054 10.4277 24.5047 12.0047ZM12.5047 15.1596C14.2498 15.1596 15.6644 13.745 15.6644 12C15.6644 10.255 14.2498 8.84033 12.5047 8.84033C10.7597 8.84033 9.34509 10.255 9.34509 12C9.34509 13.745 10.7597 15.1596 12.5047 15.1596ZM12.5048 23.0039C14.9917 23.0095 17.4067 22.1693 19.353 20.6211C18.9197 19.6563 18.217 18.8372 17.3293 18.2623C16.4416 17.6875 15.4067 17.3812 14.3491 17.3804H10.6605C9.60285 17.3812 8.56798 17.6875 7.68028 18.2623C6.79257 18.8372 6.08982 19.6563 5.65649 20.6211C7.60283 22.1693 10.0178 23.0095 12.5048 23.0039Z" fill="#BCBEC0"/>
</svg>
