<svg width="20" height="20" viewBox="0 0 20 20" fill="none" xmlns="http://www.w3.org/2000/svg">
<path d="M19.0342 20.0002C18.7926 20.0002 18.5511 19.9398 18.37 19.7587L13.2983 14.6869C12.936 14.3247 12.936 13.7209 13.2983 13.3586C13.6605 12.9963 14.2643 12.9963 14.6266 13.3586L19.6983 18.4304C20.0606 18.7926 20.0606 19.3964 19.6983 19.7587C19.5172 19.9398 19.2757 20.0002 19.0342 20.0002Z" fill="#A3A0A1"/>
<path d="M8.52837 17.1624C6.35477 17.1624 4.12079 16.3171 2.49059 14.6265C-0.830195 11.3058 -0.830195 5.81137 2.49059 2.49059C5.81137 -0.830195 11.3057 -0.830195 14.6265 2.49059C17.9473 5.81137 17.9473 11.3058 14.6265 14.6265C12.936 16.3171 10.702 17.1624 8.52837 17.1624ZM8.52837 1.82643C6.77741 1.82643 5.08683 2.49059 3.75852 3.8189C1.16227 6.47552 1.16227 10.702 3.75852 13.3586C6.41515 16.0152 10.6416 16.0152 13.2982 13.3586C15.9548 10.702 15.9548 6.47552 13.2982 3.8189C11.9699 2.49059 10.2793 1.82643 8.52837 1.82643Z" fill="#A3A0A1"/>
</svg>
