<svg width="15" height="16" viewBox="0 0 15 16" fill="none" xmlns="http://www.w3.org/2000/svg">
<path d="M12.3192 11.3092C11.7087 11.3092 11.1626 11.5502 10.7449 11.9277L5.01798 8.59438C5.05814 8.40964 5.09027 8.2249 5.09027 8.03213C5.09027 7.83936 5.05814 7.65462 5.01798 7.46988L10.6806 4.16867C11.1144 4.57028 11.6847 4.81928 12.3192 4.81928C13.6525 4.81928 14.7288 3.74297 14.7288 2.40964C14.7288 1.07631 13.6525 0 12.3192 0C10.9859 0 9.90955 1.07631 9.90955 2.40964C9.90955 2.60241 9.94168 2.78715 9.98184 2.97189L4.31919 6.27309C3.88545 5.87149 3.31517 5.62249 2.68063 5.62249C1.3473 5.62249 0.270996 6.69879 0.270996 8.03213C0.270996 9.36546 1.3473 10.4418 2.68063 10.4418C3.31517 10.4418 3.88545 10.1928 4.31919 9.79116L10.0381 13.1325C9.9979 13.3012 9.97381 13.4779 9.97381 13.6546C9.97381 14.9478 11.026 16 12.3192 16C13.6124 16 14.6646 14.9478 14.6646 13.6546C14.6646 12.3614 13.6124 11.3092 12.3192 11.3092Z" fill="black"/>
</svg>
